# Blender v2.80 (sub 75) OBJ File: ''
# www.blender.org
mtllib helmet3.mtl
o headModel
v -4.657249 -4.512293 -4.758661
v 4.657249 -4.512294 -4.758661
v 4.657248 -8.712294 -4.758660
v -4.657249 -8.712293 -4.758660
v -4.657249 -4.512292 -4.233661
v -4.657249 -8.712293 -4.233660
v 4.657249 -4.512294 -4.233661
v 4.657248 -8.712294 -4.233660
v -4.657249 -3.987293 -4.758661
v -4.233863 -3.987293 -4.758661
v -4.233863 -4.512293 -4.758661
v -4.657249 -4.512293 -4.758661
v -4.657249 -3.987293 -4.233661
v -4.657249 -4.512292 -4.233661
v -4.233863 -3.987293 -4.233661
v -4.233863 -4.512293 -4.233661
v -4.233863 -3.987293 -4.758661
v -3.810477 -3.987293 -4.758661
v -3.810477 -4.512293 -4.758661
v -4.233863 -4.512293 -4.758661
v -4.233863 -3.987293 -4.233661
v -4.233863 -4.512293 -4.233661
v -3.810477 -3.987293 -4.233661
v -3.810477 -4.512293 -4.233661
v 3.810477 -3.987294 -4.758661
v 4.233863 -3.987294 -4.758661
v 4.233863 -4.512294 -4.758661
v 3.810477 -4.512294 -4.758661
v 3.810477 -3.987294 -4.233661
v 3.810477 -4.512294 -4.233661
v 4.233863 -3.987294 -4.233661
v 4.233863 -4.512294 -4.233661
v 4.233863 -3.987294 -4.758661
v 4.657249 -3.987294 -4.758661
v 4.657249 -4.512294 -4.758661
v 4.233863 -4.512294 -4.758661
v 4.233863 -3.987294 -4.233661
v 4.233863 -4.512294 -4.233661
v 4.657249 -3.987294 -4.233661
v 4.657249 -4.512294 -4.233661
v 4.233863 -3.987294 -4.233661
v 4.657249 -3.987294 -4.233661
v 4.657248 -8.712294 -4.233660
v 4.233862 -8.712294 -4.233660
v 4.233863 -3.987293 -0.033661
v 4.233862 -8.712294 -0.033661
v 4.657249 -3.987293 -0.033661
v 4.657248 -8.712294 -0.033661
v -4.657249 -3.987293 -4.233661
v -4.233863 -3.987293 -4.233661
v -4.233863 -8.712293 -4.233660
v -4.657249 -8.712293 -4.233660
v -4.657249 -3.987292 -0.033661
v -4.657249 -8.712292 -0.033661
v -4.233863 -3.987292 -0.033661
v -4.233863 -8.712292 -0.033661
v 4.233863 -2.937293 -0.033662
v 4.657249 -2.937294 -0.033662
v 4.657248 -8.712294 -0.033661
v 4.233862 -8.712294 -0.033661
v 4.233863 -2.937293 4.691339
v 4.233862 -8.712292 4.691339
v 4.657249 -2.937293 4.691339
v 4.657248 -8.712292 4.691339
v -4.657249 -2.937292 -0.033662
v -4.233863 -2.937292 -0.033662
v -4.233863 -8.712292 -0.033661
v -4.657249 -8.712292 -0.033661
v -4.657249 -2.937291 4.691339
v -4.657249 -8.712292 4.691339
v -4.233863 -2.937291 4.691339
v -4.233863 -8.712292 4.691339
v -4.233863 -2.937291 4.166338
v 4.233863 -2.937293 4.166338
v 4.233862 -8.712292 4.166339
v -4.233863 -8.712292 4.166339
v -4.233863 -2.937291 4.691339
v -4.233863 -8.712292 4.691339
v 4.233863 -2.937293 4.691339
v 4.233862 -8.712292 4.691339
v -4.233863 -8.187292 -4.233660
v 4.233862 -8.187294 -4.233660
v 4.233862 -8.712294 -4.233660
v -4.233863 -8.712293 -4.233660
v -4.233863 -8.187291 4.166339
v -4.233863 -8.712292 4.166339
v 4.233862 -8.187292 4.166339
v 4.233862 -8.712292 4.166339
vt 0.000000 0.500000
vt 0.343750 0.500000
vt 0.343750 0.625000
vt 0.000000 0.625000
vt 0.343750 0.703125
vt 0.359375 0.703125
vt 0.359375 0.828125
vt 0.343750 0.828125
vt 0.015625 0.796875
vt 0.328125 0.796875
vt 0.328125 0.953125
vt 0.015625 0.953125
vt 0.343750 0.703125
vt 0.359375 0.703125
vt 0.359375 0.828125
vt 0.343750 0.828125
vt 0.625000 0.453125
vt 0.968750 0.453125
vt 0.968750 0.468750
vt 0.625000 0.468750
vt 0.000000 0.500000
vt 0.343750 0.500000
vt 0.343750 0.515625
vt 0.000000 0.515625
vt 0.000000 0.484375
vt 0.015625 0.484375
vt 0.015625 0.500000
vt 0.000000 0.500000
vt 0.000000 0.484375
vt 0.015625 0.484375
vt 0.015625 0.500000
vt 0.000000 0.500000
vt 0.000000 0.484375
vt 0.015625 0.484375
vt 0.015625 0.500000
vt 0.000000 0.500000
vt 0.000000 0.484375
vt 0.015625 0.484375
vt 0.015625 0.500000
vt 0.000000 0.500000
vt 0.000000 0.484375
vt 0.015625 0.484375
vt 0.015625 0.500000
vt 0.000000 0.500000
vt 0.015625 0.484375
vt 0.031250 0.484375
vt 0.031250 0.500000
vt 0.015625 0.500000
vt 0.015625 0.484375
vt 0.031250 0.484375
vt 0.031250 0.500000
vt 0.015625 0.500000
vt 0.015625 0.484375
vt 0.031250 0.484375
vt 0.031250 0.500000
vt 0.015625 0.500000
vt 0.015625 0.484375
vt 0.031250 0.484375
vt 0.031250 0.500000
vt 0.015625 0.500000
vt 0.015625 0.484375
vt 0.031250 0.484375
vt 0.031250 0.500000
vt 0.015625 0.500000
vt 0.312500 0.484375
vt 0.328125 0.484375
vt 0.328125 0.500000
vt 0.312500 0.500000
vt 0.312500 0.484375
vt 0.328125 0.484375
vt 0.328125 0.500000
vt 0.312500 0.500000
vt 0.312500 0.484375
vt 0.328125 0.484375
vt 0.328125 0.500000
vt 0.312500 0.500000
vt 0.312500 0.484375
vt 0.328125 0.484375
vt 0.328125 0.500000
vt 0.312500 0.500000
vt 0.312500 0.484375
vt 0.328125 0.484375
vt 0.328125 0.500000
vt 0.312500 0.500000
vt 0.328125 0.484375
vt 0.343750 0.484375
vt 0.343750 0.500000
vt 0.328125 0.500000
vt 0.328125 0.484375
vt 0.343750 0.484375
vt 0.343750 0.500000
vt 0.328125 0.500000
vt 0.328125 0.484375
vt 0.343750 0.484375
vt 0.343750 0.500000
vt 0.328125 0.500000
vt 0.328125 0.484375
vt 0.343750 0.484375
vt 0.343750 0.500000
vt 0.328125 0.500000
vt 0.328125 0.484375
vt 0.343750 0.484375
vt 0.343750 0.500000
vt 0.328125 0.500000
vt 0.359375 0.687500
vt 0.375000 0.687500
vt 0.375000 0.828125
vt 0.359375 0.828125
vt 0.359375 0.875000
vt 0.484375 0.875000
vt 0.484375 1.000000
vt 0.359375 1.000000
vt 0.468750 0.687500
vt 0.484375 0.687500
vt 0.484375 0.828125
vt 0.468750 0.828125
vt 0.359375 0.687500
vt 0.484375 0.687500
vt 0.484375 0.828125
vt 0.359375 0.828125
vt 0.953125 0.593750
vt 0.968750 0.593750
vt 0.968750 0.468750
vt 0.953125 0.468750
vt 0.406250 0.687500
vt 0.421875 0.687500
vt 0.421875 0.703125
vt 0.406250 0.703125
vt 0.359375 0.687500
vt 0.375000 0.687500
vt 0.375000 0.828125
vt 0.359375 0.828125
vt 0.484375 0.687500
vt 0.484375 0.828125
vt 0.468750 0.687500
vt 0.468750 0.828125
vt 0.359375 0.875000
vt 0.484375 0.875000
vt 0.484375 1.000000
vt 0.359375 1.000000
vt 0.625000 0.593750
vt 0.640625 0.593750
vt 0.640625 0.468750
vt 0.625000 0.468750
vt 0.406250 0.687500
vt 0.421875 0.687500
vt 0.421875 0.703125
vt 0.406250 0.703125
vt 0.484375 0.656250
vt 0.500000 0.656250
vt 0.500000 0.828125
vt 0.484375 0.828125
vt 0.484375 0.843750
vt 0.609375 0.843750
vt 0.609375 1.000000
vt 0.484375 1.000000
vt 0.609375 0.656250
vt 0.625000 0.656250
vt 0.625000 0.828125
vt 0.609375 0.828125
vt 0.484375 0.656250
vt 0.625000 0.656250
vt 0.625000 0.828125
vt 0.484375 0.828125
vt 0.953125 0.734375
vt 0.968750 0.734375
vt 0.968750 0.593750
vt 0.953125 0.593750
vt 0.546875 0.656250
vt 0.562500 0.656250
vt 0.562500 0.671875
vt 0.546875 0.671875
vt 0.484375 0.656250
vt 0.500000 0.656250
vt 0.500000 0.828125
vt 0.484375 0.828125
vt 0.625000 0.656250
vt 0.625000 0.828125
vt 0.609375 0.656250
vt 0.609375 0.828125
vt 0.484375 0.843750
vt 0.609375 0.843750
vt 0.609375 1.000000
vt 0.484375 1.000000
vt 0.625000 0.734375
vt 0.640625 0.734375
vt 0.640625 0.593750
vt 0.625000 0.593750
vt 0.546875 0.656250
vt 0.562500 0.656250
vt 0.562500 0.671875
vt 0.546875 0.671875
vt 0.015625 0.796875
vt 0.328125 0.796875
vt 0.328125 0.953125
vt 0.015625 0.953125
vt 0.015625 0.625000
vt 0.031250 0.625000
vt 0.031250 0.796875
vt 0.015625 0.796875
vt 0.015625 0.625000
vt 0.328125 0.625000
vt 0.328125 0.796875
vt 0.015625 0.796875
vt 0.312500 0.625000
vt 0.328125 0.625000
vt 0.328125 0.796875
vt 0.312500 0.796875
vt 0.640625 0.718750
vt 0.953125 0.718750
vt 0.953125 0.734375
vt 0.640625 0.734375
vt 0.015625 0.625000
vt 0.328125 0.625000
vt 0.328125 0.640625
vt 0.015625 0.640625
vt 0.640625 0.984375
vt 0.656250 0.984375
vt 0.656250 1.000000
vt 0.640625 1.000000
vt 0.640625 0.984375
vt 0.656250 0.984375
vt 0.656250 1.000000
vt 0.640625 1.000000
vt 0.640625 0.984375
vt 0.656250 0.984375
vt 0.656250 1.000000
vt 0.640625 1.000000
vt 0.640625 0.984375
vt 0.656250 0.984375
vt 0.656250 1.000000
vt 0.640625 1.000000
vt 0.640625 0.718750
vt 0.953125 0.718750
vt 0.953125 0.468750
vt 0.640625 0.468750
vt 0.640625 0.750000
vt 0.953125 0.750000
vt 0.953125 1.000000
vt 0.640625 1.000000
vn -0.0000 -0.0000 -1.0000
vn -1.0000 0.0000 -0.0000
vn -0.0000 0.0000 1.0000
vn 1.0000 -0.0000 0.0000
vn -0.0000 -1.0000 0.0000
vn 0.0000 1.0000 -0.0000
usemtl m_31c269a7-ad9b-674b-456c-6f947e2f77c8
s 1
f 1/1/1 2/2/1 3/3/1 4/4/1
f 5/5/2 1/6/2 4/7/2 6/8/2
f 7/9/3 5/10/3 6/11/3 8/12/3
f 2/13/4 7/14/4 8/15/4 3/16/4
f 8/17/5 6/18/5 4/19/5 3/20/5
f 2/21/6 1/22/6 5/23/6 7/24/6
f 9/25/1 10/26/1 11/27/1 12/28/1
f 13/29/2 9/30/2 12/31/2 14/32/2
f 15/33/3 13/34/3 14/35/3 16/36/3
f 10/37/4 15/38/4 16/39/4 11/40/4
f 16/41/5 14/42/5 12/31/5 11/40/5
f 10/37/6 9/30/6 13/43/6 15/44/6
f 17/45/1 18/46/1 19/47/1 20/48/1
f 21/49/2 17/50/2 20/51/2 22/52/2
f 23/53/3 21/54/3 22/55/3 24/56/3
f 18/57/4 23/58/4 24/59/4 19/60/4
f 24/61/5 22/62/5 20/51/5 19/60/5
f 18/57/6 17/50/6 21/63/6 23/64/6
f 25/65/1 26/66/1 27/67/1 28/68/1
f 29/69/2 25/70/2 28/71/2 30/72/2
f 31/73/3 29/74/3 30/75/3 32/76/3
f 26/77/4 31/78/4 32/79/4 27/80/4
f 32/81/5 30/82/5 28/71/5 27/80/5
f 26/77/6 25/70/6 29/83/6 31/84/6
f 33/85/1 34/86/1 35/87/1 36/88/1
f 37/89/2 33/90/2 36/91/2 38/92/2
f 39/93/3 37/94/3 38/95/3 40/96/3
f 34/97/4 39/98/4 40/99/4 35/100/4
f 40/101/5 38/102/5 36/91/5 35/100/5
f 34/97/6 33/90/6 37/103/6 39/104/6
f 41/105/1 42/106/1 43/107/1 44/108/1
f 45/109/2 41/110/2 44/111/2 46/112/2
f 47/113/3 45/114/3 46/115/3 48/116/3
f 42/117/4 47/118/4 48/119/4 43/120/4
f 48/121/5 46/122/5 44/123/5 43/124/5
f 42/125/6 41/126/6 45/127/6 47/128/6
f 49/129/1 50/130/1 51/131/1 52/132/1
f 53/133/2 49/129/2 52/132/2 54/134/2
f 55/135/3 53/133/3 54/134/3 56/136/3
f 50/137/4 55/138/4 56/139/4 51/140/4
f 56/141/5 54/142/5 52/143/5 51/144/5
f 50/145/6 49/146/6 53/147/6 55/148/6
f 57/149/1 58/150/1 59/151/1 60/152/1
f 61/153/2 57/154/2 60/155/2 62/156/2
f 63/157/3 61/158/3 62/159/3 64/160/3
f 58/161/4 63/162/4 64/163/4 59/164/4
f 64/165/5 62/166/5 60/167/5 59/168/5
f 58/169/6 57/170/6 61/171/6 63/172/6
f 65/173/1 66/174/1 67/175/1 68/176/1
f 69/177/2 65/173/2 68/176/2 70/178/2
f 71/179/3 69/177/3 70/178/3 72/180/3
f 66/181/4 71/182/4 72/183/4 67/184/4
f 72/185/5 70/186/5 68/187/5 67/188/5
f 66/189/6 65/190/6 69/191/6 71/192/6
f 73/193/1 74/194/1 75/195/1 76/196/1
f 77/197/2 73/198/2 76/199/2 78/200/2
f 79/201/3 77/202/3 78/203/3 80/204/3
f 74/205/4 79/206/4 80/207/4 75/208/4
f 80/209/5 78/210/5 76/211/5 75/212/5
f 74/213/6 73/214/6 77/215/6 79/216/6
f 81/217/1 82/218/1 83/219/1 84/220/1
f 85/221/2 81/222/2 84/223/2 86/224/2
f 87/225/3 85/226/3 86/227/3 88/228/3
f 82/229/4 87/230/4 88/231/4 83/232/4
f 88/233/5 86/234/5 84/235/5 83/236/5
f 82/237/6 81/238/6 85/239/6 87/240/6
o headModel.012
v -4.178076 -5.808125 4.135372
v -4.178075 -6.318976 -4.220563
v -4.178075 -5.808122 -4.220563
v 4.178078 -5.808124 4.135372
v 4.178079 -5.808121 -4.220562
v 4.177859 -6.318974 -4.220562
v 4.178079 -8.913112 4.135372
v 4.178080 -8.913108 -4.220562
v -4.178076 -8.913113 4.135371
v -4.178075 -8.913110 -4.220563
v 1.578074 -7.352757 4.135372
v 1.578074 -6.307910 4.135372
v -1.578072 -6.307910 4.135372
v -1.578072 -7.352757 4.135371
v 2.088020 -8.644923 -4.246120
v 2.088020 -6.556891 -4.246120
v -2.088017 -6.556892 -4.246120
v -2.088016 -8.644924 -4.246120
v -4.177855 -6.318975 -6.495924
v 4.177859 -6.318974 -6.495923
v 4.177859 -5.808119 -6.495923
v -4.177855 -5.808121 -6.495924
v -1.578072 -6.307910 1.313880
v 1.578074 -6.307909 1.313880
v 1.578075 -7.352756 1.313880
v -1.578072 -7.352756 1.313880
v 3.669939 -5.808121 -3.712437
v 3.669939 -5.808124 3.627247
v -3.669937 -5.808125 3.627247
v -3.669936 -5.808122 -3.712438
vt 0.515910 0.929450
vt 0.523360 0.804980
vt 0.515910 0.804980
vt 0.734080 0.929450
vt 0.734080 0.804980
vt 0.726020 0.804980
vt 0.687270 0.929450
vt 0.687270 0.804980
vt 0.562760 0.929450
vt 0.562760 0.804980
vt 0.687270 0.976320
vt 0.648510 0.953050
vt 0.648510 0.968820
vt 0.562760 0.976320
vt 0.601470 0.968820
vt 0.601470 0.953050
vt 0.984010 0.124640
vt 0.984010 0.016010
vt 0.765980 0.016010
vt 0.765980 0.124640
vt 0.687270 0.765920
vt 0.562760 0.765920
vt 0.562760 0.711210
vt 0.562760 0.749760
vt 0.687270 0.749760
vt 0.687270 0.711210
vt 0.687270 0.711210
vt 0.687270 0.749760
vt 0.562760 0.749760
vt 0.562760 0.711210
vt 0.624630 0.959920
vt 0.624630 0.959920
vt 0.624630 0.959920
vt 0.624630 0.959920
vt 0.624630 0.959920
vt 0.624630 0.959920
vt 0.624630 0.959920
vt 0.624630 0.959920
vt 0.648510 0.968820
vt 0.648510 0.953050
vt 0.601470 0.953050
vt 0.601470 0.968820
vt 0.562760 0.703400
vt 0.687270 0.703400
vt 0.694950 0.711210
vt 0.694950 0.749760
vt 0.555040 0.711210
vt 0.555040 0.749760
vt 0.536810 0.777670
vt 0.536810 0.777670
vt 0.536810 0.777670
vt 0.536810 0.777670
vt 0.532910 0.960750
vt 0.532910 0.960750
vt 0.532910 0.960750
vt 0.532910 0.960750
vt 0.532910 0.960750
vt 0.532910 0.960750
vt 0.532910 0.960750
vt 0.532910 0.960750
vn 1.0000 0.0000 0.0000
vn -1.0000 0.0000 0.0000
vn -1.0000 0.0004 0.0000
vn -1.0000 0.0002 0.0000
vn -1.0000 -0.0001 -0.0000
vn 0.0000 0.0000 -1.0000
vn -0.0000 -0.0000 1.0000
vn -0.0000 1.0000 0.0000
vn 0.0000 -1.0000 -0.0000
vn -1.0000 0.0001 0.0000
vn 1.0000 0.0000 0.0001
usemtl [Imported]_mat1.002
s 1
f 89/241/7 90/242/7 91/243/7
f 92/244/8 93/245/9 94/246/10
f 95/247/8 92/244/8 94/246/10
f 95/247/8 94/246/10 96/248/11
f 97/249/7 98/250/7 90/242/7
f 97/249/7 90/242/7 89/241/7
f 92/251/12 95/247/12 99/252/12
f 92/251/12 99/252/12 100/253/12
f 89/254/12 101/255/12 102/256/12
f 89/254/12 102/256/12 97/249/12
f 103/257/13 104/258/13 105/259/13
f 103/257/13 105/259/13 106/260/13
f 95/247/14 96/248/14 98/250/14
f 95/247/14 98/250/14 97/249/14
f 98/250/13 96/248/13 94/261/13
f 98/250/13 94/261/13 90/262/13
f 107/263/14 90/264/14 94/265/14
f 107/263/14 94/265/14 108/266/14
f 109/267/15 93/268/15 91/269/15
f 109/267/15 91/269/15 110/270/15
f 99/252/12 95/247/12 97/249/12
f 99/252/12 97/249/12 102/256/12
f 89/254/12 92/251/12 100/253/12
f 89/254/12 100/253/12 101/255/12
f 111/271/14 101/272/14 100/273/14
f 111/271/14 100/273/14 112/274/14
f 112/274/7 100/273/7 99/275/7
f 112/274/7 99/275/7 113/276/7
f 113/276/15 99/275/15 102/277/15
f 113/276/15 102/277/15 114/278/15
f 114/278/8 102/277/8 101/272/8
f 114/278/8 101/272/8 111/271/8
f 112/279/12 113/280/12 114/281/12
f 112/279/12 114/281/12 111/282/12
f 110/283/13 107/263/13 108/266/13
f 110/283/13 108/266/13 109/284/13
f 109/285/16 108/266/8 94/265/10
f 109/285/16 94/265/10 93/286/9
f 90/264/7 107/263/17 110/287/17
f 90/264/7 110/287/17 91/288/7
f 115/289/15 116/290/15 117/291/15
f 115/289/15 117/291/15 118/292/15
f 89/293/15 91/294/15 118/295/15
f 89/293/15 118/295/15 117/296/15
f 92/297/15 89/293/15 117/296/15
f 92/297/15 117/296/15 116/298/15
f 115/299/15 93/300/15 92/297/15
f 115/299/15 92/297/15 116/298/15
f 115/299/15 118/295/15 91/294/15
f 115/299/15 91/294/15 93/300/15
