# Blender v2.80 (sub 75) OBJ File: ''
# www.blender.org
mtllib armor.mtl
o bodyModel
v 4.150000 12.203575 2.153126
v -4.150000 12.203575 2.153126
v -4.150000 -0.096425 2.153126
v 4.150000 -0.096425 2.153126
v 4.150000 12.203575 -2.153124
v 4.150000 -0.096425 -2.153124
v -4.150000 12.203575 -2.153124
v -4.150000 -0.096425 -2.153124
vt 0.250000 0.109375
vt 0.750000 0.109375
vt 0.750000 0.671875
vt 0.250000 0.671875
vt 0.750000 0.109375
vt 0.984375 0.109375
vt 0.984375 0.671875
vt 0.750000 0.671875
vt 0.250000 0.109375
vt 0.250000 0.671875
vt 0.015625 0.109375
vt 0.015625 0.671875
vt 0.750000 0.875000
vt 0.250000 0.875000
vt 0.000000 0.937500
vt 0.062500 0.937500
vt 0.062500 1.000000
vt 0.000000 1.000000
vn 0.0000 0.0000 1.0000
vn 1.0000 0.0000 0.0000
vn 0.0000 0.0000 -1.0000
vn -1.0000 0.0000 0.0000
vn 0.0000 -1.0000 0.0000
vn 0.0000 1.0000 0.0000
usemtl m_5d742965-4ac7-f4cb-d0eb-751e2999f397
s 1
f 1/1/1 2/2/1 3/3/1 4/4/1
f 5/5/2 1/6/2 4/7/2 6/8/2
f 7/9/3 5/5/3 6/8/3 8/10/3
f 2/11/4 7/9/4 8/10/4 3/12/4
f 8/10/5 6/8/5 4/13/5 3/14/5
f 2/15/6 1/16/6 5/17/6 7/18/6
