# Blender v2.80 (sub 75) OBJ File: ''
# www.blender.org
mtllib scopekordsx.mtl
o attachmentModel
v -2.880522 -0.842893 -0.156135
v -2.880522 -0.842893 0.156365
v -2.880522 -0.217893 0.156365
v -2.880522 -0.217893 -0.156135
v -2.255522 -0.842893 -0.156135
v -2.255522 -0.217893 -0.156135
v -2.255522 -0.842893 0.156365
v -2.255522 -0.217893 0.156365
v -3.193022 -0.530393 -0.156135
v -3.193022 -0.530393 0.156365
v -3.193022 -0.217893 0.156365
v -3.193022 -0.217893 -0.156135
v -2.880522 -0.530393 -0.156135
v -2.880522 -0.217893 -0.156135
v -2.880522 -0.530393 0.156365
v -2.880522 -0.217893 0.156365
v -3.505522 -0.217893 -0.156135
v -3.505522 -0.217893 0.156365
v -3.505522 0.094607 0.156365
v -3.505522 0.094607 -0.156135
v -1.630522 -0.217893 -0.156135
v -1.630522 0.094607 -0.156135
v -1.630522 -0.217893 0.156365
v -1.630522 0.094607 0.156365
v -4.443022 0.094607 -0.468635
v -4.443022 0.094607 0.468865
v -4.443022 1.032107 0.468865
v -4.443022 1.032107 -0.468635
v 2.119478 0.094606 -0.468635
v 2.119478 1.032106 -0.468635
v 2.119478 0.094606 0.468865
v 2.119478 1.032106 0.468865
v -4.443022 1.032107 -0.468635
v -4.443022 1.032107 0.468865
v -4.443022 1.344607 0.468865
v -4.443022 1.344607 -0.468635
v -2.568022 1.032107 -0.468635
v -2.568022 1.344607 -0.468635
v -2.568022 1.032107 0.468865
v -2.568022 1.344607 0.468865
v -3.505522 1.344607 -0.468635
v -3.505522 1.344607 0.468865
v -3.505522 1.657107 0.468865
v -3.505522 1.657107 -0.468635
v -2.568022 1.344607 -0.468635
v -2.568022 1.657107 -0.468635
v -2.568022 1.344607 0.468865
v -2.568022 1.657107 0.468865
v -0.693022 -0.217894 -0.468635
v -0.693022 -0.217894 0.468865
v -0.693022 0.094606 0.468865
v -0.693022 0.094606 -0.468635
v 0.244478 -0.217894 -0.468635
v 0.244478 0.094606 -0.468635
v 0.244478 -0.217894 0.468865
v 0.244478 0.094606 0.468865
v -0.693022 1.032106 -0.468635
v -0.693022 1.032106 0.468865
v -0.693022 1.344606 0.468865
v -0.693022 1.344606 -0.468635
v 0.244478 1.032106 -0.468635
v 0.244478 1.344606 -0.468635
v 0.244478 1.032106 0.468865
v 0.244478 1.344606 0.468865
v -8.193022 0.407108 -0.468636
v -8.193022 0.407108 0.468864
v -8.193022 1.032108 0.468864
v -8.193022 1.032108 -0.468636
v -5.380522 0.407107 -0.468635
v -5.380522 1.032107 -0.468635
v -5.380522 0.407107 0.468865
v -5.380522 1.032107 0.468865
v -8.193022 0.094608 -0.468636
v -8.193022 0.094608 0.468864
v -8.193022 0.407108 0.468864
v -8.193022 0.407108 -0.468636
v -5.380522 0.094607 -0.468635
v -5.380522 0.407107 -0.468635
v -5.380522 0.094607 0.468865
v -5.380522 0.407107 0.468865
v -8.505522 0.797733 -0.468636
v -8.505522 0.797733 0.468864
v -8.505522 1.032108 0.468864
v -8.505522 1.032108 -0.468636
v -8.193022 0.797733 -0.468636
v -8.193022 1.032108 -0.468636
v -8.193022 0.797733 0.468864
v -8.193022 1.032108 0.468864
v -5.380522 0.407107 -0.156135
v -5.380522 0.407107 0.156365
v -5.380522 1.032107 0.156365
v -5.380522 1.032107 -0.156135
v -4.443022 0.407107 -0.156135
v -4.443022 1.032107 -0.156135
v -4.443022 0.407107 0.156365
v -4.443022 1.032107 0.156365
v -8.505522 0.094608 -0.468636
v -8.505522 0.094608 0.468864
v -8.505522 0.328983 0.468864
v -8.505522 0.328983 -0.468636
v -8.193022 0.094608 -0.468636
v -8.193022 0.328983 -0.468636
v -8.193022 0.094608 0.468864
v -8.193022 0.328983 0.468864
v -8.505522 0.328983 -0.468636
v -8.505522 0.328983 -0.234261
v -8.505522 0.797733 -0.234261
v -8.505522 0.797733 -0.468636
v -8.193022 0.328983 -0.468636
v -8.193022 0.797733 -0.468636
v -8.193022 0.328983 -0.234261
v -8.193022 0.797733 -0.234261
v -8.505522 0.328983 0.234489
v -8.505522 0.328983 0.468864
v -8.505522 0.797733 0.468864
v -8.505522 0.797733 0.234489
v -8.193022 0.328983 0.234489
v -8.193022 0.797733 0.234489
v -8.193022 0.328983 0.468864
v -8.193022 0.797733 0.468864
vt 0.218750 0.562500
vt 0.250000 0.562500
vt 0.250000 0.593750
vt 0.218750 0.593750
vt 0.218750 0.562500
vt 0.250000 0.562500
vt 0.250000 0.593750
vt 0.218750 0.593750
vt 0.218750 0.562500
vt 0.250000 0.562500
vt 0.250000 0.593750
vt 0.218750 0.593750
vt 0.218750 0.562500
vt 0.250000 0.562500
vt 0.250000 0.593750
vt 0.218750 0.593750
vt 0.218750 0.562500
vt 0.250000 0.562500
vt 0.250000 0.593750
vt 0.218750 0.593750
vt 0.218750 0.562500
vt 0.250000 0.562500
vt 0.250000 0.593750
vt 0.218750 0.593750
vt 0.218750 0.562500
vt 0.250000 0.562500
vt 0.250000 0.593750
vt 0.218750 0.593750
vt 0.218750 0.562500
vt 0.250000 0.562500
vt 0.250000 0.593750
vt 0.218750 0.593750
vt 0.218750 0.562500
vt 0.250000 0.562500
vt 0.250000 0.593750
vt 0.218750 0.593750
vt 0.218750 0.562500
vt 0.250000 0.562500
vt 0.250000 0.593750
vt 0.218750 0.593750
vt 0.218750 0.562500
vt 0.250000 0.562500
vt 0.250000 0.593750
vt 0.218750 0.593750
vt 0.218750 0.562500
vt 0.250000 0.562500
vt 0.250000 0.593750
vt 0.218750 0.593750
vt 0.218750 0.562500
vt 0.250000 0.562500
vt 0.250000 0.593750
vt 0.218750 0.593750
vt 0.218750 0.562500
vt 0.250000 0.562500
vt 0.250000 0.593750
vt 0.218750 0.593750
vt 0.218750 0.562500
vt 0.250000 0.562500
vt 0.250000 0.593750
vt 0.218750 0.593750
vt 0.843750 0.593750
vt 0.937500 0.593750
vt 0.937500 0.687500
vt 0.843750 0.687500
vt 0.718750 0.625000
vt 0.062500 0.625000
vt 0.062500 0.718750
vt 0.718750 0.718750
vt 0.031250 0.781250
vt 0.125000 0.781250
vt 0.125000 0.875000
vt 0.031250 0.875000
vt 0.062500 0.625000
vt 0.718750 0.625000
vt 0.718750 0.718750
vt 0.062500 0.718750
vt 0.875000 0.125000
vt 0.968750 0.125000
vt 0.968750 0.781250
vt 0.875000 0.781250
vt 0.875000 0.125000
vt 0.968750 0.125000
vt 0.968750 0.781250
vt 0.875000 0.781250
vt 0.843750 0.687500
vt 0.937500 0.687500
vt 0.937500 0.718750
vt 0.843750 0.718750
vt 0.250000 0.718750
vt 0.062500 0.718750
vt 0.062500 0.750000
vt 0.250000 0.750000
vt 0.843750 0.687500
vt 0.937500 0.687500
vt 0.937500 0.718750
vt 0.843750 0.718750
vt 0.062500 0.718750
vt 0.250000 0.718750
vt 0.250000 0.750000
vt 0.062500 0.750000
vt 0.875000 0.437500
vt 0.968750 0.437500
vt 0.968750 0.625000
vt 0.875000 0.625000
vt 0.875000 0.437500
vt 0.968750 0.437500
vt 0.968750 0.625000
vt 0.875000 0.625000
vt 0.843750 0.750000
vt 0.937500 0.750000
vt 0.937500 0.781250
vt 0.843750 0.781250
vt 0.250000 0.750000
vt 0.156250 0.750000
vt 0.156250 0.781250
vt 0.250000 0.781250
vt 0.843750 0.750000
vt 0.937500 0.750000
vt 0.937500 0.781250
vt 0.843750 0.781250
vt 0.156250 0.750000
vt 0.250000 0.750000
vt 0.250000 0.781250
vt 0.156250 0.781250
vt 0.843750 0.687500
vt 0.937500 0.687500
vt 0.937500 0.781250
vt 0.843750 0.781250
vt 0.843750 0.687500
vt 0.937500 0.687500
vt 0.937500 0.781250
vt 0.843750 0.781250
vt 0.843750 0.562500
vt 0.937500 0.562500
vt 0.937500 0.593750
vt 0.843750 0.593750
vt 0.531250 0.593750
vt 0.437500 0.593750
vt 0.437500 0.625000
vt 0.531250 0.625000
vt 0.843750 0.562500
vt 0.937500 0.562500
vt 0.937500 0.593750
vt 0.843750 0.593750
vt 0.437500 0.593750
vt 0.531250 0.593750
vt 0.531250 0.625000
vt 0.437500 0.625000
vt 0.875000 0.687500
vt 0.968750 0.687500
vt 0.968750 0.781250
vt 0.875000 0.781250
vt 0.875000 0.687500
vt 0.968750 0.687500
vt 0.968750 0.781250
vt 0.875000 0.781250
vt 0.875000 0.687500
vt 0.968750 0.687500
vt 0.968750 0.718750
vt 0.875000 0.718750
vt 0.531250 0.718750
vt 0.437500 0.718750
vt 0.437500 0.750000
vt 0.531250 0.750000
vt 0.875000 0.687500
vt 0.968750 0.687500
vt 0.968750 0.718750
vt 0.875000 0.718750
vt 0.437500 0.718750
vt 0.531250 0.718750
vt 0.531250 0.750000
vt 0.437500 0.750000
vt 0.875000 0.687500
vt 0.968750 0.687500
vt 0.968750 0.781250
vt 0.875000 0.781250
vt 0.875000 0.687500
vt 0.968750 0.687500
vt 0.968750 0.781250
vt 0.875000 0.781250
vt 0.875000 0.687500
vt 0.968750 0.687500
vt 0.968750 0.750000
vt 0.875000 0.750000
vt 0.468750 0.812500
vt 0.187500 0.812500
vt 0.187500 0.875000
vt 0.468750 0.875000
vt 0.875000 0.687500
vt 0.968750 0.687500
vt 0.968750 0.750000
vt 0.875000 0.750000
vt 0.187500 0.812500
vt 0.468750 0.812500
vt 0.468750 0.875000
vt 0.187500 0.875000
vt 0.875000 0.468750
vt 0.968750 0.468750
vt 0.968750 0.750000
vt 0.875000 0.750000
vt 0.875000 0.468750
vt 0.968750 0.468750
vt 0.968750 0.750000
vt 0.875000 0.750000
vt 0.843750 0.531250
vt 0.937500 0.531250
vt 0.937500 0.562500
vt 0.843750 0.562500
vt 0.468750 0.781250
vt 0.187500 0.781250
vt 0.187500 0.812500
vt 0.468750 0.812500
vt 0.843750 0.531250
vt 0.937500 0.531250
vt 0.937500 0.562500
vt 0.843750 0.562500
vt 0.187500 0.781250
vt 0.468750 0.781250
vt 0.468750 0.812500
vt 0.187500 0.812500
vt 0.843750 0.250000
vt 0.937500 0.250000
vt 0.937500 0.531250
vt 0.843750 0.531250
vt 0.843750 0.250000
vt 0.937500 0.250000
vt 0.093750 0.781250
vt 0.125000 0.781250
vt 0.125000 0.812500
vt 0.093750 0.812500
vt 0.156250 0.812500
vt 0.187500 0.812500
vt 0.187500 0.843750
vt 0.156250 0.843750
vt 0.156250 0.812500
vt 0.187500 0.812500
vt 0.187500 0.843750
vt 0.156250 0.843750
vt 0.156250 0.812500
vt 0.187500 0.812500
vt 0.187500 0.843750
vt 0.156250 0.843750
vt 0.875000 0.750000
vt 0.968750 0.750000
vt 0.968750 0.781250
vt 0.875000 0.781250
vt 0.218750 0.968750
vt 0.250000 0.968750
vt 0.250000 1.000000
vt 0.218750 1.000000
vt 0.875000 0.687500
vt 0.906250 0.687500
vt 0.906250 0.750000
vt 0.875000 0.750000
vt 0.562500 0.812500
vt 0.468750 0.812500
vt 0.468750 0.875000
vt 0.562500 0.875000
vt 0.875000 0.687500
vt 0.906250 0.687500
vt 0.906250 0.750000
vt 0.875000 0.750000
vt 0.468750 0.812500
vt 0.562500 0.812500
vt 0.562500 0.875000
vt 0.468750 0.875000
vt 0.843750 0.687500
vt 0.875000 0.687500
vt 0.875000 0.781250
vt 0.843750 0.781250
vt 0.843750 0.687500
vt 0.875000 0.781250
vt 0.843750 0.781250
vt 0.093750 0.781250
vt 0.125000 0.781250
vt 0.125000 0.812500
vt 0.093750 0.812500
vt 0.156250 0.812500
vt 0.187500 0.812500
vt 0.187500 0.843750
vt 0.156250 0.843750
vt 0.156250 0.812500
vt 0.187500 0.812500
vt 0.187500 0.843750
vt 0.156250 0.843750
vt 0.156250 0.812500
vt 0.187500 0.812500
vt 0.187500 0.843750
vt 0.156250 0.843750
vt 0.218750 0.968750
vt 0.250000 0.968750
vt 0.250000 1.000000
vt 0.218750 1.000000
vt 0.875000 0.750000
vt 0.968750 0.750000
vt 0.968750 0.781250
vt 0.875000 0.781250
vt 0.093750 0.781250
vt 0.125000 0.781250
vt 0.125000 0.812500
vt 0.093750 0.812500
vt 0.156250 0.812500
vt 0.187500 0.812500
vt 0.187500 0.843750
vt 0.156250 0.843750
vt 0.156250 0.812500
vt 0.187500 0.812500
vt 0.187500 0.843750
vt 0.156250 0.843750
vt 0.218750 0.968750
vt 0.250000 0.968750
vt 0.250000 1.000000
vt 0.218750 1.000000
vt 0.093750 0.781250
vt 0.125000 0.781250
vt 0.125000 0.812500
vt 0.093750 0.812500
vt 0.093750 0.781250
vt 0.125000 0.781250
vt 0.125000 0.812500
vt 0.093750 0.812500
vt 0.093750 0.781250
vt 0.125000 0.781250
vt 0.125000 0.812500
vt 0.093750 0.812500
vt 0.218750 0.968750
vt 0.250000 0.968750
vt 0.250000 1.000000
vt 0.218750 1.000000
vt 0.156250 0.812500
vt 0.187500 0.812500
vt 0.187500 0.843750
vt 0.156250 0.843750
vt 0.156250 0.812500
vt 0.187500 0.812500
vt 0.187500 0.843750
vt 0.156250 0.843750
vt 0.093750 0.781250
vt 0.125000 0.781250
vt 0.125000 0.812500
vt 0.093750 0.812500
vt 0.093750 0.781250
vt 0.125000 0.781250
vt 0.125000 0.812500
vt 0.093750 0.812500
vn -1.0000 0.0000 0.0000
vn 0.0000 0.0000 -1.0000
vn 1.0000 0.0000 0.0000
vn -0.0000 0.0000 1.0000
vn 0.0000 1.0000 0.0000
vn 0.0000 -1.0000 0.0000
usemtl m_1582dcd5-ad89-8f25-c0ce-69f5f109e6cd
s 1
f 1/1/1 2/2/1 3/3/1 4/4/1
f 5/5/2 1/6/2 4/7/2 6/8/2
f 7/9/3 5/10/3 6/11/3 8/12/3
f 2/13/4 7/14/4 8/15/4 3/16/4
f 8/17/5 6/18/5 4/7/5 3/16/5
f 2/13/6 1/6/6 5/19/6 7/20/6
f 9/21/1 10/22/1 11/23/1 12/24/1
f 13/25/2 9/26/2 12/27/2 14/28/2
f 15/29/3 13/30/3 14/31/3 16/32/3
f 10/33/4 15/34/4 16/35/4 11/36/4
f 16/37/5 14/38/5 12/27/5 11/36/5
f 10/33/6 9/26/6 13/39/6 15/40/6
f 17/41/1 18/42/1 19/43/1 20/44/1
f 21/45/2 17/46/2 20/47/2 22/48/2
f 23/49/3 21/50/3 22/51/3 24/52/3
f 18/53/4 23/54/4 24/55/4 19/56/4
f 24/57/5 22/58/5 20/47/5 19/56/5
f 18/53/6 17/46/6 21/59/6 23/60/6
f 25/61/1 26/62/1 27/63/1 28/64/1
f 29/65/2 25/66/2 28/67/2 30/68/2
f 31/69/3 29/70/3 30/71/3 32/72/3
f 26/73/4 31/74/4 32/75/4 27/76/4
f 32/77/5 30/78/5 28/79/5 27/80/5
f 26/81/6 25/82/6 29/83/6 31/84/6
f 33/85/1 34/86/1 35/87/1 36/88/1
f 37/89/2 33/90/2 36/91/2 38/92/2
f 39/93/3 37/94/3 38/95/3 40/96/3
f 34/97/4 39/98/4 40/99/4 35/100/4
f 40/101/5 38/102/5 36/103/5 35/104/5
f 34/105/6 33/106/6 37/107/6 39/108/6
f 41/109/1 42/110/1 43/111/1 44/112/1
f 45/113/2 41/114/2 44/115/2 46/116/2
f 47/117/3 45/118/3 46/119/3 48/120/3
f 42/121/4 47/122/4 48/123/4 43/124/4
f 48/125/5 46/126/5 44/127/5 43/128/5
f 42/129/6 41/130/6 45/131/6 47/132/6
f 49/133/1 50/134/1 51/135/1 52/136/1
f 53/137/2 49/138/2 52/139/2 54/140/2
f 55/141/3 53/142/3 54/143/3 56/144/3
f 50/145/4 55/146/4 56/147/4 51/148/4
f 56/149/5 54/150/5 52/151/5 51/152/5
f 50/153/6 49/154/6 53/155/6 55/156/6
f 57/157/1 58/158/1 59/159/1 60/160/1
f 61/161/2 57/162/2 60/163/2 62/164/2
f 63/165/3 61/166/3 62/167/3 64/168/3
f 58/169/4 63/170/4 64/171/4 59/172/4
f 64/173/5 62/174/5 60/175/5 59/176/5
f 58/177/6 57/178/6 61/179/6 63/180/6
f 65/181/1 66/182/1 67/183/1 68/184/1
f 69/185/2 65/186/2 68/187/2 70/188/2
f 71/189/3 69/190/3 70/191/3 72/192/3
f 66/193/4 71/194/4 72/195/4 67/196/4
f 72/197/5 70/198/5 68/199/5 67/200/5
f 66/201/6 65/202/6 69/203/6 71/204/6
f 73/205/1 74/206/1 75/207/1 76/208/1
f 77/209/2 73/210/2 76/211/2 78/212/2
f 79/213/3 77/214/3 78/215/3 80/216/3
f 74/217/4 79/218/4 80/219/4 75/220/4
f 80/221/5 78/222/5 76/223/5 75/224/5
f 74/225/6 73/226/6 77/214/6 79/213/6
f 81/227/1 82/228/1 83/229/1 84/230/1
f 85/231/2 81/232/2 84/233/2 86/234/2
f 87/235/3 85/236/3 86/237/3 88/238/3
f 82/239/4 87/240/4 88/241/4 83/242/4
f 88/243/5 86/244/5 84/245/5 83/246/5
f 82/247/6 81/248/6 85/249/6 87/250/6
f 89/251/1 90/252/1 91/253/1 92/254/1
f 93/255/2 89/256/2 92/257/2 94/258/2
f 95/259/3 93/260/3 94/261/3 96/262/3
f 90/263/4 95/264/4 96/265/4 91/266/4
f 96/267/5 94/268/5 92/269/5 91/270/5
f 90/271/6 89/251/6 93/272/6 95/273/6
f 97/274/1 98/275/1 99/276/1 100/277/1
f 101/278/2 97/279/2 100/280/2 102/281/2
f 103/282/3 101/283/3 102/284/3 104/285/3
f 98/286/4 103/287/4 104/288/4 99/289/4
f 104/290/5 102/291/5 100/292/5 99/293/5
f 98/294/6 97/295/6 101/296/6 103/297/6
f 105/298/1 106/299/1 107/300/1 108/301/1
f 109/302/2 105/303/2 108/304/2 110/305/2
f 111/306/3 109/307/3 110/308/3 112/309/3
f 106/310/4 111/311/4 112/312/4 107/313/4
f 112/314/5 110/315/5 108/316/5 107/317/5
f 106/318/6 105/319/6 109/320/6 111/321/6
f 113/322/1 114/323/1 115/324/1 116/325/1
f 117/326/2 113/327/2 116/328/2 118/329/2
f 119/330/3 117/331/3 118/332/3 120/333/3
f 114/334/4 119/335/4 120/336/4 115/337/4
f 120/338/5 118/339/5 116/340/5 115/341/5
f 114/342/6 113/343/6 117/344/6 119/345/6
o scopeModel
v -8.362974 0.939580 -0.000147
v -8.362974 0.680663 -0.356515
v -8.362974 0.261727 -0.220394
v -8.362974 0.190163 -0.000146
v -8.362974 0.261727 0.220102
v -8.362974 0.449081 0.356222
v -8.362974 0.680663 0.356222
v -8.362974 0.868017 0.220102
v -8.362974 0.868017 -0.220394
v -8.362974 0.449081 -0.356515
vt 0.500000 0.000000
vt 0.024472 0.345491
vt 0.206107 0.904509
vt 0.500000 1.000000
vt 0.793892 0.904508
vt 0.975528 0.654508
vt 0.975528 0.345491
vt 0.793892 0.095491
vt 0.206107 0.095492
vt 0.024472 0.654509
vn -1.0000 0.0000 0.0000
usemtl Material.036
s off
f 121/346/7 122/347/7 123/348/7
f 123/348/7 124/349/7 125/350/7
f 125/350/7 126/351/7 127/352/7
f 127/352/7 128/353/7 121/346/7
f 121/346/7 129/354/7 122/347/7
f 122/347/7 130/355/7 123/348/7
f 123/348/7 125/350/7 127/352/7
f 127/352/7 121/346/7 123/348/7
o overlayModel
v -8.387744 0.939580 -0.000147
v -8.387744 0.680663 -0.356515
v -8.387744 0.261727 -0.220394
v -8.387744 0.190163 -0.000146
v -8.387744 0.261727 0.220102
v -8.387744 0.449081 0.356222
v -8.387744 0.680663 0.356222
v -8.387744 0.868017 0.220102
v -8.387744 0.868017 -0.220394
v -8.387744 0.449081 -0.356515
vt 0.500000 0.000000
vt 0.975528 0.345491
vt 0.793893 0.904509
vt 0.500000 1.000000
vt 0.206108 0.904508
vt 0.024472 0.654508
vt 0.024472 0.345491
vt 0.206108 0.095491
vt 0.793893 0.095492
vt 0.975528 0.654509
vn -1.0000 -0.0000 0.0000
usemtl Material.048
s off
f 131/356/8 132/357/8 133/358/8
f 133/358/8 134/359/8 135/360/8
f 135/360/8 136/361/8 137/362/8
f 137/362/8 138/363/8 131/356/8
f 131/356/8 139/364/8 132/357/8
f 132/357/8 140/365/8 133/358/8
f 133/358/8 135/360/8 137/362/8
f 137/362/8 131/356/8 133/358/8
