# Blender v2.80 (sub 75) OBJ File: ''
# www.blender.org
mtllib scopebarretx.mtl
o attachmentModel
v -4.630554 -0.767857 -0.156258
v -4.630554 -0.767857 0.156242
v -4.630554 -0.455357 0.156242
v -4.630554 -0.455357 -0.156258
v 0.369446 -0.767858 -0.156258
v 0.369446 -0.455358 -0.156258
v 0.369446 -0.767858 0.156242
v 0.369446 -0.455358 0.156242
v -4.318054 -0.455357 -0.156258
v -4.318054 -0.455357 0.156242
v -4.318054 -0.142857 0.156242
v -4.318054 -0.142857 -0.156258
v -3.380554 -0.455357 -0.156258
v -3.380554 -0.142857 -0.156258
v -3.380554 -0.455357 0.156242
v -3.380554 -0.142857 0.156242
v -2.755554 -0.455358 -0.156258
v -2.755554 -0.455358 0.156242
v -2.755554 -0.142858 0.156242
v -2.755554 -0.142858 -0.156258
v -1.818054 -0.455358 -0.156258
v -1.818054 -0.142858 -0.156258
v -1.818054 -0.455358 0.156242
v -1.818054 -0.142858 0.156242
v -5.880554 -0.142857 -0.781258
v -5.880554 -0.142857 0.781242
v -5.880554 1.107143 0.781242
v -5.880554 1.107143 -0.781258
v -0.568054 -0.142858 -0.781258
v -0.568053 1.107142 -0.781258
v -0.568054 -0.142858 0.781242
v -0.568054 1.107142 0.781242
v -0.568054 -0.455358 -0.781258
v -0.568054 -0.455358 0.781242
v -0.568054 1.107142 0.781242
v -0.568053 1.107142 -0.781258
v 1.306946 -0.455358 -0.781258
v 1.306947 1.107142 -0.781258
v 1.306946 -0.455358 0.781242
v 1.306946 1.107142 0.781242
v -0.568053 1.107142 -0.781258
v -0.568054 1.107142 0.781242
v -0.568053 1.419642 0.781242
v -0.568053 1.419642 -0.781258
v 1.306947 1.107142 -0.781258
v 1.306947 1.419642 -0.781258
v 1.306946 1.107142 0.781242
v 1.306947 1.419642 0.781242
v -4.005554 1.107143 -0.781258
v -4.005554 1.107143 0.781242
v -4.005554 1.419643 0.781242
v -4.005554 1.419643 -0.781258
v -2.443054 1.107142 -0.781258
v -2.443054 1.419642 -0.781258
v -2.443054 1.107142 0.781242
v -2.443054 1.419642 0.781242
v -3.693054 1.419643 -0.468758
v -3.693054 1.419643 0.468742
v -3.693054 1.732143 0.468742
v -3.693054 1.732143 -0.468758
v -2.755554 1.419642 -0.468758
v -2.755554 1.732142 -0.468758
v -2.755554 1.419642 0.468742
v -2.755554 1.732142 0.468742
v -6.193054 -0.455357 0.468742
v -6.193054 -0.455357 0.781242
v -6.193054 1.107143 0.781242
v -6.193054 1.107143 0.468742
v -5.880554 -0.455357 0.468742
v -5.880554 1.107143 0.468742
v -5.880554 -0.455357 0.781242
v -5.880554 1.107143 0.781242
v -6.193054 -0.455357 -0.781258
v -6.193054 -0.455357 -0.468758
v -6.193054 1.107143 -0.468758
v -6.193054 1.107143 -0.781258
v -5.880554 -0.455357 -0.781258
v -5.880554 1.107143 -0.781258
v -5.880554 -0.455357 -0.468758
v -5.880554 1.107143 -0.468758
v -6.193054 0.794643 -0.468758
v -6.193054 0.794643 0.468742
v -6.193054 1.107143 0.468742
v -6.193054 1.107143 -0.468758
v -5.880554 0.794643 -0.468758
v -5.880554 1.107143 -0.468758
v -5.880554 0.794643 0.468742
v -5.880554 1.107143 0.468742
v -6.193054 -0.455357 -0.468758
v -6.193054 -0.455357 0.468742
v -6.193054 -0.142857 0.468742
v -6.193054 -0.142857 -0.468758
v -5.880554 -0.455357 -0.468758
v -5.880554 -0.142857 -0.468758
v -5.880554 -0.455357 0.468742
v -5.880554 -0.142857 0.468742
v -5.880554 -0.455357 -0.781258
v -5.880554 -0.455357 0.781242
v -5.880554 -0.142857 0.781242
v -5.880554 -0.142857 -0.781258
v -4.943054 -0.455357 -0.781258
v -4.943054 -0.142857 -0.781258
v -4.943054 -0.455357 0.781242
v -4.943054 -0.142857 0.781242
v -6.193054 -0.142857 -0.468758
v -6.193054 -0.142857 0.468742
v -6.193054 0.091518 0.468742
v -6.193054 0.091518 -0.468758
v -5.880554 -0.142857 -0.468758
v -5.880554 0.091518 -0.468758
v -5.880554 -0.142857 0.468742
v -5.880554 0.091518 0.468742
v -6.193054 0.560268 -0.468758
v -6.193054 0.560268 0.468742
v -6.193054 0.794643 0.468742
v -6.193054 0.794643 -0.468758
v -5.880554 0.560268 -0.468758
v -5.880554 0.794643 -0.468758
v -5.880554 0.560268 0.468742
v -5.880554 0.794643 0.468742
v -6.193054 0.091518 -0.468758
v -6.193054 0.091518 -0.234383
v -6.193054 0.560268 -0.234383
v -6.193054 0.560268 -0.468758
v -5.880554 0.091518 -0.468758
v -5.880554 0.560268 -0.468758
v -5.880554 0.091518 -0.234383
v -5.880554 0.560268 -0.234383
v -6.193054 0.091518 0.234367
v -6.193054 0.091518 0.468742
v -6.193054 0.560268 0.468742
v -6.193054 0.560268 0.234367
v -5.880554 0.091518 0.234367
v -5.880554 0.560268 0.234367
v -5.880554 0.091518 0.468742
v -5.880554 0.560268 0.468742
vt 0.406250 0.500000
vt 0.437500 0.500000
vt 0.437500 0.531250
vt 0.406250 0.531250
vt 0.875000 0.468750
vt 0.375000 0.468750
vt 0.375000 0.500000
vt 0.875000 0.500000
vt 0.406250 0.500000
vt 0.437500 0.500000
vt 0.437500 0.531250
vt 0.406250 0.531250
vt 0.375000 0.468750
vt 0.875000 0.468750
vt 0.875000 0.500000
vt 0.375000 0.500000
vt 0.437500 0.500000
vt 0.406250 0.500000
vt 0.406250 0.500000
vt 0.437500 0.500000
vt 0.437500 0.531250
vt 0.406250 0.531250
vt 0.406250 0.500000
vt 0.437500 0.500000
vt 0.437500 0.531250
vt 0.406250 0.531250
vt 0.500000 0.500000
vt 0.500000 0.531250
vt 0.468750 0.500000
vt 0.468750 0.531250
vt 0.406250 0.500000
vt 0.500000 0.500000
vt 0.500000 0.531250
vt 0.406250 0.531250
vt 0.406250 0.531250
vt 0.437500 0.531250
vt 0.437500 0.500000
vt 0.406250 0.500000
vt 0.437500 0.500000
vt 0.437500 0.531250
vt 0.406250 0.531250
vt 0.562500 0.500000
vt 0.593750 0.500000
vt 0.593750 0.531250
vt 0.562500 0.531250
vt 0.656250 0.500000
vt 0.656250 0.531250
vt 0.625000 0.500000
vt 0.625000 0.531250
vt 0.562500 0.500000
vt 0.656250 0.500000
vt 0.656250 0.531250
vt 0.562500 0.531250
vt 0.562500 0.531250
vt 0.593750 0.531250
vt 0.593750 0.500000
vt 0.562500 0.500000
vt 0.593750 0.500000
vt 0.593750 0.531250
vt 0.562500 0.531250
vt 0.406250 0.500000
vt 0.437500 0.500000
vt 0.437500 0.531250
vt 0.406250 0.531250
vt 0.781250 0.531250
vt 0.250000 0.531250
vt 0.250000 0.656250
vt 0.781250 0.656250
vt 0.468750 0.500000
vt 0.500000 0.500000
vt 0.500000 0.531250
vt 0.468750 0.531250
vt 0.250000 0.531250
vt 0.781250 0.531250
vt 0.781250 0.656250
vt 0.250000 0.656250
vt 0.031250 0.562500
vt 0.187500 0.562500
vt 0.187500 0.031250
vt 0.031250 0.031250
vt 0.031250 0.031250
vt 0.187500 0.031250
vt 0.187500 0.562500
vt 0.031250 0.562500
vt 0.781250 0.500000
vt 0.812500 0.500000
vt 0.812500 0.531250
vt 0.781250 0.531250
vt 0.968750 0.500000
vt 0.781250 0.656250
vt 0.968750 0.656250
vt 0.000000 0.750000
vt 0.156250 0.750000
vt 0.156250 0.906250
vt 0.000000 0.906250
vt 0.781250 0.500000
vt 0.968750 0.500000
vt 0.968750 0.656250
vt 0.781250 0.656250
vt 0.031250 0.031250
vt 0.187500 0.031250
vt 0.187500 0.562500
vt 0.031250 0.562500
vt 0.812500 0.500000
vt 0.812500 0.531250
vt 0.781250 0.531250
vt 0.781250 0.500000
vt 0.812500 0.500000
vt 0.812500 0.531250
vt 0.781250 0.531250
vt 0.968750 0.656250
vt 0.781250 0.656250
vt 0.781250 0.687500
vt 0.968750 0.687500
vt 0.781250 0.500000
vt 0.812500 0.500000
vt 0.812500 0.531250
vt 0.781250 0.531250
vt 0.781250 0.656250
vt 0.968750 0.656250
vt 0.968750 0.687500
vt 0.781250 0.687500
vt 0.031250 0.750000
vt 0.187500 0.750000
vt 0.187500 0.562500
vt 0.031250 0.562500
vt 0.781250 0.500000
vt 0.812500 0.500000
vt 0.812500 0.531250
vt 0.781250 0.531250
vt 0.000000 0.843750
vt 0.053125 0.843750
vt 0.053125 0.875000
vt 0.000000 0.875000
vt 0.593750 0.656250
vt 0.437500 0.656250
vt 0.437500 0.687500
vt 0.593750 0.687500
vt 0.103125 0.843750
vt 0.156250 0.843750
vt 0.156250 0.875000
vt 0.103125 0.875000
vt 0.437500 0.656250
vt 0.593750 0.656250
vt 0.593750 0.687500
vt 0.437500 0.687500
vt 0.156250 0.750000
vt 0.187500 0.750000
vt 0.187500 0.718750
vt 0.156250 0.718750
vt 0.781250 0.500000
vt 0.812500 0.500000
vt 0.812500 0.531250
vt 0.781250 0.531250
vt 0.500000 0.687500
vt 0.531250 0.687500
vt 0.531250 0.718750
vt 0.500000 0.718750
vt 0.562500 0.687500
vt 0.468750 0.687500
vt 0.468750 0.718750
vt 0.562500 0.718750
vt 0.500000 0.687500
vt 0.531250 0.687500
vt 0.531250 0.718750
vt 0.500000 0.718750
vt 0.468750 0.687500
vt 0.562500 0.687500
vt 0.562500 0.718750
vt 0.468750 0.718750
vt 0.500000 0.687500
vt 0.531250 0.687500
vt 0.531250 0.718750
vt 0.500000 0.718750
vt 0.500000 0.687500
vt 0.531250 0.687500
vt 0.531250 0.718750
vt 0.500000 0.718750
vt 0.125000 0.750000
vt 0.156250 0.750000
vt 0.156250 0.906250
vt 0.125000 0.906250
vt 0.250000 0.625000
vt 0.218750 0.625000
vt 0.218750 0.656250
vt 0.250000 0.656250
vt 0.218750 0.625000
vt 0.218750 0.656250
vt 0.218750 0.500000
vt 0.250000 0.500000
vt 0.250000 0.656250
vt 0.218750 0.656250
vt 0.250000 0.625000
vt 0.218750 0.625000
vt 0.218750 0.625000
vt 0.250000 0.625000
vt 0.250000 0.656250
vt 0.218750 0.656250
vt 0.000000 0.750000
vt 0.031250 0.750000
vt 0.031250 0.906250
vt 0.000000 0.906250
vt 0.250000 0.500000
vt 0.218750 0.500000
vt 0.218750 0.656250
vt 0.250000 0.656250
vt 0.218750 0.625000
vt 0.250000 0.625000
vt 0.218750 0.656250
vt 0.218750 0.625000
vt 0.250000 0.625000
vt 0.250000 0.656250
vt 0.218750 0.656250
vt 0.250000 0.625000
vt 0.218750 0.625000
vt 0.250000 0.625000
vt 0.250000 0.656250
vt 0.218750 0.656250
vt 0.031250 0.875000
vt 0.125000 0.875000
vt 0.125000 0.906250
vt 0.031250 0.906250
vt 0.250000 0.625000
vt 0.218750 0.625000
vt 0.218750 0.656250
vt 0.250000 0.656250
vt 0.218750 0.625000
vt 0.218750 0.656250
vt 0.218750 0.625000
vt 0.250000 0.625000
vt 0.250000 0.656250
vt 0.218750 0.656250
vt 0.250000 0.625000
vt 0.218750 0.625000
vt 0.250000 0.625000
vt 0.250000 0.656250
vt 0.218750 0.656250
vt 0.031250 0.750000
vt 0.125000 0.750000
vt 0.125000 0.781250
vt 0.031250 0.781250
vt 0.250000 0.625000
vt 0.218750 0.625000
vt 0.218750 0.656250
vt 0.250000 0.656250
vt 0.218750 0.625000
vt 0.218750 0.656250
vt 0.218750 0.625000
vt 0.250000 0.625000
vt 0.250000 0.656250
vt 0.218750 0.656250
vt 0.250000 0.625000
vt 0.218750 0.625000
vt 0.250000 0.625000
vt 0.250000 0.656250
vt 0.218750 0.656250
vt 0.031250 0.750000
vt 0.125000 0.750000
vt 0.125000 0.781250
vt 0.031250 0.781250
vt 0.250000 0.500000
vt 0.343750 0.500000
vt 0.343750 0.531250
vt 0.250000 0.531250
vt 0.312500 0.500000
vt 0.343750 0.500000
vt 0.343750 0.531250
vt 0.312500 0.531250
vt 0.250000 0.500000
vt 0.343750 0.500000
vt 0.343750 0.531250
vt 0.250000 0.531250
vt 0.343750 0.500000
vt 0.312500 0.500000
vt 0.031250 0.437500
vt 0.187500 0.437500
vt 0.187500 0.562500
vt 0.031250 0.562500
vt 0.031250 0.781250
vt 0.125000 0.781250
vt 0.125000 0.812500
vt 0.031250 0.812500
vt 0.250000 0.625000
vt 0.218750 0.625000
vt 0.218750 0.656250
vt 0.250000 0.656250
vt 0.218750 0.625000
vt 0.218750 0.656250
vt 0.218750 0.625000
vt 0.250000 0.625000
vt 0.250000 0.656250
vt 0.218750 0.656250
vt 0.218750 1.000000
vt 0.250000 1.000000
vt 0.250000 0.968750
vt 0.218750 0.968750
vt 0.250000 0.625000
vt 0.250000 0.656250
vt 0.218750 0.656250
vt 0.031250 0.843750
vt 0.125000 0.843750
vt 0.125000 0.875000
vt 0.031250 0.875000
vt 0.250000 0.625000
vt 0.218750 0.625000
vt 0.218750 0.656250
vt 0.250000 0.656250
vt 0.218750 0.625000
vt 0.218750 0.656250
vt 0.218750 0.625000
vt 0.250000 0.625000
vt 0.250000 0.656250
vt 0.218750 0.656250
vt 0.250000 0.625000
vt 0.218750 0.625000
vt 0.218750 0.968750
vt 0.250000 0.968750
vt 0.250000 1.000000
vt 0.218750 1.000000
vt 0.031250 0.812500
vt 0.062500 0.812500
vt 0.062500 0.843750
vt 0.031250 0.843750
vt 0.250000 0.625000
vt 0.218750 0.625000
vt 0.218750 0.656250
vt 0.250000 0.656250
vt 0.218750 0.625000
vt 0.218750 0.656250
vt 0.218750 0.968750
vt 0.250000 0.968750
vt 0.250000 1.000000
vt 0.218750 1.000000
vt 0.250000 0.625000
vt 0.218750 0.625000
vt 0.218750 0.625000
vt 0.250000 0.625000
vt 0.250000 0.656250
vt 0.218750 0.656250
vt 0.093750 0.812500
vt 0.125000 0.812500
vt 0.125000 0.843750
vt 0.093750 0.843750
vt 0.250000 0.968750
vt 0.218750 0.968750
vt 0.218750 1.000000
vt 0.250000 1.000000
vt 0.218750 0.625000
vt 0.250000 0.625000
vt 0.250000 0.656250
vt 0.218750 0.656250
vt 0.218750 0.625000
vt 0.250000 0.625000
vt 0.250000 0.656250
vt 0.218750 0.656250
vt 0.250000 0.625000
vt 0.218750 0.625000
vt 0.250000 0.625000
vt 0.250000 0.656250
vt 0.218750 0.656250
vn -1.0000 0.0000 -0.0000
vn 0.0000 -0.0000 -1.0000
vn 1.0000 0.0000 0.0000
vn -0.0000 0.0000 1.0000
vn 0.0000 1.0000 0.0000
vn -0.0000 -1.0000 0.0000
usemtl m_ff9ed2dc-1e71-a9bf-e1e0-57240650bac8
s 1
f 1/1/1 2/2/1 3/3/1 4/4/1
f 5/5/2 1/6/2 4/7/2 6/8/2
f 7/9/3 5/10/3 6/11/3 8/12/3
f 2/13/4 7/14/4 8/15/4 3/16/4
f 8/12/5 6/11/5 4/17/5 3/18/5
f 2/19/6 1/20/6 5/21/6 7/22/6
f 9/23/1 10/24/1 11/25/1 12/26/1
f 13/27/2 9/23/2 12/26/2 14/28/2
f 15/29/3 13/27/3 14/28/3 16/30/3
f 10/31/4 15/32/4 16/33/4 11/34/4
f 16/35/5 14/36/5 12/37/5 11/38/5
f 10/31/6 9/39/6 13/40/6 15/41/6
f 17/42/1 18/43/1 19/44/1 20/45/1
f 21/46/2 17/42/2 20/45/2 22/47/2
f 23/48/3 21/46/3 22/47/3 24/49/3
f 18/50/4 23/51/4 24/52/4 19/53/4
f 24/54/5 22/55/5 20/56/5 19/57/5
f 18/50/6 17/58/6 21/59/6 23/60/6
f 25/61/1 26/62/1 27/63/1 28/64/1
f 29/65/2 25/66/2 28/67/2 30/68/2
f 31/69/3 29/70/3 30/71/3 32/72/3
f 26/73/4 31/74/4 32/75/4 27/76/4
f 32/77/5 30/78/5 28/79/5 27/80/5
f 26/81/6 25/82/6 29/83/6 31/84/6
f 33/85/1 34/86/1 35/87/1 36/88/1
f 37/89/2 33/85/2 36/90/2 38/91/2
f 39/92/3 37/93/3 38/94/3 40/95/3
f 34/96/4 39/97/4 40/98/4 35/99/4
f 40/100/5 38/101/5 36/102/5 35/103/5
f 34/96/6 33/104/6 37/105/6 39/106/6
f 41/107/1 42/108/1 43/109/1 44/110/1
f 45/111/2 41/112/2 44/113/2 46/114/2
f 47/115/3 45/116/3 46/117/3 48/118/3
f 42/119/4 47/120/4 48/121/4 43/122/4
f 48/123/5 46/124/5 44/125/5 43/126/5
f 42/127/6 41/128/6 45/129/6 47/130/6
f 49/131/1 50/132/1 51/133/1 52/134/1
f 53/135/2 49/136/2 52/137/2 54/138/2
f 55/139/3 53/140/3 54/141/3 56/142/3
f 50/143/4 55/144/4 56/145/4 51/146/4
f 56/147/5 54/148/5 52/149/5 51/150/5
f 50/151/6 49/152/6 53/153/6 55/154/6
f 57/155/1 58/156/1 59/157/1 60/158/1
f 61/159/2 57/160/2 60/161/2 62/162/2
f 63/163/3 61/164/3 62/165/3 64/166/3
f 58/167/4 63/168/4 64/169/4 59/170/4
f 64/171/5 62/172/5 60/173/5 59/174/5
f 58/175/6 57/176/6 61/177/6 63/178/6
f 65/179/1 66/180/1 67/181/1 68/182/1
f 69/183/2 65/184/2 68/185/2 70/186/2
f 71/187/3 69/183/3 70/186/3 72/188/3
f 66/189/4 71/190/4 72/191/4 67/192/4
f 72/188/5 70/186/5 68/193/5 67/194/5
f 66/195/6 65/196/6 69/197/6 71/198/6
f 73/199/1 74/200/1 75/201/1 76/202/1
f 77/203/2 73/204/2 76/205/2 78/206/2
f 79/207/3 77/208/3 78/206/3 80/209/3
f 74/210/4 79/211/4 80/212/4 75/213/4
f 80/209/5 78/206/5 76/214/5 75/215/5
f 74/210/6 73/216/6 77/217/6 79/218/6
f 81/219/1 82/220/1 83/221/1 84/222/1
f 85/223/2 81/224/2 84/225/2 86/226/2
f 87/227/3 85/223/3 86/226/3 88/228/3
f 82/229/4 87/230/4 88/231/4 83/232/4
f 88/228/5 86/226/5 84/233/5 83/234/5
f 82/229/6 81/235/6 85/236/6 87/237/6
f 89/238/1 90/239/1 91/240/1 92/241/1
f 93/242/2 89/243/2 92/244/2 94/245/2
f 95/246/3 93/242/3 94/245/3 96/247/3
f 90/248/4 95/249/4 96/250/4 91/251/4
f 96/247/5 94/245/5 92/252/5 91/253/5
f 90/248/6 89/254/6 93/255/6 95/256/6
f 97/257/1 98/258/1 99/259/1 100/260/1
f 101/261/2 97/262/2 100/263/2 102/264/2
f 103/265/3 101/266/3 102/267/3 104/268/3
f 98/269/4 103/270/4 104/271/4 99/272/4
f 104/268/5 102/267/5 100/273/5 99/274/5
f 98/275/6 97/276/6 101/277/6 103/278/6
f 105/279/1 106/280/1 107/281/1 108/282/1
f 109/283/2 105/284/2 108/285/2 110/286/2
f 111/287/3 109/283/3 110/286/3 112/288/3
f 106/289/4 111/290/4 112/291/4 107/292/4
f 112/293/5 110/294/5 108/295/5 107/296/5
f 106/289/6 105/297/6 109/298/6 111/299/6
f 113/300/1 114/301/1 115/302/1 116/303/1
f 117/304/2 113/305/2 116/306/2 118/307/2
f 119/308/3 117/304/3 118/307/3 120/309/3
f 114/310/4 119/311/4 120/312/4 115/313/4
f 120/309/5 118/307/5 116/314/5 115/315/5
f 114/316/6 113/317/6 117/318/6 119/319/6
f 121/320/1 122/321/1 123/322/1 124/323/1
f 125/324/2 121/325/2 124/326/2 126/327/2
f 127/328/3 125/324/3 126/327/3 128/329/3
f 122/330/4 127/331/4 128/332/4 123/333/4
f 128/329/5 126/327/5 124/334/5 123/335/5
f 122/336/6 121/337/6 125/338/6 127/339/6
f 129/340/1 130/341/1 131/342/1 132/343/1
f 133/344/2 129/345/2 132/346/2 134/347/2
f 135/348/3 133/349/3 134/350/3 136/351/3
f 130/352/4 135/353/4 136/354/4 131/355/4
f 136/351/5 134/350/5 132/356/5 131/357/5
f 130/352/6 129/358/6 133/359/6 135/360/6
o scopeModel
v -6.128469 0.685947 -0.000055
v -6.128469 0.436879 -0.342868
v -6.128469 0.033879 -0.211925
v -6.128469 -0.034962 -0.000055
v -6.128469 0.033879 0.211815
v -6.128469 0.214106 0.342757
v -6.128469 0.436879 0.342757
v -6.128469 0.617106 0.211815
v -6.128469 0.617106 -0.211925
v -6.128469 0.214106 -0.342868
vt 0.500000 0.000000
vt 0.024472 0.345491
vt 0.206107 0.904509
vt 0.500000 1.000000
vt 0.793892 0.904508
vt 0.975528 0.654508
vt 0.975528 0.345491
vt 0.793892 0.095491
vt 0.206107 0.095492
vt 0.024472 0.654509
vn -1.0000 0.0000 0.0000
usemtl Material.036
s off
f 137/361/7 138/362/7 139/363/7
f 139/363/7 140/364/7 141/365/7
f 141/365/7 142/366/7 143/367/7
f 143/367/7 144/368/7 137/361/7
f 137/361/7 145/369/7 138/362/7
f 138/362/7 146/370/7 139/363/7
f 139/363/7 141/365/7 143/367/7
f 143/367/7 137/361/7 139/363/7
o overlayModel
v -6.152296 0.685947 -0.000055
v -6.152296 0.436879 -0.342868
v -6.152296 0.033879 -0.211925
v -6.152296 -0.034962 -0.000055
v -6.152296 0.033879 0.211815
v -6.152296 0.214106 0.342757
v -6.152296 0.436879 0.342757
v -6.152296 0.617106 0.211815
v -6.152296 0.617106 -0.211925
v -6.152296 0.214106 -0.342868
vt 0.500000 0.000000
vt 0.975528 0.345491
vt 0.793893 0.904509
vt 0.500000 1.000000
vt 0.206108 0.904508
vt 0.024472 0.654508
vt 0.024472 0.345491
vt 0.206108 0.095491
vt 0.793893 0.095492
vt 0.975528 0.654509
vn -1.0000 -0.0000 0.0000
usemtl Material.048
s off
f 147/371/8 148/372/8 149/373/8
f 149/373/8 150/374/8 151/375/8
f 151/375/8 152/376/8 153/377/8
f 153/377/8 154/378/8 147/371/8
f 147/371/8 155/379/8 148/372/8
f 148/372/8 156/380/8 149/373/8
f 149/373/8 151/375/8 153/377/8
f 153/377/8 147/371/8 149/373/8
