# Blender v2.80 (sub 75) OBJ File: ''
# www.blender.org
mtllib scopevsk94x.mtl
o attachmentModel
v -4.782973 -0.554883 -0.156257
v -4.782973 -0.554883 0.156243
v -4.782973 -0.242383 0.156243
v -4.782973 -0.242383 -0.156257
v -2.595473 -0.554883 -0.156256
v -2.595473 -0.242383 -0.156256
v -2.595474 -0.554883 0.156244
v -2.595473 -0.242383 0.156244
v -2.907973 -0.242383 -0.156256
v -2.907973 -0.242383 0.156244
v -2.907973 0.070117 0.156244
v -2.907973 0.070117 -0.156256
v -2.282973 -0.242383 -0.156256
v -2.282973 0.070117 -0.156256
v -2.282973 -0.242383 0.156244
v -2.282973 0.070117 0.156244
v -5.095473 0.070117 -0.468757
v -5.095473 0.070117 0.468743
v -5.095473 1.007617 0.468743
v -5.095473 1.007617 -0.468757
v -0.407973 0.070116 -0.468756
v -0.407973 1.007616 -0.468756
v -0.407973 0.070116 0.468744
v -0.407973 1.007616 0.468744
v -5.095473 -0.242383 -0.468757
v -5.095473 -0.242383 0.468743
v -5.095473 0.070117 0.468743
v -5.095473 0.070117 -0.468757
v -4.157973 -0.242383 -0.468756
v -4.157973 0.070117 -0.468756
v -4.157973 -0.242383 0.468744
v -4.157973 0.070117 0.468744
v -6.345473 -0.242383 -0.468757
v -6.345473 -0.242383 0.468743
v -6.345473 0.695117 0.468743
v -6.345473 0.695117 -0.468757
v -5.095473 -0.242383 -0.468757
v -5.095473 0.695117 -0.468757
v -5.095473 -0.242383 0.468743
v -5.095473 0.695117 0.468743
v -6.657973 -0.242383 -0.468757
v -6.657973 -0.242383 0.468743
v -6.657973 -0.008008 0.468743
v -6.657973 -0.008008 -0.468757
v -6.345473 -0.242383 -0.468757
v -6.345473 -0.008008 -0.468757
v -6.345473 -0.242383 0.468743
v -6.345473 -0.008008 0.468743
v -6.657973 0.460742 -0.468757
v -6.657973 0.460742 0.468743
v -6.657973 0.695117 0.468743
v -6.657973 0.695117 -0.468757
v -6.345473 0.460742 -0.468757
v -6.345473 0.695117 -0.468757
v -6.345473 0.460742 0.468743
v -6.345473 0.695117 0.468743
v -6.657973 -0.008008 -0.468757
v -6.657973 -0.008008 -0.234382
v -6.657973 0.460742 -0.234382
v -6.657973 0.460742 -0.468757
v -6.345473 -0.008008 -0.468757
v -6.345473 0.460742 -0.468757
v -6.345473 -0.008008 -0.234382
v -6.345473 0.460742 -0.234382
v -6.657973 -0.008008 0.234368
v -6.657973 -0.008008 0.468743
v -6.657973 0.460742 0.468743
v -6.657973 0.460742 0.234368
v -6.345473 -0.008008 0.234368
v -6.345473 0.460742 0.234368
v -6.345473 -0.008008 0.468743
v -6.345473 0.460742 0.468743
vt 0.843750 0.812500
vt 0.875000 0.812500
vt 0.875000 0.843750
vt 0.843750 0.843750
vt 0.437500 0.687500
vt 0.218750 0.687500
vt 0.218750 0.718750
vt 0.437500 0.718750
vt 0.843750 0.812500
vt 0.875000 0.812500
vt 0.875000 0.843750
vt 0.843750 0.843750
vt 0.218750 0.687500
vt 0.437500 0.687500
vt 0.437500 0.718750
vt 0.218750 0.718750
vt 0.937500 0.406250
vt 0.968750 0.406250
vt 0.968750 0.625000
vt 0.937500 0.625000
vt 0.937500 0.406250
vt 0.968750 0.406250
vt 0.968750 0.625000
vt 0.937500 0.625000
vt 0.843750 0.812500
vt 0.875000 0.812500
vt 0.875000 0.843750
vt 0.843750 0.843750
vt 0.468750 0.718750
vt 0.406250 0.718750
vt 0.406250 0.750000
vt 0.468750 0.750000
vt 0.843750 0.812500
vt 0.875000 0.812500
vt 0.875000 0.843750
vt 0.843750 0.843750
vt 0.406250 0.718750
vt 0.468750 0.718750
vt 0.468750 0.750000
vt 0.406250 0.750000
vt 0.937500 0.562500
vt 0.968750 0.562500
vt 0.968750 0.625000
vt 0.937500 0.625000
vt 0.937500 0.562500
vt 0.968750 0.562500
vt 0.968750 0.625000
vt 0.937500 0.625000
vt 0.843750 0.500000
vt 0.937500 0.500000
vt 0.937500 0.593750
vt 0.843750 0.593750
vt 0.656250 0.750000
vt 0.187500 0.750000
vt 0.187500 0.843750
vt 0.656250 0.843750
vt 0.375000 0.531250
vt 0.468750 0.531250
vt 0.468750 0.625000
vt 0.375000 0.625000
vt 0.187500 0.750000
vt 0.656250 0.750000
vt 0.656250 0.843750
vt 0.187500 0.843750
vt 0.843750 0.218750
vt 0.937500 0.218750
vt 0.937500 0.687500
vt 0.843750 0.687500
vt 0.843750 0.218750
vt 0.937500 0.218750
vt 0.937500 0.687500
vt 0.843750 0.687500
vt 0.843750 0.781250
vt 0.937500 0.781250
vt 0.937500 0.812500
vt 0.843750 0.812500
vt 0.468750 0.718750
vt 0.406250 0.718750
vt 0.406250 0.750000
vt 0.468750 0.750000
vt 0.843750 0.781250
vt 0.937500 0.781250
vt 0.937500 0.812500
vt 0.843750 0.812500
vt 0.406250 0.718750
vt 0.468750 0.718750
vt 0.468750 0.750000
vt 0.406250 0.750000
vt 0.875000 0.531250
vt 0.968750 0.531250
vt 0.968750 0.625000
vt 0.875000 0.625000
vt 0.875000 0.531250
vt 0.968750 0.531250
vt 0.968750 0.625000
vt 0.875000 0.625000
vt 0.843750 0.781250
vt 0.875000 0.781250
vt 0.875000 0.812500
vt 0.843750 0.812500
vt 0.062500 0.718750
vt 0.187500 0.718750
vt 0.187500 0.812500
vt 0.062500 0.812500
vt 0.843750 0.781250
vt 0.937500 0.781250
vt 0.937500 0.812500
vt 0.843750 0.812500
vt 0.062500 0.718750
vt 0.187500 0.718750
vt 0.187500 0.812500
vt 0.062500 0.812500
vt 0.875000 0.500000
vt 0.968750 0.500000
vt 0.968750 0.625000
vt 0.875000 0.625000
vt 0.875000 0.500000
vt 0.968750 0.500000
vt 0.968750 0.625000
vt 0.875000 0.625000
vt 0.031250 0.781250
vt 0.062500 0.781250
vt 0.062500 0.812500
vt 0.031250 0.812500
vt 0.031250 0.781250
vt 0.062500 0.781250
vt 0.062500 0.812500
vt 0.031250 0.812500
vt 0.031250 0.781250
vt 0.062500 0.781250
vt 0.062500 0.812500
vt 0.031250 0.812500
vt 0.031250 0.781250
vt 0.062500 0.781250
vt 0.062500 0.812500
vt 0.031250 0.812500
vt 0.250000 0.968750
vt 0.281250 0.968750
vt 0.281250 1.000000
vt 0.250000 1.000000
vt 0.812500 0.500000
vt 0.906250 0.500000
vt 0.906250 0.531250
vt 0.812500 0.531250
vt 0.031250 0.781250
vt 0.062500 0.781250
vt 0.062500 0.812500
vt 0.031250 0.812500
vt 0.031250 0.781250
vt 0.062500 0.781250
vt 0.062500 0.812500
vt 0.031250 0.812500
vt 0.031250 0.781250
vt 0.062500 0.781250
vt 0.062500 0.812500
vt 0.031250 0.812500
vt 0.031250 0.781250
vt 0.062500 0.781250
vt 0.062500 0.812500
vt 0.031250 0.812500
vt 0.906250 0.593750
vt 1.000000 0.593750
vt 1.000000 0.625000
vt 0.906250 0.625000
vt 0.250000 0.968750
vt 0.281250 0.968750
vt 0.281250 1.000000
vt 0.250000 1.000000
vt 0.031250 0.781250
vt 0.062500 0.781250
vt 0.062500 0.812500
vt 0.031250 0.812500
vt 0.031250 0.781250
vt 0.062500 0.781250
vt 0.062500 0.812500
vt 0.031250 0.812500
vt 0.031250 0.781250
vt 0.062500 0.781250
vt 0.062500 0.812500
vt 0.031250 0.812500
vt 0.250000 0.968750
vt 0.281250 0.968750
vt 0.281250 1.000000
vt 0.250000 1.000000
vt 0.031250 0.781250
vt 0.062500 0.781250
vt 0.031250 0.812500
vt 0.031250 0.781250
vt 0.062500 0.812500
vt 0.031250 0.812500
vt 0.031250 0.781250
vt 0.062500 0.781250
vt 0.062500 0.812500
vt 0.031250 0.812500
vt 0.250000 0.968750
vt 0.281250 0.968750
vt 0.281250 1.000000
vt 0.250000 1.000000
vt 0.031250 0.781250
vt 0.062500 0.781250
vt 0.062500 0.812500
vt 0.031250 0.812500
vt 0.031250 0.781250
vt 0.062500 0.781250
vt 0.062500 0.812500
vt 0.031250 0.812500
vt 0.031250 0.781250
vt 0.062500 0.781250
vt 0.062500 0.812500
vt 0.062500 0.781250
vt 0.062500 0.812500
vt 0.031250 0.812500
vn -1.0000 0.0000 0.0000
vn 0.0000 0.0000 -1.0000
vn 1.0000 0.0000 0.0000
vn -0.0000 0.0000 1.0000
vn 0.0000 1.0000 0.0000
vn -0.0000 -1.0000 -0.0000
usemtl m_d2a4d6b9-25d4-fc58-94c0-b419d30214ac
s 1
f 1/1/1 2/2/1 3/3/1 4/4/1
f 5/5/2 1/6/2 4/7/2 6/8/2
f 7/9/3 5/10/3 6/11/3 8/12/3
f 2/13/4 7/14/4 8/15/4 3/16/4
f 8/17/5 6/18/5 4/19/5 3/20/5
f 2/21/6 1/22/6 5/23/6 7/24/6
f 9/25/1 10/26/1 11/27/1 12/28/1
f 13/29/2 9/30/2 12/31/2 14/32/2
f 15/33/3 13/34/3 14/35/3 16/36/3
f 10/37/4 15/38/4 16/39/4 11/40/4
f 16/41/5 14/42/5 12/43/5 11/44/5
f 10/45/6 9/46/6 13/47/6 15/48/6
f 17/49/1 18/50/1 19/51/1 20/52/1
f 21/53/2 17/54/2 20/55/2 22/56/2
f 23/57/3 21/58/3 22/59/3 24/60/3
f 18/61/4 23/62/4 24/63/4 19/64/4
f 24/65/5 22/66/5 20/67/5 19/68/5
f 18/69/6 17/70/6 21/71/6 23/72/6
f 25/73/1 26/74/1 27/75/1 28/76/1
f 29/77/2 25/78/2 28/79/2 30/80/2
f 31/81/3 29/82/3 30/83/3 32/84/3
f 26/85/4 31/86/4 32/87/4 27/88/4
f 32/89/5 30/90/5 28/91/5 27/92/5
f 26/93/6 25/94/6 29/95/6 31/96/6
f 33/97/1 34/98/1 35/99/1 36/100/1
f 37/101/2 33/102/2 36/103/2 38/104/2
f 39/105/3 37/106/3 38/107/3 40/108/3
f 34/109/4 39/110/4 40/111/4 35/112/4
f 40/113/5 38/114/5 36/115/5 35/116/5
f 34/117/6 33/118/6 37/119/6 39/120/6
f 41/121/1 42/122/1 43/123/1 44/124/1
f 45/125/2 41/126/2 44/127/2 46/128/2
f 47/129/3 45/130/3 46/131/3 48/132/3
f 42/133/4 47/134/4 48/135/4 43/136/4
f 48/137/5 46/138/5 44/139/5 43/140/5
f 42/141/6 41/142/6 45/143/6 47/144/6
f 49/145/1 50/146/1 51/147/1 52/148/1
f 53/149/2 49/150/2 52/151/2 54/152/2
f 55/153/3 53/154/3 54/155/3 56/156/3
f 50/157/4 55/158/4 56/159/4 51/160/4
f 56/161/5 54/162/5 52/163/5 51/164/5
f 50/165/6 49/166/6 53/167/6 55/168/6
f 57/169/1 58/170/1 59/171/1 60/172/1
f 61/173/2 57/174/2 60/175/2 62/176/2
f 63/177/3 61/178/3 62/179/3 64/180/3
f 58/181/4 63/182/4 64/183/4 59/184/4
f 64/185/5 62/186/5 60/175/5 59/187/5
f 58/188/6 57/174/6 61/189/6 63/190/6
f 65/191/1 66/192/1 67/193/1 68/194/1
f 69/195/2 65/196/2 68/197/2 70/198/2
f 71/199/3 69/200/3 70/201/3 72/202/3
f 66/203/4 71/204/4 72/205/4 67/206/4
f 72/207/5 70/208/5 68/209/5 67/206/5
f 66/203/6 65/210/6 69/211/6 71/212/6
o scopeModel
v -6.600401 0.578076 0.000220
v -6.600401 0.335037 -0.334295
v -6.600401 -0.058209 -0.206522
v -6.600401 -0.125384 0.000220
v -6.600401 -0.058209 0.206962
v -6.600401 0.117656 0.334735
v -6.600401 0.335037 0.334735
v -6.600401 0.510902 0.206962
v -6.600401 0.510902 -0.206521
v -6.600401 0.117656 -0.334295
vt 0.500000 0.000000
vt 0.024472 0.345491
vt 0.206107 0.904509
vt 0.500000 1.000000
vt 0.793892 0.904508
vt 0.975528 0.654508
vt 0.975528 0.345491
vt 0.793892 0.095491
vt 0.206107 0.095492
vt 0.024472 0.654509
vn -1.0000 -0.0000 0.0000
usemtl Material.036
s off
f 73/213/7 74/214/7 75/215/7
f 75/215/7 76/216/7 77/217/7
f 77/217/7 78/218/7 79/219/7
f 79/219/7 80/220/7 73/213/7
f 73/213/7 81/221/7 74/214/7
f 74/214/7 82/222/7 75/215/7
f 75/215/7 77/217/7 79/219/7
f 79/219/7 73/213/7 75/215/7
o overlayModel
v -6.623652 0.578076 0.000220
v -6.623652 0.335037 -0.334295
v -6.623652 -0.058209 -0.206522
v -6.623652 -0.125384 0.000220
v -6.623652 -0.058209 0.206962
v -6.623652 0.117656 0.334735
v -6.623652 0.335037 0.334735
v -6.623652 0.510902 0.206962
v -6.623652 0.510902 -0.206521
v -6.623652 0.117656 -0.334295
vt 0.500000 0.000000
vt 0.975528 0.345491
vt 0.793893 0.904509
vt 0.500000 1.000000
vt 0.206108 0.904508
vt 0.024472 0.654508
vt 0.024472 0.345491
vt 0.206108 0.095491
vt 0.793893 0.095492
vt 0.975528 0.654509
vn -1.0000 0.0000 0.0000
usemtl Material.048
s off
f 83/223/8 84/224/8 85/225/8
f 85/225/8 86/226/8 87/227/8
f 87/227/8 88/228/8 89/229/8
f 89/229/8 90/230/8 83/223/8
f 83/223/8 91/231/8 84/224/8
f 84/224/8 92/232/8 85/225/8
f 85/225/8 87/227/8 89/229/8
f 89/229/8 83/223/8 85/225/8
