# Blender v2.80 (sub 75) OBJ File: ''
# www.blender.org
mtllib scopem700x__2.mtl
o attachmentModel
v -3.534492 -0.487707 -0.156229
v -3.534492 -0.487707 0.156271
v -3.534492 -0.175208 0.156271
v -3.534492 -0.175208 -0.156229
v -2.909492 -0.487708 -0.156229
v -2.909492 -0.175208 -0.156229
v -2.909492 -0.487708 0.156271
v -2.909492 -0.175208 0.156271
v -1.971992 -0.487708 -0.156229
v -1.971992 -0.487708 0.156271
v -1.971992 -0.175208 0.156271
v -1.971992 -0.175208 -0.156229
v -1.346992 -0.487708 -0.156229
v -1.346992 -0.175208 -0.156229
v -1.346992 -0.487708 0.156271
v -1.346992 -0.175208 0.156271
v -5.096992 -0.175207 -0.468729
v -5.096992 -0.175207 0.468771
v -5.096992 0.449793 0.468771
v -5.096992 0.449793 -0.468729
v 2.403008 -0.175209 -0.468729
v 2.403008 0.449791 -0.468729
v 2.403008 -0.175209 0.468771
v 2.403008 0.449791 0.468771
v -2.909492 0.449792 -0.156229
v -2.909492 0.449792 0.156271
v -2.909492 0.762292 0.156271
v -2.909492 0.762292 -0.156229
v -1.971992 0.449792 -0.156229
v -1.971992 0.762292 -0.156229
v -1.971992 0.449792 0.156271
v -1.971992 0.762292 0.156271
v -5.096992 0.449793 -0.468729
v -5.096992 0.449793 0.468771
v -5.096992 0.762293 0.468771
v -5.096992 0.762293 -0.468729
v -3.846992 0.449793 -0.468729
v -3.846992 0.762293 -0.468729
v -3.846992 0.449793 0.468771
v -3.846992 0.762293 0.468771
v -0.721992 0.449792 -0.468729
v -0.721992 0.449792 0.468771
v -0.721992 0.762292 0.468771
v -0.721992 0.762292 -0.468729
v 2.403008 0.449791 -0.468729
v 2.403008 0.762291 -0.468729
v 2.403008 0.449791 0.468771
v 2.403008 0.762291 0.468771
v -5.409492 -0.175207 0.234396
v -5.409492 -0.175207 0.468771
v -5.409492 0.762293 0.468771
v -5.409492 0.762293 0.234396
v -5.096992 -0.175207 0.234396
v -5.096992 0.762293 0.234396
v -5.096992 -0.175207 0.468771
v -5.096992 0.762293 0.468771
v -5.409492 -0.175207 -0.468729
v -5.409492 -0.175207 -0.234354
v -5.409492 0.762293 -0.234354
v -5.409492 0.762293 -0.468729
v -5.096992 -0.175207 -0.468729
v -5.096992 0.762293 -0.468729
v -5.096992 -0.175207 -0.234354
v -5.096992 0.762293 -0.234354
v -5.409492 0.527918 -0.234354
v -5.409492 0.527918 0.234396
v -5.409492 0.762293 0.234396
v -5.409492 0.762293 -0.234354
v -5.096992 0.527918 -0.234354
v -5.096992 0.762293 -0.234354
v -5.096992 0.527918 0.234396
v -5.096992 0.762293 0.234396
v -5.409492 -0.175207 -0.234354
v -5.409492 -0.175207 0.234396
v -5.409492 0.059168 0.234396
v -5.409492 0.059168 -0.234354
v -5.096992 -0.175207 -0.234354
v -5.096992 0.059168 -0.234354
v -5.096992 -0.175207 0.234396
v -5.096992 0.059168 0.234396
vt 0.218750 0.781250
vt 0.250000 0.781250
vt 0.250000 0.812500
vt 0.218750 0.812500
vt 0.281250 0.781250
vt 0.281250 0.812500
vt 0.250000 0.781250
vt 0.250000 0.812500
vt 0.218750 0.781250
vt 0.281250 0.781250
vt 0.281250 0.812500
vt 0.218750 0.812500
vt 0.218750 0.812500
vt 0.250000 0.812500
vt 0.250000 0.781250
vt 0.218750 0.781250
vt 0.250000 0.781250
vt 0.250000 0.812500
vt 0.218750 0.812500
vt 0.375000 0.781250
vt 0.406250 0.781250
vt 0.406250 0.812500
vt 0.375000 0.812500
vt 0.437500 0.781250
vt 0.437500 0.812500
vt 0.406250 0.781250
vt 0.406250 0.812500
vt 0.375000 0.781250
vt 0.437500 0.781250
vt 0.437500 0.812500
vt 0.375000 0.812500
vt 0.375000 0.812500
vt 0.406250 0.812500
vt 0.406250 0.781250
vt 0.375000 0.781250
vt 0.406250 0.781250
vt 0.406250 0.812500
vt 0.375000 0.812500
vt 0.062500 0.812500
vt 0.093750 0.812500
vt 0.093750 0.843750
vt 0.062500 0.843750
vt 0.812500 0.812500
vt 0.062500 0.875000
vt 0.812500 0.875000
vt 0.031250 0.687500
vt 0.125000 0.687500
vt 0.125000 0.750000
vt 0.031250 0.750000
vt 0.062500 0.812500
vt 0.812500 0.812500
vt 0.812500 0.875000
vt 0.062500 0.875000
vt 0.718750 0.812500
vt 0.812500 0.812500
vt 0.812500 0.062500
vt 0.718750 0.062500
vt 0.718750 0.062500
vt 0.812500 0.062500
vt 0.718750 0.812500
vt 0.281250 0.875000
vt 0.312500 0.875000
vt 0.312500 0.906250
vt 0.281250 0.906250
vt 0.375000 0.875000
vt 0.375000 0.906250
vt 0.343750 0.875000
vt 0.343750 0.906250
vt 0.281250 0.875000
vt 0.375000 0.875000
vt 0.375000 0.906250
vt 0.281250 0.906250
vt 0.312500 0.906250
vt 0.343750 0.906250
vt 0.343750 0.875000
vt 0.312500 0.875000
vt 0.343750 0.875000
vt 0.343750 0.906250
vt 0.312500 0.906250
vt 0.062500 0.875000
vt 0.093750 0.875000
vt 0.093750 0.906250
vt 0.062500 0.906250
vt 0.187500 0.875000
vt 0.187500 0.906250
vt 0.156250 0.875000
vt 0.156250 0.906250
vt 0.062500 0.875000
vt 0.187500 0.875000
vt 0.187500 0.906250
vt 0.062500 0.906250
vt 0.718750 0.187500
vt 0.812500 0.187500
vt 0.812500 0.062500
vt 0.718750 0.062500
vt 0.718750 0.062500
vt 0.812500 0.062500
vt 0.812500 0.187500
vt 0.718750 0.187500
vt 0.718750 0.500000
vt 0.812500 0.500000
vt 0.812500 0.531250
vt 0.718750 0.531250
vt 0.812500 0.875000
vt 0.500000 0.875000
vt 0.500000 0.906250
vt 0.812500 0.906250
vt 0.031250 0.750000
vt 0.125000 0.750000
vt 0.125000 0.781250
vt 0.031250 0.781250
vt 0.500000 0.875000
vt 0.812500 0.875000
vt 0.812500 0.906250
vt 0.500000 0.906250
vt 0.718750 0.812500
vt 0.812500 0.812500
vt 0.812500 0.500000
vt 0.718750 0.500000
vt 0.718750 0.500000
vt 0.812500 0.500000
vt 0.812500 0.812500
vt 0.718750 0.812500
vt 0.031250 0.843750
vt 0.062500 0.843750
vt 0.062500 0.875000
vt 0.031250 0.875000
vt 0.250000 0.968750
vt 0.218750 0.968750
vt 0.218750 1.000000
vt 0.250000 1.000000
vt 0.031250 0.843750
vt 0.062500 0.843750
vt 0.062500 0.875000
vt 0.031250 0.875000
vt 0.031250 0.812500
vt 0.062500 0.812500
vt 0.062500 0.906250
vt 0.031250 0.906250
vt 0.062500 0.843750
vt 0.031250 0.843750
vt 0.031250 0.843750
vt 0.062500 0.843750
vt 0.062500 0.875000
vt 0.031250 0.875000
vt 0.031250 0.843750
vt 0.062500 0.843750
vt 0.062500 0.875000
vt 0.031250 0.875000
vt 0.062500 0.812500
vt 0.031250 0.812500
vt 0.031250 0.906250
vt 0.062500 0.906250
vt 0.031250 0.843750
vt 0.062500 0.843750
vt 0.062500 0.875000
vt 0.031250 0.875000
vt 0.218750 0.968750
vt 0.250000 0.968750
vt 0.250000 1.000000
vt 0.218750 1.000000
vt 0.062500 0.843750
vt 0.031250 0.843750
vt 0.031250 0.843750
vt 0.062500 0.843750
vt 0.062500 0.875000
vt 0.031250 0.875000
vt 0.031250 0.843750
vt 0.062500 0.843750
vt 0.062500 0.875000
vt 0.031250 0.875000
vt 0.062500 0.843750
vt 0.062500 0.875000
vt 0.031250 0.843750
vt 0.031250 0.875000
vt 0.031250 0.843750
vt 0.062500 0.843750
vt 0.062500 0.875000
vt 0.031250 0.875000
vt 0.062500 0.843750
vt 0.031250 0.843750
vt 0.218750 0.968750
vt 0.250000 0.968750
vt 0.250000 1.000000
vt 0.218750 1.000000
vt 0.031250 0.843750
vt 0.062500 0.843750
vt 0.062500 0.875000
vt 0.031250 0.875000
vt 0.062500 0.843750
vt 0.062500 0.875000
vt 0.031250 0.843750
vt 0.031250 0.875000
vt 0.031250 0.843750
vt 0.062500 0.843750
vt 0.062500 0.875000
vt 0.031250 0.875000
vt 0.218750 1.000000
vt 0.250000 1.000000
vt 0.250000 0.968750
vt 0.218750 0.968750
vt 0.062500 0.843750
vt 0.062500 0.875000
vt 0.031250 0.875000
vn -1.0000 0.0000 0.0000
vn 0.0000 0.0000 -1.0000
vn 1.0000 0.0000 0.0000
vn -0.0000 0.0000 1.0000
vn 0.0000 1.0000 0.0000
vn -0.0000 -1.0000 0.0000
usemtl m_0ddcce73-7f4f-14e7-0dbd-6240b91a625b
s 1
f 1/1/1 2/2/1 3/3/1 4/4/1
f 5/5/2 1/1/2 4/4/2 6/6/2
f 7/7/3 5/5/3 6/6/3 8/8/3
f 2/9/4 7/10/4 8/11/4 3/12/4
f 8/13/5 6/14/5 4/15/5 3/16/5
f 2/9/6 1/17/6 5/18/6 7/19/6
f 9/20/1 10/21/1 11/22/1 12/23/1
f 13/24/2 9/20/2 12/23/2 14/25/2
f 15/26/3 13/24/3 14/25/3 16/27/3
f 10/28/4 15/29/4 16/30/4 11/31/4
f 16/32/5 14/33/5 12/34/5 11/35/5
f 10/28/6 9/36/6 13/37/6 15/38/6
f 17/39/1 18/40/1 19/41/1 20/42/1
f 21/43/2 17/39/2 20/44/2 22/45/2
f 23/46/3 21/47/3 22/48/3 24/49/3
f 18/50/4 23/51/4 24/52/4 19/53/4
f 24/54/5 22/55/5 20/56/5 19/57/5
f 18/58/6 17/59/6 21/43/6 23/60/6
f 25/61/1 26/62/1 27/63/1 28/64/1
f 29/65/2 25/61/2 28/64/2 30/66/2
f 31/67/3 29/65/3 30/66/3 32/68/3
f 26/69/4 31/70/4 32/71/4 27/72/4
f 32/73/5 30/74/5 28/75/5 27/76/5
f 26/62/6 25/77/6 29/78/6 31/79/6
f 33/80/1 34/81/1 35/82/1 36/83/1
f 37/84/2 33/80/2 36/83/2 38/85/2
f 39/86/3 37/84/3 38/85/3 40/87/3
f 34/88/4 39/89/4 40/90/4 35/91/4
f 40/92/5 38/93/5 36/94/5 35/95/5
f 34/96/6 33/97/6 37/98/6 39/99/6
f 41/100/1 42/101/1 43/102/1 44/103/1
f 45/104/2 41/105/2 44/106/2 46/107/2
f 47/108/3 45/109/3 46/110/3 48/111/3
f 42/112/4 47/113/4 48/114/4 43/115/4
f 48/116/5 46/117/5 44/118/5 43/119/5
f 42/120/6 41/121/6 45/122/6 47/123/6
f 49/124/1 50/125/1 51/126/1 52/127/1
f 53/128/2 49/129/2 52/130/2 54/131/2
f 55/132/3 53/133/3 54/134/3 56/135/3
f 50/136/4 55/137/4 56/138/4 51/139/4
f 56/135/5 54/134/5 52/140/5 51/141/5
f 50/142/6 49/143/6 53/144/6 55/145/6
f 57/146/1 58/147/1 59/148/1 60/149/1
f 61/150/2 57/151/2 60/152/2 62/153/2
f 63/154/3 61/155/3 62/156/3 64/157/3
f 58/158/4 63/159/4 64/160/4 59/161/4
f 64/157/5 62/156/5 60/162/5 59/163/5
f 58/164/6 57/165/6 61/166/6 63/167/6
f 65/168/1 66/169/1 67/170/1 68/171/1
f 69/172/2 65/168/2 68/171/2 70/173/2
f 71/174/3 69/172/3 70/173/3 72/175/3
f 66/176/4 71/177/4 72/178/4 67/179/4
f 72/175/5 70/173/5 68/180/5 67/181/5
f 66/182/6 65/183/6 69/184/6 71/185/6
f 73/186/1 74/187/1 75/188/1 76/189/1
f 77/190/2 73/186/2 76/189/2 78/191/2
f 79/192/3 77/190/3 78/191/3 80/193/3
f 74/194/4 79/195/4 80/196/4 75/197/4
f 80/198/5 78/199/5 76/200/5 75/201/5
f 74/194/6 73/202/6 77/203/6 79/204/6
o scopeModel
v -5.347584 0.655024 -0.000379
v -5.347584 0.405956 -0.343192
v -5.347584 0.002956 -0.212249
v -5.347584 -0.065885 -0.000379
v -5.347584 0.002956 0.211491
v -5.347584 0.183183 0.342433
v -5.347584 0.405955 0.342433
v -5.347584 0.586183 0.211491
v -5.347584 0.586183 -0.212249
v -5.347584 0.183183 -0.343192
vt 0.500000 0.000000
vt 0.024472 0.345491
vt 0.206107 0.904509
vt 0.500000 1.000000
vt 0.793892 0.904508
vt 0.975528 0.654508
vt 0.975528 0.345491
vt 0.793892 0.095491
vt 0.206107 0.095492
vt 0.024472 0.654509
vn -1.0000 -0.0000 0.0000
usemtl Material.036
s off
f 81/205/7 82/206/7 83/207/7
f 83/207/7 84/208/7 85/209/7
f 85/209/7 86/210/7 87/211/7
f 87/211/7 88/212/7 81/205/7
f 81/205/7 89/213/7 82/206/7
f 82/206/7 90/214/7 83/207/7
f 83/207/7 85/209/7 87/211/7
f 87/211/7 81/205/7 83/207/7
o overlayModel
v -5.371411 0.655024 -0.000379
v -5.371411 0.405956 -0.343192
v -5.371411 0.002956 -0.212249
v -5.371411 -0.065885 -0.000379
v -5.371411 0.002956 0.211491
v -5.371411 0.183183 0.342433
v -5.371411 0.405955 0.342433
v -5.371411 0.586183 0.211491
v -5.371411 0.586183 -0.212249
v -5.371411 0.183183 -0.343192
vt 0.500000 0.000000
vt 0.975528 0.345491
vt 0.793893 0.904509
vt 0.500000 1.000000
vt 0.206108 0.904508
vt 0.024472 0.654508
vt 0.024472 0.345491
vt 0.206108 0.095491
vt 0.793893 0.095492
vt 0.975528 0.654509
vn -1.0000 -0.0000 0.0000
usemtl Material.048
s off
f 91/215/8 92/216/8 93/217/8
f 93/217/8 94/218/8 95/219/8
f 95/219/8 96/220/8 97/221/8
f 97/221/8 98/222/8 91/215/8
f 91/215/8 99/223/8 92/216/8
f 92/216/8 100/224/8 93/217/8
f 93/217/8 95/219/8 97/221/8
f 97/221/8 91/215/8 93/217/8
