# Blender v2.80 (sub 75) OBJ File: ''
# www.blender.org
mtllib scopepsg1x.mtl
o attachmentModel
v -3.115967 -0.492540 -0.156247
v -3.115967 -0.492540 0.156253
v -3.115967 -0.180039 0.156253
v -3.115967 -0.180039 -0.156247
v -1.865967 -0.492540 -0.156247
v -1.865967 -0.180040 -0.156247
v -1.865967 -0.492540 0.156253
v -1.865967 -0.180040 0.156253
v -6.240967 0.444961 -0.312497
v -6.240967 0.444961 0.312503
v -6.240967 0.757461 0.312503
v -6.240967 0.757461 -0.312497
v -4.678467 0.444961 -0.312497
v -4.678467 0.757461 -0.312497
v -4.678467 0.444961 0.312503
v -4.678467 0.757461 0.312503
v -6.240967 -0.492539 -0.312497
v -6.240967 -0.492539 0.312503
v -6.240967 -0.180039 0.312503
v -6.240967 -0.180039 -0.312497
v -4.678467 -0.492539 -0.312497
v -4.678467 -0.180039 -0.312497
v -4.678467 -0.492539 0.312503
v -4.678467 -0.180039 0.312503
v -5.928467 -0.180039 0.156253
v -5.928467 -0.180039 0.625003
v -5.928467 0.444961 0.625003
v -5.928467 0.444961 0.156253
v -4.678467 -0.180039 0.156253
v -4.678467 0.444961 0.156253
v -4.678467 -0.180039 0.625003
v -4.678467 0.444961 0.625003
v -5.928467 -0.180039 -0.624997
v -5.928467 -0.180039 -0.156247
v -5.928467 0.444961 -0.156247
v -5.928467 0.444961 -0.624997
v -4.678467 -0.180039 -0.624997
v -4.678467 0.444961 -0.624997
v -4.678467 -0.180039 -0.156247
v -4.678467 0.444961 -0.156247
v -2.803467 0.444960 -0.156247
v -2.803467 0.444960 0.156253
v -2.803467 0.757460 0.156253
v -2.803467 0.757460 -0.156247
v -2.178467 0.444960 -0.156247
v -2.178467 0.757460 -0.156247
v -2.178467 0.444960 0.156253
v -2.178467 0.757460 0.156253
v -0.928467 -0.180040 -0.624997
v -0.928467 -0.180040 -0.156247
v -0.928467 0.444960 -0.156247
v -0.928467 0.444960 -0.624997
v 0.321533 -0.180040 -0.624996
v 0.321533 0.444960 -0.624996
v 0.321533 -0.180040 -0.156246
v 0.321533 0.444960 -0.156246
v -0.928467 0.444960 -0.312496
v -0.928467 0.444960 0.312504
v -0.928467 0.757460 0.312504
v -0.928467 0.757460 -0.312496
v 0.634033 0.444960 -0.312496
v 0.634033 0.757460 -0.312496
v 0.634033 0.444960 0.312504
v 0.634033 0.757460 0.312504
v -0.928467 -0.180040 0.156253
v -0.928467 -0.180040 0.625003
v -0.928467 0.444960 0.625003
v -0.928467 0.444960 0.156253
v 0.321533 -0.180040 0.156254
v 0.321533 0.444960 0.156254
v 0.321533 -0.180040 0.625004
v 0.321533 0.444960 0.625004
v -0.928467 -0.492540 -0.312496
v -0.928467 -0.492540 0.312504
v -0.928467 -0.180040 0.312504
v -0.928467 -0.180040 -0.312496
v 0.634033 -0.492540 -0.312496
v 0.634033 -0.180040 -0.312496
v 0.634033 -0.492540 0.312504
v 0.634033 -0.180040 0.312504
v -5.928467 -0.180039 -0.156247
v -5.928467 -0.180039 0.156253
v -5.928467 0.444961 0.156253
v -5.928467 0.444961 -0.156247
v 0.321533 -0.180040 -0.156246
v 0.321533 0.444960 -0.156246
v 0.321533 -0.180040 0.156254
v 0.321533 0.444960 0.156254
v -6.240967 -0.180039 -0.624997
v -6.240967 -0.180039 -0.234372
v -6.240967 0.444961 -0.234372
v -6.240967 0.444961 -0.624997
v -5.928467 -0.180039 -0.624997
v -5.928467 0.444961 -0.624997
v -5.928467 -0.180039 -0.234372
v -5.928467 0.444961 -0.234372
v -6.240967 -0.180039 0.234378
v -6.240967 -0.180039 0.625003
v -6.240967 0.444961 0.625003
v -6.240967 0.444961 0.234378
v -5.928467 -0.180039 0.234378
v -5.928467 0.444961 0.234378
v -5.928467 -0.180039 0.625003
v -5.928467 0.444961 0.625003
v 0.321533 -0.180040 -0.312496
v 0.321533 -0.180040 0.312504
v 0.321533 0.444960 0.312504
v 0.321533 0.444960 -0.312496
v 0.634033 -0.180040 -0.312496
v 0.634033 0.444960 -0.312496
v 0.634033 -0.180040 0.312504
v 0.634033 0.444960 0.312504
v -6.240967 0.366836 -0.234372
v -6.240967 0.366836 0.234378
v -6.240967 0.444961 0.234378
v -6.240967 0.444961 -0.234372
v -5.928467 0.366836 -0.234372
v -5.928467 0.444961 -0.234372
v -5.928467 0.366836 0.234378
v -5.928467 0.444961 0.234378
v -6.240967 -0.180039 -0.234372
v -6.240967 -0.180039 0.234378
v -6.240967 -0.101914 0.234378
v -6.240967 -0.101914 -0.234372
v -5.928467 -0.180039 -0.234372
v -5.928467 -0.101914 -0.234372
v -5.928467 -0.180039 0.234378
v -5.928467 -0.101914 0.234378
v 0.321533 -0.180040 0.312504
v 0.321533 -0.180040 0.625004
v 0.321533 0.444960 0.625004
v 0.321533 0.444960 0.312504
v 0.634033 -0.180040 0.312504
v 0.634033 0.444960 0.312504
v 0.634033 -0.180040 0.625004
v 0.634033 0.444960 0.625004
v 0.321533 -0.180040 -0.624996
v 0.321533 -0.180040 -0.312496
v 0.321533 0.444960 -0.312496
v 0.321533 0.444960 -0.624996
v 0.634033 -0.180040 -0.624996
v 0.634033 0.444960 -0.624996
v 0.634033 -0.180040 -0.312496
v 0.634033 0.444960 -0.312496
vt 0.375000 0.781250
vt 0.406250 0.781250
vt 0.406250 0.812500
vt 0.375000 0.812500
vt 0.500000 0.781250
vt 0.500000 0.812500
vt 0.468750 0.781250
vt 0.468750 0.812500
vt 0.375000 0.781250
vt 0.500000 0.781250
vt 0.500000 0.812500
vt 0.375000 0.812500
vt 0.625000 0.468750
vt 0.656250 0.468750
vt 0.656250 0.343750
vt 0.625000 0.343750
vt 0.625000 0.343750
vt 0.656250 0.343750
vt 0.656250 0.468750
vt 0.625000 0.468750
vt 0.875000 0.937500
vt 0.906250 0.937500
vt 0.906250 0.968750
vt 0.875000 0.968750
vt 0.218750 0.875000
vt 0.062500 0.875000
vt 0.062500 0.906250
vt 0.218750 0.906250
vt 0.843750 0.281250
vt 0.968750 0.281250
vt 0.968750 0.343750
vt 0.843750 0.343750
vt 0.062500 0.875000
vt 0.218750 0.875000
vt 0.218750 0.906250
vt 0.062500 0.906250
vt 0.843750 0.781250
vt 0.937500 0.781250
vt 0.937500 0.562500
vt 0.843750 0.562500
vt 0.843750 0.562500
vt 0.937500 0.562500
vt 0.937500 0.781250
vt 0.843750 0.781250
vt 0.875000 0.937500
vt 0.906250 0.937500
vt 0.906250 0.968750
vt 0.875000 0.968750
vt 0.218750 0.781250
vt 0.062500 0.781250
vt 0.062500 0.812500
vt 0.218750 0.812500
vt 0.843750 0.281250
vt 0.968750 0.281250
vt 0.968750 0.343750
vt 0.843750 0.343750
vt 0.062500 0.781250
vt 0.218750 0.781250
vt 0.218750 0.812500
vt 0.062500 0.812500
vt 0.187500 0.812500
vt 0.218750 0.781250
vt 0.187500 0.781250
vt 0.843750 0.593750
vt 0.937500 0.593750
vt 0.937500 0.812500
vt 0.843750 0.812500
vt 0.187500 0.781250
vt 0.218750 0.781250
vt 0.218750 0.812500
vt 0.187500 0.812500
vt 0.218750 0.812500
vt 0.093750 0.812500
vt 0.093750 0.875000
vt 0.218750 0.875000
vt 0.843750 0.218750
vt 0.906250 0.218750
vt 0.906250 0.312500
vt 0.843750 0.312500
vt 0.093750 0.812500
vt 0.218750 0.812500
vt 0.218750 0.875000
vt 0.093750 0.875000
vt 0.718750 0.187500
vt 0.750000 0.187500
vt 0.750000 0.062500
vt 0.718750 0.062500
vt 0.625000 0.062500
vt 0.656250 0.062500
vt 0.656250 0.187500
vt 0.625000 0.187500
vt 0.187500 0.781250
vt 0.218750 0.781250
vt 0.218750 0.812500
vt 0.187500 0.812500
vt 0.218750 0.812500
vt 0.093750 0.812500
vt 0.093750 0.875000
vt 0.218750 0.875000
vt 0.843750 0.218750
vt 0.906250 0.218750
vt 0.906250 0.312500
vt 0.843750 0.312500
vt 0.187500 0.781250
vt 0.218750 0.781250
vt 0.218750 0.812500
vt 0.187500 0.812500
vt 0.718750 0.187500
vt 0.750000 0.187500
vt 0.750000 0.062500
vt 0.718750 0.062500
vt 0.625000 0.062500
vt 0.656250 0.062500
vt 0.656250 0.187500
vt 0.625000 0.187500
vt 0.406250 0.875000
vt 0.437500 0.875000
vt 0.437500 0.906250
vt 0.406250 0.906250
vt 0.468750 0.875000
vt 0.468750 0.906250
vt 0.437500 0.875000
vt 0.437500 0.906250
vt 0.406250 0.875000
vt 0.468750 0.875000
vt 0.468750 0.906250
vt 0.406250 0.906250
vt 0.875000 0.437500
vt 0.906250 0.437500
vt 0.906250 0.343750
vt 0.875000 0.343750
vt 0.718750 0.375000
vt 0.750000 0.375000
vt 0.750000 0.437500
vt 0.718750 0.437500
vt 0.843750 0.687500
vt 0.906250 0.687500
vt 0.906250 0.781250
vt 0.843750 0.781250
vt 0.718750 0.812500
vt 0.593750 0.812500
vt 0.593750 0.875000
vt 0.718750 0.875000
vt 0.187500 0.781250
vt 0.218750 0.781250
vt 0.218750 0.812500
vt 0.187500 0.812500
vt 0.187500 0.781250
vt 0.218750 0.781250
vt 0.218750 0.812500
vt 0.187500 0.812500
vt 0.218750 0.781250
vt 0.187500 0.781250
vt 0.625000 0.562500
vt 0.656250 0.562500
vt 0.656250 0.687500
vt 0.625000 0.687500
vt 0.843750 0.312500
vt 0.937500 0.312500
vt 0.937500 0.375000
vt 0.843750 0.375000
vt 0.750000 0.875000
vt 0.593750 0.875000
vt 0.593750 0.906250
vt 0.750000 0.906250
vt 0.875000 0.937500
vt 0.906250 0.937500
vt 0.906250 0.968750
vt 0.875000 0.968750
vt 0.593750 0.875000
vt 0.750000 0.875000
vt 0.750000 0.906250
vt 0.593750 0.906250
vt 0.906250 0.656250
vt 1.000000 0.656250
vt 1.000000 0.406250
vt 0.906250 0.406250
vt 0.906250 0.406250
vt 1.000000 0.406250
vt 1.000000 0.656250
vt 0.906250 0.656250
vt 0.843750 0.687500
vt 0.906250 0.687500
vt 0.906250 0.781250
vt 0.843750 0.781250
vt 0.718750 0.812500
vt 0.593750 0.812500
vt 0.593750 0.875000
vt 0.718750 0.875000
vt 0.187500 0.781250
vt 0.218750 0.781250
vt 0.218750 0.812500
vt 0.187500 0.812500
vt 0.593750 0.812500
vt 0.718750 0.812500
vt 0.718750 0.875000
vt 0.593750 0.875000
vt 0.718750 0.687500
vt 0.750000 0.687500
vt 0.750000 0.562500
vt 0.718750 0.562500
vt 0.625000 0.562500
vt 0.656250 0.562500
vt 0.656250 0.687500
vt 0.625000 0.687500
vt 0.843750 0.312500
vt 0.937500 0.312500
vt 0.937500 0.375000
vt 0.843750 0.375000
vt 0.750000 0.781250
vt 0.593750 0.781250
vt 0.593750 0.812500
vt 0.750000 0.812500
vt 0.875000 0.937500
vt 0.906250 0.937500
vt 0.906250 0.968750
vt 0.875000 0.968750
vt 0.593750 0.781250
vt 0.750000 0.781250
vt 0.750000 0.812500
vt 0.593750 0.812500
vt 0.843750 0.750000
vt 0.937500 0.750000
vt 0.937500 0.500000
vt 0.843750 0.500000
vt 0.843750 0.500000
vt 0.937500 0.500000
vt 0.937500 0.750000
vt 0.843750 0.750000
vt 0.187500 0.781250
vt 0.218750 0.781250
vt 0.218750 0.812500
vt 0.187500 0.812500
vt 0.718750 0.812500
vt 0.093750 0.812500
vt 0.093750 0.875000
vt 0.718750 0.875000
vt 0.187500 0.781250
vt 0.218750 0.781250
vt 0.218750 0.812500
vt 0.187500 0.812500
vt 0.093750 0.812500
vt 0.718750 0.812500
vt 0.718750 0.875000
vt 0.093750 0.875000
vt 0.875000 0.750000
vt 0.937500 0.750000
vt 0.937500 0.125000
vt 0.875000 0.125000
vt 0.875000 0.125000
vt 0.937500 0.125000
vt 0.937500 0.750000
vt 0.875000 0.750000
vt 0.875000 0.937500
vt 0.906250 0.937500
vt 0.906250 0.968750
vt 0.875000 0.968750
vt 0.093750 0.812500
vt 0.062500 0.812500
vt 0.062500 0.875000
vt 0.093750 0.875000
vt 0.187500 0.781250
vt 0.218750 0.781250
vt 0.218750 0.812500
vt 0.187500 0.812500
vt 0.218750 0.968750
vt 0.250000 0.968750
vt 0.250000 1.000000
vt 0.218750 1.000000
vt 0.218750 0.781250
vt 0.187500 0.781250
vt 0.625000 0.031250
vt 0.656250 0.031250
vt 0.656250 0.062500
vt 0.625000 0.062500
vt 0.875000 0.937500
vt 0.906250 0.937500
vt 0.906250 0.968750
vt 0.875000 0.968750
vt 0.250000 0.968750
vt 0.218750 0.968750
vt 0.218750 1.000000
vt 0.250000 1.000000
vt 0.187500 0.781250
vt 0.218750 0.781250
vt 0.218750 0.812500
vt 0.187500 0.812500
vt 0.062500 0.812500
vt 0.093750 0.812500
vt 0.093750 0.875000
vt 0.062500 0.875000
vt 0.218750 0.781250
vt 0.187500 0.781250
vt 0.625000 0.031250
vt 0.656250 0.031250
vt 0.656250 0.062500
vt 0.625000 0.062500
vt 0.187500 0.781250
vt 0.218750 0.781250
vt 0.218750 0.812500
vt 0.187500 0.812500
vt 0.218750 0.781250
vt 0.218750 0.812500
vt 0.031250 0.687500
vt 0.093750 0.687500
vt 0.093750 0.750000
vt 0.031250 0.750000
vt 0.187500 0.781250
vt 0.218750 0.781250
vt 0.218750 0.812500
vt 0.187500 0.812500
vt 0.187500 0.812500
vt 0.218750 0.781250
vt 0.187500 0.781250
vt 0.218750 0.781250
vt 0.218750 0.812500
vt 0.187500 0.812500
vt 0.875000 0.937500
vt 0.906250 0.937500
vt 0.906250 0.968750
vt 0.875000 0.968750
vt 0.218750 0.781250
vt 0.187500 0.781250
vt 0.187500 0.812500
vt 0.218750 0.812500
vt 0.187500 0.781250
vt 0.187500 0.812500
vt 0.187500 0.781250
vt 0.218750 0.781250
vt 0.218750 0.812500
vt 0.187500 0.812500
vt 0.218750 0.781250
vt 0.187500 0.781250
vt 0.218750 0.968750
vt 0.250000 0.968750
vt 0.250000 1.000000
vt 0.218750 1.000000
vt 0.875000 0.937500
vt 0.906250 0.937500
vt 0.906250 0.968750
vt 0.875000 0.968750
vt 0.218750 0.781250
vt 0.187500 0.781250
vt 0.187500 0.812500
vt 0.218750 0.812500
vt 0.187500 0.781250
vt 0.187500 0.812500
vt 0.187500 0.781250
vt 0.218750 0.781250
vt 0.218750 0.812500
vt 0.187500 0.812500
vt 0.218750 1.000000
vt 0.250000 1.000000
vt 0.250000 0.968750
vt 0.218750 0.968750
vt 0.218750 0.781250
vt 0.218750 0.812500
vt 0.187500 0.812500
vt 0.187500 0.781250
vt 0.218750 0.781250
vt 0.218750 0.812500
vt 0.187500 0.812500
vt 0.218750 0.781250
vt 0.218750 0.812500
vt 0.875000 0.937500
vt 0.906250 0.937500
vt 0.906250 0.968750
vt 0.875000 0.968750
vt 0.187500 0.781250
vt 0.218750 0.781250
vt 0.218750 0.812500
vt 0.187500 0.812500
vt 0.718750 0.718750
vt 0.750000 0.718750
vt 0.750000 0.687500
vt 0.718750 0.687500
vt 0.625000 0.687500
vt 0.656250 0.687500
vt 0.656250 0.718750
vt 0.625000 0.718750
vt 0.187500 0.781250
vt 0.218750 0.781250
vt 0.218750 0.812500
vt 0.187500 0.812500
vt 0.218750 0.781250
vt 0.218750 0.812500
vt 0.875000 0.937500
vt 0.906250 0.937500
vt 0.906250 0.968750
vt 0.875000 0.968750
vt 0.187500 0.781250
vt 0.218750 0.781250
vt 0.218750 0.812500
vt 0.187500 0.812500
vt 0.718750 0.718750
vt 0.750000 0.718750
vt 0.750000 0.687500
vt 0.718750 0.687500
vt 0.625000 0.687500
vt 0.656250 0.687500
vt 0.656250 0.718750
vt 0.625000 0.718750
vn -1.0000 0.0000 -0.0000
vn 0.0000 -0.0000 -1.0000
vn 1.0000 0.0000 0.0000
vn -0.0000 0.0000 1.0000
vn 0.0000 1.0000 0.0000
vn -0.0000 -1.0000 0.0000
usemtl m_99e9f443-2c22-b6f3-9d7b-754b2d1edc8b
s 1
f 1/1/1 2/2/1 3/3/1 4/4/1
f 5/5/2 1/1/2 4/4/2 6/6/2
f 7/7/3 5/5/3 6/6/3 8/8/3
f 2/9/4 7/10/4 8/11/4 3/12/4
f 8/13/5 6/14/5 4/15/5 3/16/5
f 2/17/6 1/18/6 5/19/6 7/20/6
f 9/21/1 10/22/1 11/23/1 12/24/1
f 13/25/2 9/26/2 12/27/2 14/28/2
f 15/29/3 13/30/3 14/31/3 16/32/3
f 10/33/4 15/34/4 16/35/4 11/36/4
f 16/37/5 14/38/5 12/39/5 11/40/5
f 10/41/6 9/42/6 13/43/6 15/44/6
f 17/45/1 18/46/1 19/47/1 20/48/1
f 21/49/2 17/50/2 20/51/2 22/52/2
f 23/53/3 21/54/3 22/55/3 24/56/3
f 18/57/4 23/58/4 24/59/4 19/60/4
f 24/61/5 22/52/5 20/62/5 19/63/5
f 18/64/6 17/65/6 21/66/6 23/67/6
f 25/68/1 26/69/1 27/70/1 28/71/1
f 29/72/2 25/73/2 28/74/2 30/75/2
f 31/76/3 29/77/3 30/78/3 32/79/3
f 26/80/4 31/81/4 32/82/4 27/83/4
f 32/84/5 30/85/5 28/86/5 27/87/5
f 26/88/6 25/89/6 29/90/6 31/91/6
f 33/92/1 34/93/1 35/94/1 36/95/1
f 37/96/2 33/97/2 36/98/2 38/99/2
f 39/100/3 37/101/3 38/102/3 40/103/3
f 34/104/4 39/105/4 40/106/4 35/107/4
f 40/108/5 38/109/5 36/110/5 35/111/5
f 34/112/6 33/113/6 37/114/6 39/115/6
f 41/116/1 42/117/1 43/118/1 44/119/1
f 45/120/2 41/116/2 44/119/2 46/121/2
f 47/122/3 45/120/3 46/121/3 48/123/3
f 42/124/4 47/125/4 48/126/4 43/127/4
f 48/128/5 46/129/5 44/130/5 43/131/5
f 42/132/6 41/133/6 45/134/6 47/135/6
f 49/136/1 50/137/1 51/138/1 52/139/1
f 53/140/2 49/141/2 52/142/2 54/143/2
f 55/144/3 53/145/3 54/146/3 56/147/3
f 50/148/4 55/149/4 56/150/4 51/151/4
f 56/147/5 54/146/5 52/152/5 51/153/5
f 50/154/6 49/155/6 53/156/6 55/157/6
f 57/158/1 58/159/1 59/160/1 60/161/1
f 61/162/2 57/163/2 60/164/2 62/165/2
f 63/166/3 61/167/3 62/168/3 64/169/3
f 58/170/4 63/171/4 64/172/4 59/173/4
f 64/174/5 62/175/5 60/176/5 59/177/5
f 58/178/6 57/179/6 61/180/6 63/181/6
f 65/182/1 66/183/1 67/184/1 68/185/1
f 69/186/2 65/187/2 68/188/2 70/189/2
f 71/190/3 69/191/3 70/192/3 72/193/3
f 66/194/4 71/195/4 72/196/4 67/197/4
f 72/198/5 70/199/5 68/200/5 67/201/5
f 66/202/6 65/203/6 69/204/6 71/205/6
f 73/206/1 74/207/1 75/208/1 76/209/1
f 77/210/2 73/211/2 76/212/2 78/213/2
f 79/214/3 77/215/3 78/216/3 80/217/3
f 74/218/4 79/219/4 80/220/4 75/221/4
f 80/222/5 78/223/5 76/224/5 75/225/5
f 74/226/6 73/227/6 77/228/6 79/229/6
f 81/230/1 82/231/1 83/232/1 84/233/1
f 85/234/2 81/235/2 84/236/2 86/237/2
f 87/238/3 85/239/3 86/240/3 88/241/3
f 82/242/4 87/243/4 88/244/4 83/245/4
f 88/246/5 86/247/5 84/248/5 83/249/5
f 82/250/6 81/251/6 85/252/6 87/253/6
f 89/254/1 90/255/1 91/256/1 92/257/1
f 93/258/2 89/259/2 92/260/2 94/261/2
f 95/262/3 93/263/3 94/264/3 96/265/3
f 90/266/4 95/267/4 96/268/4 91/269/4
f 96/265/5 94/264/5 92/270/5 91/271/5
f 90/272/6 89/273/6 93/274/6 95/275/6
f 97/276/1 98/277/1 99/278/1 100/279/1
f 101/280/2 97/281/2 100/282/2 102/283/2
f 103/284/3 101/285/3 102/286/3 104/287/3
f 98/288/4 103/289/4 104/290/4 99/291/4
f 104/287/5 102/286/5 100/292/5 99/293/5
f 98/294/6 97/295/6 101/296/6 103/297/6
f 105/298/1 106/299/1 107/300/1 108/301/1
f 109/302/2 105/298/2 108/301/2 110/303/2
f 111/304/3 109/305/3 110/306/3 112/307/3
f 106/308/4 111/309/4 112/310/4 107/311/4
f 112/312/5 110/303/5 108/313/5 107/314/5
f 106/308/6 105/315/6 109/316/6 111/317/6
f 113/318/1 114/319/1 115/320/1 116/321/1
f 117/322/2 113/323/2 116/324/2 118/325/2
f 119/326/3 117/322/3 118/325/3 120/327/3
f 114/328/4 119/329/4 120/330/4 115/331/4
f 120/327/5 118/325/5 116/332/5 115/333/5
f 114/334/6 113/335/6 117/336/6 119/337/6
f 121/338/1 122/339/1 123/340/1 124/341/1
f 125/342/2 121/343/2 124/344/2 126/345/2
f 127/346/3 125/342/3 126/345/3 128/347/3
f 122/348/4 127/349/4 128/350/4 123/351/4
f 128/352/5 126/353/5 124/354/5 123/355/5
f 122/348/6 121/356/6 125/357/6 127/358/6
f 129/359/1 130/360/1 131/361/1 132/362/1
f 133/363/2 129/359/2 132/362/2 134/364/2
f 135/365/3 133/366/3 134/367/3 136/368/3
f 130/369/4 135/370/4 136/371/4 131/372/4
f 136/373/5 134/374/5 132/375/5 131/376/5
f 130/377/6 129/378/6 133/379/6 135/380/6
f 137/381/1 138/382/1 139/383/1 140/384/1
f 141/385/2 137/381/2 140/384/2 142/386/2
f 143/387/3 141/388/3 142/389/3 144/390/3
f 138/391/4 143/392/4 144/393/4 139/394/4
f 144/395/5 142/396/5 140/397/5 139/398/5
f 138/399/6 137/400/6 141/401/6 143/402/6
o scopeModel
v -6.177334 0.489340 0.000483
v -6.177334 0.242880 -0.338738
v -6.177334 -0.155898 -0.209167
v -6.177334 -0.224018 0.000484
v -6.177334 -0.155898 0.210134
v -6.177334 0.022441 0.339704
v -6.177334 0.242881 0.339704
v -6.177334 0.421220 0.210134
v -6.177334 0.421220 -0.209167
v -6.177334 0.022441 -0.338738
vt 0.500000 0.000000
vt 0.024472 0.345491
vt 0.206107 0.904509
vt 0.500000 1.000000
vt 0.793892 0.904508
vt 0.975528 0.654508
vt 0.975528 0.345491
vt 0.793892 0.095491
vt 0.206107 0.095492
vt 0.024472 0.654509
vn -1.0000 0.0000 0.0000
usemtl Material.036
s off
f 145/403/7 146/404/7 147/405/7
f 147/405/7 148/406/7 149/407/7
f 149/407/7 150/408/7 151/409/7
f 151/409/7 152/410/7 145/403/7
f 145/403/7 153/411/7 146/404/7
f 146/404/7 154/412/7 147/405/7
f 147/405/7 149/407/7 151/409/7
f 151/409/7 145/403/7 147/405/7
o overlayModel
v -6.200912 0.489340 0.000483
v -6.200912 0.242880 -0.338738
v -6.200912 -0.155898 -0.209167
v -6.200912 -0.224018 0.000484
v -6.200912 -0.155898 0.210134
v -6.200912 0.022441 0.339704
v -6.200912 0.242881 0.339704
v -6.200912 0.421220 0.210134
v -6.200912 0.421220 -0.209167
v -6.200912 0.022441 -0.338738
vt 0.500000 0.000000
vt 0.975528 0.345491
vt 0.793893 0.904509
vt 0.500000 1.000000
vt 0.206108 0.904508
vt 0.024472 0.654508
vt 0.024472 0.345491
vt 0.206108 0.095491
vt 0.793893 0.095492
vt 0.975528 0.654509
vn -1.0000 -0.0000 0.0000
usemtl Material.048
s off
f 155/413/8 156/414/8 157/415/8
f 157/415/8 158/416/8 159/417/8
f 159/417/8 160/418/8 161/419/8
f 161/419/8 162/420/8 155/413/8
f 155/413/8 163/421/8 156/414/8
f 156/414/8 164/422/8 157/415/8
f 157/415/8 159/417/8 161/419/8
f 161/419/8 155/413/8 157/415/8
