# Blender v2.80 (sub 75) OBJ File: ''
# www.blender.org
mtllib scopesvuasx_3.mtl
o attachmentModel
v -5.804936 -0.675916 -0.156237
v -5.804936 -0.675916 0.156263
v -5.804936 -0.363416 0.156263
v -5.804936 -0.363416 -0.156237
v -4.867436 -0.675916 -0.156237
v -4.867436 -0.363416 -0.156237
v -4.867436 -0.675916 0.156263
v -4.867436 -0.363416 0.156263
v -3.929936 -0.675916 -0.156237
v -3.929936 -0.675916 0.156263
v -3.929936 -0.363416 0.156263
v -3.929936 -0.363416 -0.156237
v -3.304936 -0.675917 -0.156237
v -3.304936 -0.363417 -0.156237
v -3.304936 -0.675917 0.156263
v -3.304936 -0.363417 0.156263
v -5.492436 -0.363416 -0.156237
v -5.492436 -0.363416 0.156263
v -5.492436 -0.050916 0.156263
v -5.492436 -0.050916 -0.156237
v -4.867436 -0.363416 -0.156237
v -4.867436 -0.050916 -0.156237
v -4.867436 -0.363416 0.156263
v -4.867436 -0.050916 0.156263
v -4.242436 -0.363416 -0.156237
v -4.242436 -0.363416 0.156263
v -4.242436 -0.050916 0.156263
v -4.242436 -0.050916 -0.156237
v -3.304936 -0.363417 -0.156237
v -3.304936 -0.050917 -0.156237
v -3.304936 -0.363417 0.156263
v -3.304936 -0.050917 0.156263
v -5.492436 -0.050916 -0.468737
v -5.492436 -0.050916 0.468763
v -5.492436 0.886584 0.468763
v -5.492435 0.886584 -0.468737
v -1.742436 -0.050917 -0.468737
v -1.742436 0.886583 -0.468737
v -1.742436 -0.050917 0.468763
v -1.742436 0.886583 0.468763
v -7.992436 0.886584 -0.468737
v -7.992436 0.886584 0.468763
v -7.992436 1.199084 0.468763
v -7.992436 1.199084 -0.468737
v -7.679936 0.886584 -0.468737
v -7.679935 1.199084 -0.468737
v -7.679936 0.886584 0.468763
v -7.679936 1.199084 0.468763
v -7.679936 -0.050916 -0.468737
v -7.679936 -0.050916 0.468763
v -7.679936 0.886584 0.468763
v -7.679936 0.886584 -0.468737
v -5.804936 -0.050916 -0.468737
v -5.804935 0.886584 -0.468737
v -5.804936 -0.050916 0.468763
v -5.804936 0.886584 0.468763
v -5.804936 0.261584 -0.156237
v -5.804936 0.261584 0.156263
v -5.804936 0.574084 0.156263
v -5.804936 0.574084 -0.156237
v -5.492436 0.261584 -0.156237
v -5.492436 0.574084 -0.156237
v -5.492436 0.261584 0.156263
v -5.492436 0.574084 0.156263
v -7.992436 -0.050916 0.468763
v -7.992436 -0.050916 0.781263
v -7.992436 0.886584 0.781263
v -7.992436 0.886584 0.468763
v -7.679936 -0.050916 0.468763
v -7.679936 0.886584 0.468763
v -7.679936 -0.050916 0.781263
v -7.679936 0.886584 0.781263
v -7.992436 -0.050916 0.234388
v -7.992436 -0.050916 0.468763
v -7.992436 0.886584 0.468763
v -7.992436 0.886584 0.234388
v -7.679936 -0.050916 0.234388
v -7.679936 0.886584 0.234388
v -7.679936 -0.050916 0.468763
v -7.679936 0.886584 0.468763
v -7.992436 -0.050916 -0.468737
v -7.992436 -0.050916 -0.234362
v -7.992436 0.886584 -0.234362
v -7.992436 0.886584 -0.468737
v -7.679936 -0.050916 -0.468737
v -7.679936 0.886584 -0.468737
v -7.679936 -0.050916 -0.234362
v -7.679936 0.886584 -0.234362
v -7.992436 0.652209 -0.234362
v -7.992436 0.652209 0.234388
v -7.992436 0.886584 0.234388
v -7.992436 0.886584 -0.234362
v -7.679936 0.652209 -0.234362
v -7.679936 0.886584 -0.234362
v -7.679936 0.652209 0.234388
v -7.679936 0.886584 0.234388
v -7.992436 -0.050916 -0.234362
v -7.992436 -0.050916 0.234388
v -7.992436 0.183459 0.234388
v -7.992436 0.183459 -0.234362
v -7.679936 -0.050916 -0.234362
v -7.679936 0.183459 -0.234362
v -7.679936 -0.050916 0.234388
v -7.679936 0.183459 0.234388
v -7.992436 -0.050916 -0.781237
v -7.992436 -0.050916 -0.468737
v -7.992436 0.886584 -0.468737
v -7.992436 0.886584 -0.781237
v -7.679936 -0.050916 -0.781237
v -7.679936 0.886584 -0.781237
v -7.679936 -0.050916 -0.468737
v -7.679936 0.886584 -0.468737
v -7.992436 -0.363416 -0.468737
v -7.992436 -0.363416 0.468763
v -7.992436 -0.050916 0.468763
v -7.992436 -0.050916 -0.468737
v -7.679936 -0.363416 -0.468737
v -7.679936 -0.050916 -0.468737
v -7.679936 -0.363416 0.468763
v -7.679936 -0.050916 0.468763
v -4.554935 0.886584 -0.156237
v -4.554935 0.886584 0.156263
v -4.554935 1.199084 0.156263
v -4.554935 1.199084 -0.156237
v -3.929936 0.886584 -0.156237
v -3.929936 1.199083 -0.156237
v -3.929936 0.886584 0.156263
v -3.929936 1.199083 0.156263
vt 0.250000 0.562500
vt 0.281250 0.562500
vt 0.281250 0.593750
vt 0.250000 0.593750
vt 0.343750 0.562500
vt 0.343750 0.593750
vt 0.312500 0.562500
vt 0.312500 0.593750
vt 0.250000 0.562500
vt 0.343750 0.562500
vt 0.343750 0.593750
vt 0.250000 0.593750
vt 0.250000 0.593750
vt 0.281250 0.593750
vt 0.281250 0.562500
vt 0.250000 0.562500
vt 0.281250 0.562500
vt 0.281250 0.593750
vt 0.250000 0.593750
vt 0.437500 0.562500
vt 0.468750 0.562500
vt 0.468750 0.593750
vt 0.437500 0.593750
vt 0.500000 0.562500
vt 0.500000 0.593750
vt 0.468750 0.562500
vt 0.468750 0.593750
vt 0.437500 0.562500
vt 0.500000 0.562500
vt 0.500000 0.593750
vt 0.437500 0.593750
vt 0.437500 0.593750
vt 0.468750 0.593750
vt 0.468750 0.562500
vt 0.437500 0.562500
vt 0.468750 0.562500
vt 0.468750 0.593750
vt 0.437500 0.593750
vt 0.281250 0.593750
vt 0.312500 0.593750
vt 0.312500 0.625000
vt 0.281250 0.625000
vt 0.343750 0.593750
vt 0.343750 0.625000
vt 0.312500 0.593750
vt 0.312500 0.625000
vt 0.281250 0.593750
vt 0.343750 0.593750
vt 0.343750 0.625000
vt 0.281250 0.625000
vt 0.281250 0.625000
vt 0.312500 0.625000
vt 0.312500 0.593750
vt 0.281250 0.593750
vt 0.312500 0.593750
vt 0.312500 0.625000
vt 0.281250 0.625000
vt 0.406250 0.593750
vt 0.437500 0.593750
vt 0.437500 0.625000
vt 0.406250 0.625000
vt 0.500000 0.593750
vt 0.500000 0.625000
vt 0.468750 0.593750
vt 0.468750 0.625000
vt 0.406250 0.593750
vt 0.500000 0.593750
vt 0.500000 0.625000
vt 0.406250 0.625000
vt 0.406250 0.625000
vt 0.437500 0.625000
vt 0.437500 0.593750
vt 0.406250 0.593750
vt 0.437500 0.593750
vt 0.437500 0.625000
vt 0.406250 0.625000
vt 0.687500 0.781250
vt 0.718750 0.781250
vt 0.718750 0.812500
vt 0.687500 0.812500
vt 0.656250 0.812500
vt 0.281250 0.812500
vt 0.281250 0.906250
vt 0.656250 0.906250
vt 0.531250 0.718750
vt 0.625000 0.718750
vt 0.625000 0.812500
vt 0.531250 0.812500
vt 0.281250 0.812500
vt 0.656250 0.812500
vt 0.656250 0.906250
vt 0.281250 0.906250
vt 0.687500 0.656250
vt 0.781250 0.656250
vt 0.781250 0.281250
vt 0.687500 0.281250
vt 0.687500 0.281250
vt 0.781250 0.281250
vt 0.781250 0.656250
vt 0.687500 0.656250
vt 0.687500 0.687500
vt 0.718750 0.687500
vt 0.718750 0.718750
vt 0.687500 0.718750
vt 0.062500 0.906250
vt 0.031250 0.906250
vt 0.031250 0.937500
vt 0.062500 0.937500
vt 0.187500 0.843750
vt 0.218750 0.843750
vt 0.218750 0.875000
vt 0.187500 0.875000
vt 0.031250 0.906250
vt 0.062500 0.906250
vt 0.062500 0.937500
vt 0.031250 0.937500
vt 0.687500 0.062500
vt 0.781250 0.062500
vt 0.781250 0.031250
vt 0.687500 0.031250
vt 0.062500 0.906250
vt 0.062500 0.937500
vt 0.031250 0.937500
vt 0.187500 0.843750
vt 0.218750 0.843750
vt 0.218750 0.875000
vt 0.187500 0.875000
vt 0.250000 0.812500
vt 0.062500 0.812500
vt 0.062500 0.906250
vt 0.250000 0.906250
vt 0.281250 0.687500
vt 0.312500 0.687500
vt 0.312500 0.718750
vt 0.281250 0.718750
vt 0.062500 0.812500
vt 0.250000 0.812500
vt 0.250000 0.906250
vt 0.062500 0.906250
vt 0.687500 0.250000
vt 0.781250 0.250000
vt 0.781250 0.062500
vt 0.687500 0.062500
vt 0.687500 0.062500
vt 0.781250 0.062500
vt 0.781250 0.250000
vt 0.687500 0.250000
vt 0.250000 0.843750
vt 0.281250 0.843750
vt 0.281250 0.875000
vt 0.250000 0.875000
vt 0.281250 0.843750
vt 0.281250 0.875000
vt 0.250000 0.843750
vt 0.250000 0.875000
vt 0.250000 0.843750
vt 0.281250 0.843750
vt 0.281250 0.875000
vt 0.250000 0.875000
vt 0.281250 0.843750
vt 0.250000 0.843750
vt 0.281250 0.843750
vt 0.281250 0.875000
vt 0.250000 0.875000
vt 0.687500 0.687500
vt 0.718750 0.687500
vt 0.718750 0.718750
vt 0.687500 0.718750
vt 0.218750 0.843750
vt 0.187500 0.843750
vt 0.187500 0.875000
vt 0.218750 0.875000
vt 0.187500 0.843750
vt 0.187500 0.875000
vt 0.031250 0.812500
vt 0.062500 0.812500
vt 0.062500 0.906250
vt 0.031250 0.906250
vt 0.218750 0.843750
vt 0.187500 0.843750
vt 0.187500 0.843750
vt 0.218750 0.843750
vt 0.218750 0.875000
vt 0.187500 0.875000
vt 0.687500 0.718750
vt 0.718750 0.718750
vt 0.718750 0.750000
vt 0.687500 0.750000
vt 0.250000 0.968750
vt 0.218750 0.968750
vt 0.218750 1.000000
vt 0.250000 1.000000
vt 0.187500 0.843750
vt 0.218750 0.843750
vt 0.218750 0.875000
vt 0.187500 0.875000
vt 0.187500 0.843750
vt 0.218750 0.843750
vt 0.218750 0.875000
vt 0.187500 0.875000
vt 0.218750 0.843750
vt 0.187500 0.843750
vt 0.218750 0.843750
vt 0.218750 0.875000
vt 0.187500 0.875000
vt 0.687500 0.718750
vt 0.718750 0.718750
vt 0.718750 0.750000
vt 0.687500 0.750000
vt 0.218750 0.843750
vt 0.187500 0.843750
vt 0.187500 0.875000
vt 0.218750 0.875000
vt 0.187500 0.843750
vt 0.187500 0.875000
vt 0.218750 0.968750
vt 0.250000 0.968750
vt 0.250000 1.000000
vt 0.218750 1.000000
vt 0.218750 0.843750
vt 0.187500 0.843750
vt 0.187500 0.843750
vt 0.218750 0.843750
vt 0.218750 0.875000
vt 0.187500 0.875000
vt 0.687500 0.718750
vt 0.718750 0.718750
vt 0.718750 0.750000
vt 0.687500 0.750000
vt 0.218750 0.843750
vt 0.187500 0.843750
vt 0.187500 0.875000
vt 0.218750 0.875000
vt 0.187500 0.843750
vt 0.187500 0.875000
vt 0.187500 0.843750
vt 0.218750 0.843750
vt 0.218750 0.875000
vt 0.187500 0.875000
vt 0.218750 0.843750
vt 0.187500 0.843750
vt 0.218750 0.968750
vt 0.250000 0.968750
vt 0.250000 1.000000
vt 0.218750 1.000000
vt 0.687500 0.718750
vt 0.718750 0.718750
vt 0.718750 0.750000
vt 0.687500 0.750000
vt 0.218750 0.843750
vt 0.187500 0.843750
vt 0.187500 0.875000
vt 0.218750 0.875000
vt 0.187500 0.843750
vt 0.187500 0.875000
vt 0.187500 0.843750
vt 0.218750 0.843750
vt 0.218750 0.875000
vt 0.187500 0.875000
vt 0.218750 1.000000
vt 0.250000 1.000000
vt 0.250000 0.968750
vt 0.218750 0.968750
vt 0.218750 0.843750
vt 0.218750 0.875000
vt 0.187500 0.875000
vt 0.687500 0.687500
vt 0.718750 0.687500
vt 0.718750 0.718750
vt 0.687500 0.718750
vt 0.062500 0.812500
vt 0.031250 0.812500
vt 0.031250 0.906250
vt 0.062500 0.906250
vt 0.187500 0.843750
vt 0.218750 0.843750
vt 0.218750 0.875000
vt 0.187500 0.875000
vt 0.187500 0.843750
vt 0.218750 0.843750
vt 0.218750 0.875000
vt 0.187500 0.875000
vt 0.218750 0.843750
vt 0.187500 0.843750
vt 0.218750 0.843750
vt 0.218750 0.875000
vt 0.187500 0.875000
vt 0.687500 0.687500
vt 0.718750 0.687500
vt 0.718750 0.718750
vt 0.687500 0.718750
vt 0.062500 0.781250
vt 0.031250 0.781250
vt 0.031250 0.812500
vt 0.062500 0.812500
vt 0.187500 0.843750
vt 0.218750 0.843750
vt 0.218750 0.875000
vt 0.187500 0.875000
vt 0.031250 0.781250
vt 0.062500 0.781250
vt 0.062500 0.812500
vt 0.031250 0.812500
vt 0.031250 0.812500
vt 0.062500 0.781250
vt 0.031250 0.781250
vt 0.687500 0.031250
vt 0.781250 0.031250
vt 0.781250 0.062500
vt 0.687500 0.062500
vt 0.375000 0.718750
vt 0.406250 0.718750
vt 0.406250 0.750000
vt 0.375000 0.750000
vt 0.437500 0.718750
vt 0.437500 0.750000
vt 0.406250 0.718750
vt 0.406250 0.750000
vt 0.375000 0.718750
vt 0.437500 0.718750
vt 0.437500 0.750000
vt 0.375000 0.750000
vt 0.375000 0.750000
vt 0.406250 0.750000
vt 0.406250 0.718750
vt 0.375000 0.718750
vt 0.406250 0.718750
vt 0.406250 0.750000
vt 0.375000 0.750000
vn -1.0000 0.0000 -0.0000
vn 0.0000 0.0000 -1.0000
vn 1.0000 -0.0000 0.0000
vn -0.0000 0.0000 1.0000
vn 0.0000 1.0000 0.0000
vn 0.0000 -1.0000 -0.0000
usemtl m_e3435c59-8ca2-625d-0416-4a573ee6de35
s 1
f 1/1/1 2/2/1 3/3/1 4/4/1
f 5/5/2 1/1/2 4/4/2 6/6/2
f 7/7/3 5/5/3 6/6/3 8/8/3
f 2/9/4 7/10/4 8/11/4 3/12/4
f 8/13/5 6/14/5 4/15/5 3/16/5
f 2/9/6 1/17/6 5/18/6 7/19/6
f 9/20/1 10/21/1 11/22/1 12/23/1
f 13/24/2 9/20/2 12/23/2 14/25/2
f 15/26/3 13/24/3 14/25/3 16/27/3
f 10/28/4 15/29/4 16/30/4 11/31/4
f 16/32/5 14/33/5 12/34/5 11/35/5
f 10/28/6 9/36/6 13/37/6 15/38/6
f 17/39/1 18/40/1 19/41/1 20/42/1
f 21/43/2 17/39/2 20/42/2 22/44/2
f 23/45/3 21/43/3 22/44/3 24/46/3
f 18/47/4 23/48/4 24/49/4 19/50/4
f 24/51/5 22/52/5 20/53/5 19/54/5
f 18/47/6 17/55/6 21/56/6 23/57/6
f 25/58/1 26/59/1 27/60/1 28/61/1
f 29/62/2 25/58/2 28/61/2 30/63/2
f 31/64/3 29/62/3 30/63/3 32/65/3
f 26/66/4 31/67/4 32/68/4 27/69/4
f 32/70/5 30/71/5 28/72/5 27/73/5
f 26/66/6 25/74/6 29/75/6 31/76/6
f 33/77/1 34/78/1 35/79/1 36/80/1
f 37/81/2 33/82/2 36/83/2 38/84/2
f 39/85/3 37/86/3 38/87/3 40/88/3
f 34/89/4 39/90/4 40/91/4 35/92/4
f 40/93/5 38/94/5 36/95/5 35/96/5
f 34/97/6 33/98/6 37/99/6 39/100/6
f 41/101/1 42/102/1 43/103/1 44/104/1
f 45/105/2 41/106/2 44/107/2 46/108/2
f 47/109/3 45/110/3 46/111/3 48/112/3
f 42/113/4 47/114/4 48/115/4 43/116/4
f 48/117/5 46/118/5 44/119/5 43/120/5
f 42/113/6 41/121/6 45/122/6 47/123/6
f 49/124/1 50/125/1 51/126/1 52/127/1
f 53/128/2 49/129/2 52/130/2 54/131/2
f 55/132/3 53/133/3 54/134/3 56/135/3
f 50/136/4 55/137/4 56/138/4 51/139/4
f 56/140/5 54/141/5 52/142/5 51/143/5
f 50/144/6 49/145/6 53/146/6 55/147/6
f 57/148/1 58/149/1 59/150/1 60/151/1
f 61/152/2 57/148/2 60/151/2 62/153/2
f 63/154/3 61/152/3 62/153/3 64/155/3
f 58/156/4 63/157/4 64/158/4 59/159/4
f 64/155/5 62/153/5 60/160/5 59/161/5
f 58/156/6 57/162/6 61/163/6 63/164/6
f 65/165/1 66/166/1 67/167/1 68/168/1
f 69/169/2 65/170/2 68/171/2 70/172/2
f 71/173/3 69/169/3 70/172/3 72/174/3
f 66/175/4 71/176/4 72/177/4 67/178/4
f 72/174/5 70/172/5 68/179/5 67/180/5
f 66/181/6 65/182/6 69/183/6 71/184/6
f 73/185/1 74/186/1 75/187/1 76/188/1
f 77/189/2 73/190/2 76/191/2 78/192/2
f 79/193/3 77/194/3 78/195/3 80/196/3
f 74/197/4 79/198/4 80/199/4 75/200/4
f 80/196/5 78/195/5 76/201/5 75/202/5
f 74/197/6 73/203/6 77/204/6 79/205/6
f 81/206/1 82/207/1 83/208/1 84/209/1
f 85/210/2 81/211/2 84/212/2 86/213/2
f 87/214/3 85/210/3 86/213/3 88/215/3
f 82/216/4 87/217/4 88/218/4 83/219/4
f 88/215/5 86/213/5 84/220/5 83/221/5
f 82/222/6 81/223/6 85/224/6 87/225/6
f 89/226/1 90/227/1 91/228/1 92/229/1
f 93/230/2 89/231/2 92/232/2 94/233/2
f 95/234/3 93/230/3 94/233/3 96/235/3
f 90/236/4 95/237/4 96/238/4 91/239/4
f 96/235/5 94/233/5 92/240/5 91/241/5
f 90/242/6 89/243/6 93/244/6 95/245/6
f 97/246/1 98/247/1 99/248/1 100/249/1
f 101/250/2 97/251/2 100/252/2 102/253/2
f 103/254/3 101/250/3 102/253/3 104/255/3
f 98/256/4 103/257/4 104/258/4 99/259/4
f 104/260/5 102/261/5 100/262/5 99/263/5
f 98/256/6 97/264/6 101/265/6 103/266/6
f 105/267/1 106/268/1 107/269/1 108/270/1
f 109/271/2 105/272/2 108/273/2 110/274/2
f 111/275/3 109/276/3 110/277/3 112/278/3
f 106/279/4 111/280/4 112/281/4 107/282/4
f 112/278/5 110/277/5 108/283/5 107/284/5
f 106/279/6 105/285/6 109/286/6 111/287/6
f 113/288/1 114/289/1 115/290/1 116/291/1
f 117/292/2 113/293/2 116/294/2 118/295/2
f 119/296/3 117/297/3 118/298/3 120/299/3
f 114/300/4 119/301/4 120/302/4 115/303/4
f 120/304/5 118/295/5 116/305/5 115/306/5
f 114/307/6 113/308/6 117/309/6 119/310/6
f 121/311/1 122/312/1 123/313/1 124/314/1
f 125/315/2 121/311/2 124/314/2 126/316/2
f 127/317/3 125/315/3 126/316/3 128/318/3
f 122/319/4 127/320/4 128/321/4 123/322/4
f 128/323/5 126/324/5 124/325/5 123/326/5
f 122/319/6 121/327/6 125/328/6 127/329/6
o scopeModel
v -7.921653 0.777145 -0.000055
v -7.921653 0.528078 -0.342868
v -7.921653 0.125077 -0.211925
v -7.921653 0.056236 -0.000055
v -7.921653 0.125077 0.211815
v -7.921653 0.305304 0.342757
v -7.921653 0.528077 0.342757
v -7.921653 0.708304 0.211815
v -7.921653 0.708305 -0.211925
v -7.921653 0.305305 -0.342868
vt 0.500000 0.000000
vt 0.024472 0.345491
vt 0.206107 0.904509
vt 0.500000 1.000000
vt 0.793892 0.904508
vt 0.975528 0.654508
vt 0.975528 0.345491
vt 0.793892 0.095491
vt 0.206107 0.095492
vt 0.024472 0.654509
vn -1.0000 -0.0000 0.0000
usemtl Material.036
s off
f 129/330/7 130/331/7 131/332/7
f 131/332/7 132/333/7 133/334/7
f 133/334/7 134/335/7 135/336/7
f 135/336/7 136/337/7 129/330/7
f 129/330/7 137/338/7 130/331/7
f 130/331/7 138/339/7 131/332/7
f 131/332/7 133/334/7 135/336/7
f 135/336/7 129/330/7 131/332/7
o overlayModel
v -7.945480 0.777145 -0.000055
v -7.945480 0.528078 -0.342868
v -7.945480 0.125077 -0.211925
v -7.945480 0.056236 -0.000055
v -7.945480 0.125077 0.211815
v -7.945480 0.305304 0.342757
v -7.945480 0.528077 0.342757
v -7.945480 0.708304 0.211815
v -7.945480 0.708305 -0.211925
v -7.945480 0.305305 -0.342868
vt 0.500000 0.000000
vt 0.975528 0.345491
vt 0.793893 0.904509
vt 0.500000 1.000000
vt 0.206108 0.904508
vt 0.024472 0.654508
vt 0.024472 0.345491
vt 0.206108 0.095491
vt 0.793893 0.095492
vt 0.975528 0.654509
vn -1.0000 0.0000 0.0000
usemtl Material.048
s off
f 139/340/8 140/341/8 141/342/8
f 141/342/8 142/343/8 143/344/8
f 143/344/8 144/345/8 145/346/8
f 145/346/8 146/347/8 139/340/8
f 139/340/8 147/348/8 140/341/8
f 140/341/8 148/349/8 141/342/8
f 141/342/8 143/344/8 145/346/8
f 145/346/8 139/340/8 141/342/8
