# Blender v2.80 (sub 75) OBJ File: ''
# www.blender.org
mtllib scopeqbu88x.mtl
o attachmentModel
v -4.529592 -0.497975 -0.156239
v -4.529592 -0.497975 0.156261
v -4.529592 -0.185475 0.156261
v -4.529592 -0.185475 -0.156239
v -4.217092 -0.497975 -0.156239
v -4.217092 -0.185475 -0.156239
v -4.217092 -0.497975 0.156261
v -4.217092 -0.185475 0.156261
v -3.279592 -0.497975 -0.156239
v -3.279592 -0.497975 0.156261
v -3.279592 -0.185475 0.156261
v -3.279592 -0.185475 -0.156239
v -2.967092 -0.497975 -0.156239
v -2.967092 -0.185475 -0.156239
v -2.967092 -0.497975 0.156261
v -2.967092 -0.185475 0.156261
v -4.842092 -0.185475 -0.156239
v -4.842092 -0.185475 0.156261
v -4.842092 0.439525 0.156261
v -4.842092 0.439525 -0.156239
v -2.967092 -0.185475 -0.156239
v -2.967092 0.439525 -0.156239
v -2.967092 -0.185475 0.156261
v -2.967092 0.439525 0.156261
v -5.779592 -0.185475 -0.468739
v -5.779592 -0.185475 0.468761
v -5.779592 0.752025 0.468761
v -5.779592 0.752025 -0.468739
v -4.842092 -0.185475 -0.468739
v -4.842092 0.752025 -0.468739
v -4.842092 -0.185475 0.468761
v -4.842092 0.752025 0.468761
v -2.967092 -0.185475 -0.468739
v -2.967092 -0.185475 0.468761
v -2.967092 0.752025 0.468761
v -2.967092 0.752025 -0.468739
v -1.404592 -0.185476 -0.468738
v -1.404592 0.752024 -0.468738
v -1.404592 -0.185476 0.468762
v -1.404592 0.752024 0.468762
v -6.092092 0.517650 -0.234364
v -6.092092 0.517650 0.234386
v -6.092092 0.752025 0.234386
v -6.092092 0.752025 -0.234364
v -5.779592 0.517650 -0.234364
v -5.779592 0.752025 -0.234364
v -5.779592 0.517650 0.234386
v -5.779592 0.752025 0.234386
v -6.092092 -0.185475 0.234386
v -6.092092 -0.185475 0.468761
v -6.092092 0.752025 0.468761
v -6.092092 0.752025 0.234386
v -5.779592 -0.185475 0.234386
v -5.779592 0.752025 0.234386
v -5.779592 -0.185475 0.468761
v -5.779592 0.752025 0.468761
v -6.092092 -0.185475 -0.468739
v -6.092092 -0.185475 -0.234364
v -6.092092 0.752025 -0.234364
v -6.092092 0.752025 -0.468739
v -5.779592 -0.185475 -0.468739
v -5.779592 0.752025 -0.468739
v -5.779592 -0.185475 -0.234364
v -5.779592 0.752025 -0.234364
v -6.092092 -0.185475 -0.234364
v -6.092092 -0.185475 0.234386
v -6.092092 0.048900 0.234386
v -6.092092 0.048900 -0.234364
v -5.779592 -0.185475 -0.234364
v -5.779592 0.048900 -0.234364
v -5.779592 -0.185475 0.234386
v -5.779592 0.048900 0.234386
v -4.217092 0.439525 -0.156239
v -4.217092 0.439525 0.156261
v -4.217092 0.752025 0.156261
v -4.217092 0.752025 -0.156239
v -3.592092 0.439525 -0.156239
v -3.592092 0.752025 -0.156239
v -3.592092 0.439525 0.156261
v -3.592092 0.752025 0.156261
vt 0.375000 0.687500
vt 0.406250 0.687500
vt 0.406250 0.718750
vt 0.375000 0.718750
vt 0.375000 0.687500
vt 0.406250 0.687500
vt 0.406250 0.718750
vt 0.375000 0.718750
vt 0.375000 0.687500
vt 0.406250 0.687500
vt 0.406250 0.718750
vt 0.375000 0.718750
vt 0.375000 0.687500
vt 0.406250 0.687500
vt 0.406250 0.718750
vt 0.375000 0.718750
vt 0.375000 0.687500
vt 0.406250 0.687500
vt 0.406250 0.718750
vt 0.375000 0.718750
vt 0.500000 0.687500
vt 0.531250 0.687500
vt 0.531250 0.718750
vt 0.500000 0.718750
vt 0.500000 0.687500
vt 0.531250 0.687500
vt 0.531250 0.718750
vt 0.500000 0.718750
vt 0.500000 0.687500
vt 0.531250 0.687500
vt 0.531250 0.718750
vt 0.500000 0.718750
vt 0.500000 0.687500
vt 0.531250 0.687500
vt 0.531250 0.718750
vt 0.500000 0.718750
vt 0.500000 0.687500
vt 0.531250 0.687500
vt 0.531250 0.718750
vt 0.500000 0.718750
vt 0.343750 0.718750
vt 0.375000 0.718750
vt 0.375000 0.781250
vt 0.343750 0.781250
vt 0.531250 0.718750
vt 0.531250 0.781250
vt 0.500000 0.718750
vt 0.500000 0.781250
vt 0.343750 0.718750
vt 0.531250 0.718750
vt 0.531250 0.781250
vt 0.343750 0.781250
vt 0.750000 0.500000
vt 0.781250 0.500000
vt 0.781250 0.312500
vt 0.750000 0.312500
vt 0.625000 0.343750
vt 0.656250 0.343750
vt 0.656250 0.531250
vt 0.625000 0.531250
vt 0.312500 0.750000
vt 0.343750 0.750000
vt 0.343750 0.781250
vt 0.312500 0.781250
vt 0.343750 0.718750
vt 0.250000 0.718750
vt 0.250000 0.812500
vt 0.343750 0.812500
vt 0.312500 0.750000
vt 0.343750 0.750000
vt 0.343750 0.781250
vt 0.312500 0.781250
vt 0.250000 0.718750
vt 0.343750 0.718750
vt 0.343750 0.812500
vt 0.250000 0.812500
vt 0.625000 0.343750
vt 0.718750 0.343750
vt 0.718750 0.250000
vt 0.625000 0.250000
vt 0.625000 0.250000
vt 0.718750 0.250000
vt 0.718750 0.343750
vt 0.625000 0.343750
vt 0.531250 0.750000
vt 0.562500 0.750000
vt 0.562500 0.781250
vt 0.531250 0.781250
vt 0.687500 0.718750
vt 0.531250 0.718750
vt 0.531250 0.812500
vt 0.687500 0.812500
vt 0.093750 0.718750
vt 0.187500 0.718750
vt 0.187500 0.812500
vt 0.093750 0.812500
vt 0.531250 0.718750
vt 0.687500 0.718750
vt 0.687500 0.812500
vt 0.531250 0.812500
vt 0.625000 0.687500
vt 0.718750 0.687500
vt 0.718750 0.531250
vt 0.625000 0.531250
vt 0.625000 0.531250
vt 0.718750 0.531250
vt 0.718750 0.687500
vt 0.625000 0.687500
vt 0.156250 0.781250
vt 0.187500 0.781250
vt 0.187500 0.812500
vt 0.156250 0.812500
vt 0.375000 0.687500
vt 0.343750 0.687500
vt 0.343750 0.718750
vt 0.375000 0.718750
vt 0.343750 0.687500
vt 0.343750 0.718750
vt 0.343750 0.687500
vt 0.375000 0.687500
vt 0.375000 0.718750
vt 0.343750 0.718750
vt 0.218750 0.812500
vt 0.250000 0.812500
vt 0.250000 0.781250
vt 0.218750 0.781250
vt 0.218750 0.968750
vt 0.250000 0.968750
vt 0.250000 1.000000
vt 0.218750 1.000000
vt 0.156250 0.781250
vt 0.187500 0.781250
vt 0.187500 0.812500
vt 0.156250 0.812500
vt 0.250000 0.968750
vt 0.218750 0.968750
vt 0.218750 1.000000
vt 0.250000 1.000000
vt 0.343750 0.687500
vt 0.375000 0.687500
vt 0.375000 0.718750
vt 0.343750 0.718750
vt 0.218750 0.718750
vt 0.250000 0.718750
vt 0.250000 0.812500
vt 0.218750 0.812500
vt 0.218750 0.812500
vt 0.250000 0.812500
vt 0.250000 0.781250
vt 0.218750 0.781250
vt 0.250000 0.718750
vt 0.250000 0.750000
vt 0.218750 0.750000
vt 0.156250 0.781250
vt 0.187500 0.781250
vt 0.187500 0.812500
vt 0.156250 0.812500
vt 0.250000 0.718750
vt 0.218750 0.718750
vt 0.218750 0.812500
vt 0.250000 0.812500
vt 0.343750 0.687500
vt 0.375000 0.687500
vt 0.375000 0.718750
vt 0.343750 0.718750
vt 0.218750 0.968750
vt 0.250000 0.968750
vt 0.250000 1.000000
vt 0.218750 1.000000
vt 0.218750 0.812500
vt 0.250000 0.781250
vt 0.218750 0.781250
vt 0.218750 0.718750
vt 0.250000 0.718750
vt 0.250000 0.750000
vt 0.218750 0.750000
vt 0.156250 0.781250
vt 0.187500 0.781250
vt 0.187500 0.812500
vt 0.156250 0.812500
vt 0.375000 0.687500
vt 0.343750 0.687500
vt 0.343750 0.718750
vt 0.375000 0.718750
vt 0.343750 0.687500
vt 0.343750 0.718750
vt 0.343750 0.687500
vt 0.375000 0.687500
vt 0.375000 0.718750
vt 0.343750 0.718750
vt 0.218750 1.000000
vt 0.250000 1.000000
vt 0.250000 0.968750
vt 0.218750 0.968750
vt 0.218750 0.718750
vt 0.250000 0.718750
vt 0.250000 0.750000
vt 0.218750 0.750000
vt 0.406250 0.781250
vt 0.437500 0.781250
vt 0.437500 0.812500
vt 0.406250 0.812500
vt 0.468750 0.781250
vt 0.468750 0.812500
vt 0.437500 0.781250
vt 0.437500 0.812500
vt 0.406250 0.781250
vt 0.468750 0.781250
vt 0.468750 0.812500
vt 0.406250 0.812500
vt 0.687500 0.468750
vt 0.718750 0.468750
vt 0.718750 0.406250
vt 0.687500 0.406250
vt 0.687500 0.406250
vt 0.718750 0.406250
vt 0.718750 0.468750
vt 0.687500 0.468750
vn -1.0000 0.0000 0.0000
vn 0.0000 0.0000 -1.0000
vn 1.0000 0.0000 0.0000
vn -0.0000 0.0000 1.0000
vn 0.0000 1.0000 0.0000
vn 0.0000 -1.0000 0.0000
usemtl m_a18263bb-6c71-8dcf-1eec-8685a754ff7e
s 1
f 1/1/1 2/2/1 3/3/1 4/4/1
f 5/5/2 1/6/2 4/7/2 6/8/2
f 7/9/3 5/10/3 6/11/3 8/12/3
f 2/13/4 7/14/4 8/15/4 3/16/4
f 8/17/5 6/18/5 4/7/5 3/16/5
f 2/13/6 1/6/6 5/19/6 7/20/6
f 9/21/1 10/22/1 11/23/1 12/24/1
f 13/25/2 9/26/2 12/27/2 14/28/2
f 15/29/3 13/30/3 14/31/3 16/32/3
f 10/33/4 15/34/4 16/35/4 11/36/4
f 16/37/5 14/38/5 12/27/5 11/36/5
f 10/33/6 9/26/6 13/39/6 15/40/6
f 17/41/1 18/42/1 19/43/1 20/44/1
f 21/45/2 17/41/2 20/44/2 22/46/2
f 23/47/3 21/45/3 22/46/3 24/48/3
f 18/49/4 23/50/4 24/51/4 19/52/4
f 24/53/5 22/54/5 20/55/5 19/56/5
f 18/57/6 17/58/6 21/59/6 23/60/6
f 25/61/1 26/62/1 27/63/1 28/64/1
f 29/65/2 25/66/2 28/67/2 30/68/2
f 31/69/3 29/70/3 30/71/3 32/72/3
f 26/73/4 31/74/4 32/75/4 27/76/4
f 32/77/5 30/78/5 28/79/5 27/80/5
f 26/81/6 25/82/6 29/83/6 31/84/6
f 33/85/1 34/86/1 35/87/1 36/88/1
f 37/89/2 33/90/2 36/91/2 38/92/2
f 39/93/3 37/94/3 38/95/3 40/96/3
f 34/97/4 39/98/4 40/99/4 35/100/4
f 40/101/5 38/102/5 36/103/5 35/104/5
f 34/105/6 33/106/6 37/107/6 39/108/6
f 41/109/1 42/110/1 43/111/1 44/112/1
f 45/113/2 41/114/2 44/115/2 46/116/2
f 47/117/3 45/113/3 46/116/3 48/118/3
f 42/119/4 47/120/4 48/121/4 43/122/4
f 48/123/5 46/124/5 44/125/5 43/126/5
f 42/127/6 41/128/6 45/129/6 47/130/6
f 49/131/1 50/132/1 51/133/1 52/134/1
f 53/135/2 49/136/2 52/137/2 54/138/2
f 55/139/3 53/140/3 54/141/3 56/142/3
f 50/143/4 55/144/4 56/145/4 51/146/4
f 56/147/5 54/148/5 52/149/5 51/150/5
f 50/143/6 49/151/6 53/152/6 55/153/6
f 57/154/1 58/155/1 59/156/1 60/157/1
f 61/158/2 57/159/2 60/160/2 62/161/2
f 63/162/3 61/163/3 62/164/3 64/165/3
f 58/166/4 63/167/4 64/168/4 59/169/4
f 64/170/5 62/161/5 60/171/5 59/172/5
f 58/173/6 57/174/6 61/175/6 63/176/6
f 65/177/1 66/178/1 67/179/1 68/180/1
f 69/181/2 65/182/2 68/183/2 70/184/2
f 71/185/3 69/181/3 70/184/3 72/186/3
f 66/187/4 71/188/4 72/189/4 67/190/4
f 72/191/5 70/192/5 68/193/5 67/194/5
f 66/195/6 65/196/6 69/197/6 71/198/6
f 73/199/1 74/200/1 75/201/1 76/202/1
f 77/203/2 73/199/2 76/202/2 78/204/2
f 79/205/3 77/203/3 78/204/3 80/206/3
f 74/207/4 79/208/4 80/209/4 75/210/4
f 80/211/5 78/212/5 76/213/5 75/214/5
f 74/215/6 73/216/6 77/217/6 79/218/6
o scopeModel
v -6.024970 0.641375 0.000483
v -6.024970 0.394915 -0.338738
v -6.024970 -0.003863 -0.209167
v -6.024970 -0.071983 0.000484
v -6.024970 -0.003863 0.210134
v -6.024970 0.174476 0.339704
v -6.024970 0.394916 0.339704
v -6.024970 0.573255 0.210134
v -6.024970 0.573255 -0.209167
v -6.024970 0.174476 -0.338738
vt 0.500000 0.000000
vt 0.024472 0.345491
vt 0.206107 0.904509
vt 0.500000 1.000000
vt 0.793892 0.904508
vt 0.975528 0.654508
vt 0.975528 0.345491
vt 0.793892 0.095491
vt 0.206107 0.095492
vt 0.024472 0.654509
vn -1.0000 0.0000 0.0000
usemtl Material.036
s off
f 81/219/7 82/220/7 83/221/7
f 83/221/7 84/222/7 85/223/7
f 85/223/7 86/224/7 87/225/7
f 87/225/7 88/226/7 81/219/7
f 81/219/7 89/227/7 82/220/7
f 82/220/7 90/228/7 83/221/7
f 83/221/7 85/223/7 87/225/7
f 87/225/7 81/219/7 83/221/7
o overlayModel
v -6.048546 0.641375 0.000483
v -6.048546 0.394915 -0.338738
v -6.048546 -0.003863 -0.209167
v -6.048546 -0.071983 0.000484
v -6.048546 -0.003863 0.210134
v -6.048546 0.174476 0.339704
v -6.048546 0.394916 0.339704
v -6.048546 0.573255 0.210134
v -6.048546 0.573255 -0.209167
v -6.048546 0.174476 -0.338738
vt 0.500000 0.000000
vt 0.975528 0.345491
vt 0.793893 0.904509
vt 0.500000 1.000000
vt 0.206108 0.904508
vt 0.024472 0.654508
vt 0.024472 0.345491
vt 0.206108 0.095491
vt 0.793893 0.095492
vt 0.975528 0.654509
vn -1.0000 0.0000 0.0000
usemtl Material.048
s off
f 91/229/8 92/230/8 93/231/8
f 93/231/8 94/232/8 95/233/8
f 95/233/8 96/234/8 97/235/8
f 97/235/8 98/236/8 91/229/8
f 91/229/8 99/237/8 92/230/8
f 92/230/8 100/238/8 93/231/8
f 93/231/8 95/233/8 97/235/8
f 97/235/8 91/229/8 93/231/8
