# Blender v2.80 (sub 75) OBJ File: ''
# www.blender.org
mtllib scopescoutx.mtl
o attachmentModel
v -2.929374 -0.411499 -0.156228
v -2.929374 -0.411499 0.156272
v -2.929374 -0.099000 0.156272
v -2.929373 -0.099000 -0.156228
v -2.616873 -0.411500 -0.156228
v -2.616873 -0.099000 -0.156228
v -2.616873 -0.411500 0.156272
v -2.616873 -0.099000 0.156272
v -0.741873 -0.411500 -0.156228
v -0.741873 -0.411500 0.156272
v -0.741873 -0.099000 0.156272
v -0.741873 -0.099000 -0.156228
v -0.429373 -0.411500 -0.156228
v -0.429373 -0.099000 -0.156228
v -0.429373 -0.411500 0.156272
v -0.429373 -0.099000 0.156272
v -3.241873 -0.098999 -0.468728
v -3.241874 -0.098999 0.468772
v -3.241873 0.526001 0.468772
v -3.241873 0.526001 -0.468728
v -0.429373 -0.099000 -0.468728
v -0.429373 0.526000 -0.468728
v -0.429373 -0.099000 0.468772
v -0.429373 0.526000 0.468772
v -4.179373 -0.098999 -0.468728
v -4.179374 -0.098999 0.468772
v -4.179373 0.838501 0.468772
v -4.179373 0.838501 -0.468728
v -3.241873 -0.098999 -0.468728
v -3.241873 0.838501 -0.468728
v -3.241874 -0.098999 0.468772
v -3.241873 0.838501 0.468772
v -0.429373 -0.099000 -0.468728
v -0.429373 -0.099000 0.468772
v -0.429373 0.838500 0.468772
v -0.429373 0.838500 -0.468728
v 0.820627 -0.099000 -0.468728
v 0.820627 0.838500 -0.468728
v 0.820627 -0.099000 0.468772
v 0.820627 0.838500 0.468772
v -1.991873 0.526000 -0.156228
v -1.991873 0.526000 0.156272
v -1.991873 0.838500 0.156272
v -1.991873 0.838500 -0.156228
v -1.366873 0.526000 -0.156228
v -1.366873 0.838500 -0.156228
v -1.366873 0.526000 0.156272
v -1.366873 0.838500 0.156272
v -4.491874 -0.098999 0.234396
v -4.491874 -0.098999 0.468772
v -4.491873 0.838501 0.468772
v -4.491873 0.838501 0.234396
v -4.179374 -0.098999 0.234397
v -4.179373 0.838501 0.234397
v -4.179374 -0.098999 0.468772
v -4.179373 0.838501 0.468772
v -4.491873 -0.098999 -0.468728
v -4.491873 -0.098999 -0.234353
v -4.491873 0.838501 -0.234353
v -4.491873 0.838501 -0.468728
v -4.179373 -0.098999 -0.468728
v -4.179373 0.838501 -0.468728
v -4.179373 -0.098999 -0.234353
v -4.179373 0.838501 -0.234353
v -4.491873 0.604126 -0.234353
v -4.491873 0.604126 0.234396
v -4.491873 0.838501 0.234396
v -4.491873 0.838501 -0.234353
v -4.179373 0.604126 -0.234353
v -4.179373 0.838501 -0.234353
v -4.179373 0.604126 0.234397
v -4.179373 0.838501 0.234397
v -4.491873 -0.098999 -0.234353
v -4.491874 -0.098999 0.234396
v -4.491873 0.135376 0.234396
v -4.491873 0.135376 -0.234353
v -4.179373 -0.098999 -0.234353
v -4.179373 0.135376 -0.234353
v -4.179374 -0.098999 0.234397
v -4.179373 0.135376 0.234397
vt 0.375000 0.687500
vt 0.406250 0.687500
vt 0.406250 0.718750
vt 0.375000 0.718750
vt 0.406250 0.687500
vt 0.406250 0.718750
vt 0.375000 0.687500
vt 0.375000 0.718750
vt 0.375000 0.687500
vt 0.406250 0.687500
vt 0.406250 0.718750
vt 0.375000 0.718750
vt 0.406250 0.687500
vt 0.375000 0.687500
vt 0.406250 0.687500
vt 0.406250 0.718750
vt 0.375000 0.718750
vt 0.593750 0.687500
vt 0.625000 0.687500
vt 0.625000 0.718750
vt 0.593750 0.718750
vt 0.625000 0.687500
vt 0.625000 0.718750
vt 0.593750 0.687500
vt 0.593750 0.718750
vt 0.593750 0.687500
vt 0.625000 0.687500
vt 0.625000 0.718750
vt 0.593750 0.718750
vt 0.625000 0.687500
vt 0.593750 0.687500
vt 0.625000 0.687500
vt 0.625000 0.718750
vt 0.593750 0.718750
vt 0.343750 0.718750
vt 0.375000 0.718750
vt 0.375000 0.781250
vt 0.343750 0.781250
vt 0.625000 0.718750
vt 0.625000 0.781250
vt 0.593750 0.718750
vt 0.593750 0.781250
vt 0.343750 0.718750
vt 0.625000 0.718750
vt 0.625000 0.781250
vt 0.343750 0.781250
vt 0.656250 0.468750
vt 0.750000 0.468750
vt 0.750000 0.187500
vt 0.656250 0.187500
vt 0.531250 0.187500
vt 0.625000 0.187500
vt 0.625000 0.468750
vt 0.531250 0.468750
vt 0.125000 0.781250
vt 0.156250 0.781250
vt 0.156250 0.812500
vt 0.125000 0.812500
vt 0.343750 0.718750
vt 0.250000 0.718750
vt 0.250000 0.812500
vt 0.343750 0.812500
vt 0.125000 0.781250
vt 0.156250 0.781250
vt 0.156250 0.812500
vt 0.125000 0.812500
vt 0.250000 0.718750
vt 0.343750 0.718750
vt 0.343750 0.812500
vt 0.250000 0.812500
vt 0.656250 0.187500
vt 0.750000 0.187500
vt 0.750000 0.093750
vt 0.656250 0.093750
vt 0.531250 0.093750
vt 0.625000 0.093750
vt 0.625000 0.187500
vt 0.531250 0.187500
vt 0.125000 0.781250
vt 0.156250 0.781250
vt 0.156250 0.812500
vt 0.125000 0.812500
vt 0.750000 0.718750
vt 0.625000 0.718750
vt 0.625000 0.812500
vt 0.750000 0.812500
vt 0.062500 0.718750
vt 0.156250 0.718750
vt 0.156250 0.812500
vt 0.062500 0.812500
vt 0.625000 0.718750
vt 0.750000 0.718750
vt 0.750000 0.812500
vt 0.625000 0.812500
vt 0.656250 0.593750
vt 0.750000 0.593750
vt 0.750000 0.468750
vt 0.656250 0.468750
vt 0.531250 0.468750
vt 0.625000 0.468750
vt 0.625000 0.593750
vt 0.531250 0.593750
vt 0.468750 0.781250
vt 0.500000 0.781250
vt 0.500000 0.812500
vt 0.468750 0.812500
vt 0.531250 0.781250
vt 0.531250 0.812500
vt 0.500000 0.781250
vt 0.500000 0.812500
vt 0.468750 0.781250
vt 0.531250 0.781250
vt 0.531250 0.812500
vt 0.468750 0.812500
vt 0.687500 0.375000
vt 0.718750 0.375000
vt 0.718750 0.312500
vt 0.687500 0.312500
vt 0.687500 0.312500
vt 0.718750 0.312500
vt 0.718750 0.375000
vt 0.687500 0.375000
vt 0.125000 0.781250
vt 0.156250 0.781250
vt 0.156250 0.812500
vt 0.125000 0.812500
vt 0.250000 0.968750
vt 0.218750 0.968750
vt 0.218750 1.000000
vt 0.250000 1.000000
vt 0.125000 0.781250
vt 0.156250 0.781250
vt 0.156250 0.812500
vt 0.125000 0.812500
vt 0.218750 0.718750
vt 0.250000 0.718750
vt 0.250000 0.812500
vt 0.218750 0.812500
vt 0.218750 0.812500
vt 0.250000 0.812500
vt 0.250000 0.781250
vt 0.218750 0.781250
vt 0.250000 0.718750
vt 0.250000 0.750000
vt 0.218750 0.750000
vt 0.125000 0.781250
vt 0.156250 0.781250
vt 0.156250 0.812500
vt 0.125000 0.812500
vt 0.250000 0.718750
vt 0.218750 0.718750
vt 0.218750 0.812500
vt 0.250000 0.812500
vt 0.343750 0.781250
vt 0.375000 0.781250
vt 0.375000 0.812500
vt 0.343750 0.812500
vt 0.218750 0.968750
vt 0.250000 0.968750
vt 0.250000 1.000000
vt 0.218750 1.000000
vt 0.218750 0.812500
vt 0.250000 0.781250
vt 0.218750 0.781250
vt 0.218750 0.718750
vt 0.250000 0.718750
vt 0.250000 0.750000
vt 0.218750 0.750000
vt 0.125000 0.781250
vt 0.156250 0.781250
vt 0.156250 0.812500
vt 0.125000 0.812500
vt 0.375000 0.781250
vt 0.343750 0.781250
vt 0.343750 0.812500
vt 0.375000 0.812500
vt 0.343750 0.781250
vt 0.343750 0.812500
vt 0.343750 0.781250
vt 0.375000 0.781250
vt 0.375000 0.812500
vt 0.343750 0.812500
vt 0.687500 0.093750
vt 0.718750 0.093750
vt 0.718750 0.062500
vt 0.687500 0.062500
vt 0.218750 0.968750
vt 0.250000 0.968750
vt 0.250000 1.000000
vt 0.218750 1.000000
vt 0.125000 0.781250
vt 0.156250 0.781250
vt 0.156250 0.812500
vt 0.125000 0.812500
vt 0.375000 0.781250
vt 0.343750 0.781250
vt 0.343750 0.812500
vt 0.375000 0.812500
vt 0.343750 0.781250
vt 0.343750 0.812500
vt 0.343750 0.781250
vt 0.375000 0.781250
vt 0.375000 0.812500
vt 0.343750 0.812500
vt 0.218750 1.000000
vt 0.250000 1.000000
vt 0.250000 0.968750
vt 0.218750 0.968750
vt 0.562500 0.062500
vt 0.593750 0.062500
vt 0.593750 0.093750
vt 0.562500 0.093750
vn -1.0000 0.0000 -0.0000
vn 0.0000 0.0000 -1.0000
vn 1.0000 0.0000 0.0000
vn -0.0000 0.0000 1.0000
vn 0.0000 1.0000 0.0000
vn -0.0000 -1.0000 0.0000
usemtl m_87cf15df-4198-0124-91c9-e11a0900c373
s 1
f 1/1/1 2/2/1 3/3/1 4/4/1
f 5/5/2 1/1/2 4/4/2 6/6/2
f 7/7/3 5/5/3 6/6/3 8/8/3
f 2/9/4 7/10/4 8/11/4 3/12/4
f 8/8/5 6/6/5 4/13/5 3/14/5
f 2/9/6 1/15/6 5/16/6 7/17/6
f 9/18/1 10/19/1 11/20/1 12/21/1
f 13/22/2 9/18/2 12/21/2 14/23/2
f 15/24/3 13/22/3 14/23/3 16/25/3
f 10/26/4 15/27/4 16/28/4 11/29/4
f 16/25/5 14/23/5 12/30/5 11/31/5
f 10/26/6 9/32/6 13/33/6 15/34/6
f 17/35/1 18/36/1 19/37/1 20/38/1
f 21/39/2 17/35/2 20/38/2 22/40/2
f 23/41/3 21/39/3 22/40/3 24/42/3
f 18/43/4 23/44/4 24/45/4 19/46/4
f 24/47/5 22/48/5 20/49/5 19/50/5
f 18/51/6 17/52/6 21/53/6 23/54/6
f 25/55/1 26/56/1 27/57/1 28/58/1
f 29/59/2 25/60/2 28/61/2 30/62/2
f 31/63/3 29/64/3 30/65/3 32/66/3
f 26/67/4 31/68/4 32/69/4 27/70/4
f 32/71/5 30/72/5 28/73/5 27/74/5
f 26/75/6 25/76/6 29/77/6 31/78/6
f 33/79/1 34/80/1 35/81/1 36/82/1
f 37/83/2 33/84/2 36/85/2 38/86/2
f 39/87/3 37/88/3 38/89/3 40/90/3
f 34/91/4 39/92/4 40/93/4 35/94/4
f 40/95/5 38/96/5 36/97/5 35/98/5
f 34/99/6 33/100/6 37/101/6 39/102/6
f 41/103/1 42/104/1 43/105/1 44/106/1
f 45/107/2 41/103/2 44/106/2 46/108/2
f 47/109/3 45/107/3 46/108/3 48/110/3
f 42/111/4 47/112/4 48/113/4 43/114/4
f 48/115/5 46/116/5 44/117/5 43/118/5
f 42/119/6 41/120/6 45/121/6 47/122/6
f 49/123/1 50/124/1 51/125/1 52/126/1
f 53/127/2 49/128/2 52/129/2 54/130/2
f 55/131/3 53/132/3 54/133/3 56/134/3
f 50/135/4 55/136/4 56/137/4 51/138/4
f 56/139/5 54/140/5 52/141/5 51/142/5
f 50/135/6 49/143/6 53/144/6 55/145/6
f 57/146/1 58/147/1 59/148/1 60/149/1
f 61/150/2 57/151/2 60/152/2 62/153/2
f 63/154/3 61/155/3 62/156/3 64/157/3
f 58/158/4 63/159/4 64/160/4 59/161/4
f 64/162/5 62/153/5 60/163/5 59/164/5
f 58/165/6 57/166/6 61/167/6 63/168/6
f 65/169/1 66/170/1 67/171/1 68/172/1
f 69/173/2 65/174/2 68/175/2 70/176/2
f 71/177/3 69/173/3 70/176/3 72/178/3
f 66/179/4 71/180/4 72/181/4 67/182/4
f 72/183/5 70/184/5 68/185/5 67/186/5
f 66/187/6 65/188/6 69/189/6 71/190/6
f 73/191/1 74/192/1 75/193/1 76/194/1
f 77/195/2 73/196/2 76/197/2 78/198/2
f 79/199/3 77/195/3 78/198/3 80/200/3
f 74/201/4 79/202/4 80/203/4 75/204/4
f 80/205/5 78/206/5 76/207/5 75/208/5
f 74/209/6 73/210/6 77/211/6 79/212/6
o scopeModel
v -4.427163 0.731366 -0.000379
v -4.427163 0.482298 -0.343192
v -4.427163 0.079298 -0.212249
v -4.427163 0.010457 -0.000379
v -4.427163 0.079298 0.211491
v -4.427163 0.259525 0.342433
v -4.427163 0.482297 0.342433
v -4.427163 0.662525 0.211491
v -4.427163 0.662525 -0.212249
v -4.427163 0.259525 -0.343192
vt 0.500000 0.000000
vt 0.024472 0.345491
vt 0.206107 0.904509
vt 0.500000 1.000000
vt 0.793892 0.904508
vt 0.975528 0.654508
vt 0.975528 0.345491
vt 0.793892 0.095491
vt 0.206107 0.095492
vt 0.024472 0.654509
vn -1.0000 0.0000 0.0000
usemtl Material.036
s off
f 81/213/7 82/214/7 83/215/7
f 83/215/7 84/216/7 85/217/7
f 85/217/7 86/218/7 87/219/7
f 87/219/7 88/220/7 81/213/7
f 81/213/7 89/221/7 82/214/7
f 82/214/7 90/222/7 83/215/7
f 83/215/7 85/217/7 87/219/7
f 87/219/7 81/213/7 83/215/7
o overlayModel
v -4.450990 0.731366 -0.000379
v -4.450990 0.482298 -0.343192
v -4.450990 0.079298 -0.212249
v -4.450990 0.010457 -0.000379
v -4.450990 0.079298 0.211491
v -4.450990 0.259525 0.342433
v -4.450990 0.482297 0.342433
v -4.450990 0.662525 0.211491
v -4.450990 0.662525 -0.212249
v -4.450990 0.259525 -0.343192
vt 0.500000 0.000000
vt 0.975528 0.345491
vt 0.793893 0.904509
vt 0.500000 1.000000
vt 0.206108 0.904508
vt 0.024472 0.654508
vt 0.024472 0.345491
vt 0.206108 0.095491
vt 0.793893 0.095492
vt 0.975528 0.654509
vn -1.0000 0.0000 0.0000
usemtl Material.048
s off
f 91/223/8 92/224/8 93/225/8
f 93/225/8 94/226/8 95/227/8
f 95/227/8 96/228/8 97/229/8
f 97/229/8 98/230/8 91/223/8
f 91/223/8 99/231/8 92/224/8
f 92/224/8 100/232/8 93/225/8
f 93/225/8 95/227/8 97/229/8
f 97/229/8 91/223/8 93/225/8
