# Blender v2.80 (sub 75) OBJ File: ''
# www.blender.org
mtllib scopem14ebrx_2.mtl
o attachmentModel
v -5.265420 -0.523449 -0.156538
v -5.265420 -0.523449 0.155962
v -5.265420 -0.210949 0.155962
v -5.265420 -0.210949 -0.156538
v -4.327920 -0.523449 -0.156538
v -4.327920 -0.210949 -0.156538
v -4.327920 -0.523449 0.155962
v -4.327920 -0.210949 0.155962
v -3.702920 -0.523449 -0.156538
v -3.702920 -0.523449 0.155962
v -3.702920 -0.210949 0.155962
v -3.702920 -0.210949 -0.156538
v -2.765420 -0.523450 -0.156538
v -2.765420 -0.210950 -0.156538
v -2.765420 -0.523450 0.155962
v -2.765420 -0.210950 0.155962
v -5.577920 -0.210949 -0.469038
v -5.577920 -0.210949 0.468462
v -5.577920 0.726551 0.468462
v -5.577920 0.726551 -0.469038
v -2.140420 -0.210950 -0.469038
v -2.140420 0.726550 -0.469038
v -2.140420 -0.210950 0.468462
v -2.140420 0.726550 0.468462
v -5.890420 -0.210949 0.234087
v -5.890420 -0.210949 0.468462
v -5.890420 0.726551 0.468462
v -5.890420 0.726551 0.234087
v -5.577920 -0.210949 0.234087
v -5.577920 0.726551 0.234087
v -5.577920 -0.210949 0.468462
v -5.577920 0.726551 0.468462
v -5.890420 -0.210949 -0.469038
v -5.890420 -0.210949 -0.234663
v -5.890420 0.726551 -0.234663
v -5.890420 0.726551 -0.469038
v -5.577920 -0.210949 -0.469038
v -5.577920 0.726551 -0.469038
v -5.577920 -0.210949 -0.234663
v -5.577920 0.726551 -0.234663
v -5.890420 0.492176 -0.234663
v -5.890420 0.492176 0.234087
v -5.890420 0.726551 0.234087
v -5.890420 0.726551 -0.234663
v -5.577920 0.492176 -0.234663
v -5.577920 0.726551 -0.234663
v -5.577920 0.492176 0.234087
v -5.577920 0.726551 0.234087
v -5.890420 -0.210949 -0.234663
v -5.890420 -0.210949 0.234087
v -5.890420 0.023426 0.234087
v -5.890420 0.023426 -0.234663
v -5.577920 -0.210949 -0.234663
v -5.577920 0.023426 -0.234663
v -5.577920 -0.210949 0.234087
v -5.577920 0.023426 0.234087
vt 0.125000 0.750000
vt 0.156250 0.750000
vt 0.156250 0.781250
vt 0.125000 0.781250
vt 0.218750 0.750000
vt 0.218750 0.781250
vt 0.187500 0.750000
vt 0.187500 0.781250
vt 0.125000 0.750000
vt 0.218750 0.750000
vt 0.218750 0.781250
vt 0.125000 0.781250
vt 0.500000 0.343750
vt 0.531250 0.343750
vt 0.531250 0.250000
vt 0.500000 0.250000
vt 0.500000 0.250000
vt 0.531250 0.250000
vt 0.531250 0.343750
vt 0.500000 0.343750
vt 0.281250 0.750000
vt 0.312500 0.750000
vt 0.312500 0.781250
vt 0.281250 0.781250
vt 0.375000 0.750000
vt 0.375000 0.781250
vt 0.343750 0.750000
vt 0.343750 0.781250
vt 0.281250 0.750000
vt 0.375000 0.750000
vt 0.375000 0.781250
vt 0.281250 0.781250
vt 0.500000 0.500000
vt 0.531250 0.500000
vt 0.531250 0.406250
vt 0.500000 0.406250
vt 0.500000 0.406250
vt 0.531250 0.406250
vt 0.531250 0.500000
vt 0.500000 0.500000
vt 0.093750 0.812500
vt 0.125000 0.812500
vt 0.125000 0.843750
vt 0.093750 0.843750
vt 0.437500 0.781250
vt 0.093750 0.781250
vt 0.093750 0.875000
vt 0.437500 0.875000
vt 0.531250 0.781250
vt 0.625000 0.781250
vt 0.625000 0.875000
vt 0.531250 0.875000
vt 0.093750 0.781250
vt 0.437500 0.781250
vt 0.437500 0.875000
vt 0.093750 0.875000
vt 0.531250 0.562500
vt 0.625000 0.562500
vt 0.625000 0.218750
vt 0.531250 0.218750
vt 0.531250 0.218750
vt 0.625000 0.218750
vt 0.625000 0.562500
vt 0.531250 0.562500
vt 0.531250 0.656250
vt 0.562500 0.656250
vt 0.562500 0.687500
vt 0.531250 0.687500
vt 0.250000 0.968750
vt 0.218750 0.968750
vt 0.218750 1.000000
vt 0.250000 1.000000
vt 0.218750 0.750000
vt 0.250000 0.750000
vt 0.250000 0.781250
vt 0.218750 0.781250
vt 0.062500 0.781250
vt 0.093750 0.781250
vt 0.093750 0.875000
vt 0.062500 0.875000
vt 0.593750 0.218750
vt 0.625000 0.218750
vt 0.625000 0.187500
vt 0.593750 0.187500
vt 0.593750 0.187500
vt 0.625000 0.187500
vt 0.625000 0.218750
vt 0.593750 0.218750
vt 0.531250 0.656250
vt 0.562500 0.656250
vt 0.562500 0.687500
vt 0.531250 0.687500
vt 0.093750 0.781250
vt 0.062500 0.781250
vt 0.062500 0.875000
vt 0.093750 0.875000
vt 0.218750 0.750000
vt 0.250000 0.750000
vt 0.250000 0.781250
vt 0.218750 0.781250
vt 0.218750 0.968750
vt 0.250000 0.968750
vt 0.250000 1.000000
vt 0.218750 1.000000
vt 0.531250 0.218750
vt 0.562500 0.218750
vt 0.562500 0.187500
vt 0.531250 0.187500
vt 0.531250 0.187500
vt 0.562500 0.187500
vt 0.562500 0.218750
vt 0.531250 0.218750
vt 0.531250 0.656250
vt 0.562500 0.656250
vt 0.562500 0.687500
vt 0.531250 0.687500
vt 0.250000 0.750000
vt 0.218750 0.750000
vt 0.218750 0.781250
vt 0.250000 0.781250
vt 0.218750 0.750000
vt 0.218750 0.781250
vt 0.218750 0.750000
vt 0.250000 0.750000
vt 0.250000 0.781250
vt 0.218750 0.781250
vt 0.562500 0.218750
vt 0.593750 0.218750
vt 0.593750 0.187500
vt 0.562500 0.187500
vt 0.218750 0.968750
vt 0.250000 0.968750
vt 0.250000 1.000000
vt 0.218750 1.000000
vt 0.531250 0.656250
vt 0.562500 0.656250
vt 0.562500 0.687500
vt 0.531250 0.687500
vt 0.250000 0.750000
vt 0.218750 0.750000
vt 0.218750 0.781250
vt 0.250000 0.781250
vt 0.218750 0.750000
vt 0.218750 0.781250
vt 0.218750 0.750000
vt 0.250000 0.750000
vt 0.250000 0.781250
vt 0.218750 0.781250
vt 0.218750 1.000000
vt 0.250000 1.000000
vt 0.250000 0.968750
vt 0.218750 0.968750
vt 0.562500 0.187500
vt 0.593750 0.187500
vt 0.593750 0.218750
vt 0.562500 0.218750
vn -1.0000 0.0000 0.0000
vn 0.0000 0.0000 -1.0000
vn 1.0000 0.0000 0.0000
vn -0.0000 0.0000 1.0000
vn 0.0000 1.0000 0.0000
vn -0.0000 -1.0000 0.0000
usemtl m_ef22053d-73c3-b9e1-fac1-3659bc1ec615
s 1
f 1/1/1 2/2/1 3/3/1 4/4/1
f 5/5/2 1/1/2 4/4/2 6/6/2
f 7/7/3 5/5/3 6/6/3 8/8/3
f 2/9/4 7/10/4 8/11/4 3/12/4
f 8/13/5 6/14/5 4/15/5 3/16/5
f 2/17/6 1/18/6 5/19/6 7/20/6
f 9/21/1 10/22/1 11/23/1 12/24/1
f 13/25/2 9/21/2 12/24/2 14/26/2
f 15/27/3 13/25/3 14/26/3 16/28/3
f 10/29/4 15/30/4 16/31/4 11/32/4
f 16/33/5 14/34/5 12/35/5 11/36/5
f 10/37/6 9/38/6 13/39/6 15/40/6
f 17/41/1 18/42/1 19/43/1 20/44/1
f 21/45/2 17/46/2 20/47/2 22/48/2
f 23/49/3 21/50/3 22/51/3 24/52/3
f 18/53/4 23/54/4 24/55/4 19/56/4
f 24/57/5 22/58/5 20/59/5 19/60/5
f 18/61/6 17/62/6 21/63/6 23/64/6
f 25/65/1 26/66/1 27/67/1 28/68/1
f 29/69/2 25/70/2 28/71/2 30/72/2
f 31/73/3 29/74/3 30/75/3 32/76/3
f 26/77/4 31/78/4 32/79/4 27/80/4
f 32/81/5 30/82/5 28/83/5 27/84/5
f 26/85/6 25/86/6 29/87/6 31/88/6
f 33/89/1 34/90/1 35/91/1 36/92/1
f 37/93/2 33/94/2 36/95/2 38/96/2
f 39/97/3 37/98/3 38/99/3 40/100/3
f 34/101/4 39/102/4 40/103/4 35/104/4
f 40/105/5 38/106/5 36/107/5 35/108/5
f 34/109/6 33/110/6 37/111/6 39/112/6
f 41/113/1 42/114/1 43/115/1 44/116/1
f 45/117/2 41/118/2 44/119/2 46/120/2
f 47/121/3 45/117/3 46/120/3 48/122/3
f 42/123/4 47/124/4 48/125/4 43/126/4
f 48/127/5 46/128/5 44/129/5 43/130/5
f 42/131/6 41/132/6 45/133/6 47/134/6
f 49/135/1 50/136/1 51/137/1 52/138/1
f 53/139/2 49/140/2 52/141/2 54/142/2
f 55/143/3 53/139/3 54/142/3 56/144/3
f 50/145/4 55/146/4 56/147/4 51/148/4
f 56/149/5 54/150/5 52/151/5 51/152/5
f 50/153/6 49/154/6 53/155/6 55/156/6
o scopeModel
v -5.820672 0.615140 0.000483
v -5.820672 0.368681 -0.338738
v -5.820672 -0.030098 -0.209167
v -5.820672 -0.098218 0.000484
v -5.820672 -0.030098 0.210134
v -5.820672 0.148241 0.339704
v -5.820672 0.368681 0.339704
v -5.820672 0.547020 0.210134
v -5.820672 0.547021 -0.209167
v -5.820672 0.148242 -0.338738
vt 0.500000 0.000000
vt 0.024472 0.345491
vt 0.206107 0.904509
vt 0.500000 1.000000
vt 0.793892 0.904508
vt 0.975528 0.654508
vt 0.975528 0.345491
vt 0.793892 0.095491
vt 0.206107 0.095492
vt 0.024472 0.654509
vn -1.0000 0.0000 0.0000
usemtl Material.036
s off
f 57/157/7 58/158/7 59/159/7
f 59/159/7 60/160/7 61/161/7
f 61/161/7 62/162/7 63/163/7
f 63/163/7 64/164/7 57/157/7
f 57/157/7 65/165/7 58/158/7
f 58/158/7 66/166/7 59/159/7
f 59/159/7 61/161/7 63/163/7
f 63/163/7 57/157/7 59/159/7
o overlayModel
v -5.844249 0.615140 0.000483
v -5.844249 0.368681 -0.338738
v -5.844249 -0.030098 -0.209167
v -5.844249 -0.098218 0.000484
v -5.844249 -0.030098 0.210134
v -5.844249 0.148241 0.339704
v -5.844249 0.368681 0.339704
v -5.844249 0.547020 0.210134
v -5.844249 0.547021 -0.209167
v -5.844249 0.148242 -0.338738
vt 0.500000 0.000000
vt 0.975528 0.345491
vt 0.793893 0.904509
vt 0.500000 1.000000
vt 0.206108 0.904508
vt 0.024472 0.654508
vt 0.024472 0.345491
vt 0.206108 0.095491
vt 0.793893 0.095492
vt 0.975528 0.654509
vn -1.0000 -0.0000 0.0000
usemtl Material.048
s off
f 67/167/8 68/168/8 69/169/8
f 69/169/8 70/170/8 71/171/8
f 71/171/8 72/172/8 73/173/8
f 73/173/8 74/174/8 67/167/8
f 67/167/8 75/175/8 68/168/8
f 68/168/8 76/176/8 69/169/8
f 69/169/8 71/171/8 73/173/8
f 73/173/8 67/167/8 69/169/8
