# Blender v2.80 (sub 75) OBJ File: ''
# www.blender.org
mtllib scopea3.mtl
o attachmentModel
v -1.282955 -0.205561 -0.468637
v -1.282955 -0.205561 0.468863
v -1.282955 0.731940 0.468863
v -1.282955 0.731940 -0.468637
v 2.154545 -0.205561 -0.468637
v 2.154545 0.731939 -0.468637
v 2.154545 -0.205561 0.468863
v 2.154545 0.731939 0.468863
v -0.970455 -0.518061 -0.156137
v -0.970455 -0.518061 0.156363
v -0.970455 -0.205561 0.156363
v -0.970455 -0.205561 -0.156137
v 0.592045 -0.518061 -0.156137
v 0.592045 -0.205561 -0.156137
v 0.592045 -0.518061 0.156363
v 0.592045 -0.205561 0.156363
v -1.595455 -0.205560 0.234488
v -1.595455 -0.205560 0.468863
v -1.595455 0.497565 0.468863
v -1.595455 0.497565 0.234488
v -1.282955 -0.205561 0.234488
v -1.282955 0.497565 0.234488
v -1.282955 -0.205561 0.468863
v -1.282955 0.497565 0.468863
v -1.595455 -0.205560 -0.468637
v -1.595455 -0.205560 -0.234262
v -1.595455 0.497565 -0.234262
v -1.595455 0.497565 -0.468637
v -1.282955 -0.205561 -0.468637
v -1.282955 0.497565 -0.468637
v -1.282955 -0.205561 -0.234262
v -1.282955 0.497565 -0.234262
v -1.595455 0.497565 -0.468637
v -1.595455 0.497565 0.468863
v -1.595455 0.731940 0.468863
v -1.595455 0.731940 -0.468637
v -1.282955 0.497565 -0.468637
v -1.282955 0.731940 -0.468637
v -1.282955 0.497565 0.468863
v -1.282955 0.731940 0.468863
v -1.595455 -0.205560 -0.234262
v -1.595455 -0.205560 0.234488
v -1.595455 0.028815 0.234488
v -1.595455 0.028815 -0.234262
v -1.282955 -0.205561 -0.234262
v -1.282955 0.028814 -0.234262
v -1.282955 -0.205561 0.234488
v -1.282955 0.028814 0.234488
vt 0.312500 0.750000
vt 0.343750 0.750000
vt 0.343750 0.843750
vt 0.312500 0.843750
vt 0.656250 0.750000
vt 0.656250 0.843750
vt 0.156250 0.750000
vt 0.250000 0.750000
vt 0.250000 0.843750
vt 0.156250 0.843750
vt 0.312500 0.750000
vt 0.656250 0.750000
vt 0.656250 0.843750
vt 0.312500 0.843750
vt 0.718750 0.750000
vt 0.750000 0.750000
vt 0.750000 0.406250
vt 0.718750 0.406250
vt 0.656250 0.406250
vt 0.687500 0.406250
vt 0.687500 0.750000
vt 0.343750 0.718750
vt 0.375000 0.718750
vt 0.375000 0.750000
vt 0.343750 0.750000
vt 0.500000 0.718750
vt 0.500000 0.750000
vt 0.468750 0.718750
vt 0.468750 0.750000
vt 0.500000 0.718750
vt 0.343750 0.718750
vt 0.343750 0.750000
vt 0.500000 0.750000
vt 0.343750 0.718750
vt 0.375000 0.718750
vt 0.375000 0.750000
vt 0.343750 0.750000
vt 0.625000 0.437500
vt 0.656250 0.437500
vt 0.656250 0.593750
vt 0.625000 0.593750
vt 0.156250 0.812500
vt 0.187500 0.812500
vt 0.187500 0.843750
vt 0.156250 0.843750
vt 0.312500 0.750000
vt 0.281250 0.750000
vt 0.281250 0.843750
vt 0.312500 0.843750
vt 0.281250 0.812500
vt 0.312500 0.812500
vt 0.281250 0.843750
vt 0.281250 0.750000
vt 0.312500 0.750000
vt 0.312500 0.843750
vt 0.281250 0.843750
vt 0.281250 0.812500
vt 0.312500 0.812500
vt 0.312500 0.843750
vt 0.312500 0.750000
vt 0.312500 0.781250
vt 0.281250 0.781250
vt 0.156250 0.812500
vt 0.187500 0.812500
vt 0.187500 0.843750
vt 0.156250 0.843750
vt 0.312500 0.750000
vt 0.281250 0.750000
vt 0.281250 0.843750
vt 0.312500 0.843750
vt 0.281250 0.812500
vt 0.312500 0.812500
vt 0.281250 0.843750
vt 0.281250 0.750000
vt 0.312500 0.750000
vt 0.312500 0.843750
vt 0.281250 0.843750
vt 0.281250 0.812500
vt 0.312500 0.812500
vt 0.312500 0.843750
vt 0.312500 0.750000
vt 0.312500 0.781250
vt 0.281250 0.781250
vt 0.156250 0.812500
vt 0.187500 0.812500
vt 0.187500 0.843750
vt 0.156250 0.843750
vt 0.312500 0.750000
vt 0.281250 0.750000
vt 0.281250 0.843750
vt 0.312500 0.843750
vt 0.281250 0.812500
vt 0.312500 0.812500
vt 0.281250 0.843750
vt 0.281250 0.750000
vt 0.312500 0.750000
vt 0.312500 0.843750
vt 0.281250 0.843750
vt 0.281250 0.812500
vt 0.312500 0.812500
vt 0.312500 0.843750
vt 0.312500 0.750000
vt 0.312500 0.781250
vt 0.281250 0.781250
vt 0.156250 0.812500
vt 0.187500 0.812500
vt 0.187500 0.843750
vt 0.156250 0.843750
vt 0.312500 0.750000
vt 0.281250 0.750000
vt 0.281250 0.843750
vt 0.312500 0.843750
vt 0.281250 0.812500
vt 0.312500 0.812500
vt 0.281250 0.843750
vt 0.281250 0.750000
vt 0.312500 0.750000
vt 0.312500 0.843750
vt 0.281250 0.843750
vt 0.281250 0.812500
vt 0.312500 0.812500
vt 0.312500 0.843750
vt 0.312500 0.750000
vt 0.312500 0.781250
vt 0.281250 0.781250
vn -1.0000 0.0000 -0.0000
vn 0.0000 -0.0000 -1.0000
vn 1.0000 -0.0000 0.0000
vn -0.0000 0.0000 1.0000
vn 0.0000 1.0000 0.0000
vn -0.0000 -1.0000 -0.0000
usemtl m_6f62e66c-2609-a49f-9b45-a8123cd889bd
s 1
f 1/1/1 2/2/1 3/3/1 4/4/1
f 5/5/2 1/1/2 4/4/2 6/6/2
f 7/7/3 5/8/3 6/9/3 8/10/3
f 2/11/4 7/12/4 8/13/4 3/14/4
f 8/15/5 6/16/5 4/17/5 3/18/5
f 2/19/6 1/20/6 5/21/6 7/12/6
f 9/22/1 10/23/1 11/24/1 12/25/1
f 13/26/2 9/22/2 12/25/2 14/27/2
f 15/28/3 13/26/3 14/27/3 16/29/3
f 10/30/4 15/31/4 16/32/4 11/33/4
f 16/34/5 14/35/5 12/36/5 11/37/5
f 10/38/6 9/39/6 13/40/6 15/41/6
f 17/42/1 18/43/1 19/44/1 20/45/1
f 21/46/2 17/47/2 20/48/2 22/49/2
f 23/50/3 21/51/3 22/49/3 24/52/3
f 18/53/4 23/54/4 24/55/4 19/56/4
f 24/57/5 22/58/5 20/59/5 19/56/5
f 18/53/6 17/60/6 21/61/6 23/62/6
f 25/63/1 26/64/1 27/65/1 28/66/1
f 29/67/2 25/68/2 28/69/2 30/70/2
f 31/71/3 29/72/3 30/70/3 32/73/3
f 26/74/4 31/75/4 32/76/4 27/77/4
f 32/78/5 30/79/5 28/80/5 27/77/5
f 26/74/6 25/81/6 29/82/6 31/83/6
f 33/84/1 34/85/1 35/86/1 36/87/1
f 37/88/2 33/89/2 36/90/2 38/91/2
f 39/92/3 37/93/3 38/91/3 40/94/3
f 34/95/4 39/96/4 40/97/4 35/98/4
f 40/99/5 38/100/5 36/101/5 35/98/5
f 34/95/6 33/102/6 37/103/6 39/104/6
f 41/105/1 42/106/1 43/107/1 44/108/1
f 45/109/2 41/110/2 44/111/2 46/112/2
f 47/113/3 45/114/3 46/112/3 48/115/3
f 42/116/4 47/117/4 48/118/4 43/119/4
f 48/120/5 46/121/5 44/122/5 43/119/5
f 42/116/6 41/123/6 45/124/6 47/125/6
o scopeModel
v -1.545295 0.683170 0.001982
v -1.545295 0.393809 -0.396288
v -1.545295 -0.074385 -0.244162
v -1.545295 -0.154363 0.001983
v -1.545295 -0.074385 0.248127
v -1.545295 0.134998 0.400252
v -1.545295 0.393810 0.400252
v -1.545295 0.603193 0.248127
v -1.545295 0.603193 -0.244162
v -1.545295 0.134998 -0.396288
vt 0.500000 0.000000
vt 0.024472 0.345491
vt 0.206107 0.904509
vt 0.500000 1.000000
vt 0.793892 0.904508
vt 0.975528 0.654508
vt 0.975528 0.345491
vt 0.793892 0.095491
vt 0.206107 0.095492
vt 0.024472 0.654509
vn -1.0000 -0.0000 0.0000
usemtl Material.036
s off
f 49/126/7 50/127/7 51/128/7
f 51/128/7 52/129/7 53/130/7
f 53/130/7 54/131/7 55/132/7
f 55/132/7 56/133/7 49/126/7
f 49/126/7 57/134/7 50/127/7
f 50/127/7 58/135/7 51/128/7
f 51/128/7 53/130/7 55/132/7
f 55/132/7 49/126/7 51/128/7
o overlayModel
v -1.572977 0.683170 0.001982
v -1.572977 0.393809 -0.396288
v -1.572977 -0.074385 -0.244162
v -1.572977 -0.154363 0.001983
v -1.572977 -0.074385 0.248127
v -1.572977 0.134998 0.400252
v -1.572977 0.393810 0.400252
v -1.572977 0.603193 0.248127
v -1.572977 0.603193 -0.244162
v -1.572977 0.134998 -0.396288
vt 0.500000 0.000000
vt 0.975528 0.345491
vt 0.793893 0.904509
vt 0.500000 1.000000
vt 0.206108 0.904508
vt 0.024472 0.654508
vt 0.024472 0.345491
vt 0.206108 0.095491
vt 0.793893 0.095492
vt 0.975528 0.654509
vn -1.0000 0.0000 0.0000
usemtl Material.048
s off
f 59/136/8 60/137/8 61/138/8
f 61/138/8 62/139/8 63/140/8
f 63/140/8 64/141/8 65/142/8
f 65/142/8 66/143/8 59/136/8
f 59/136/8 67/144/8 60/137/8
f 60/137/8 68/145/8 61/138/8
f 61/138/8 63/140/8 65/142/8
f 65/142/8 59/136/8 61/138/8
