# Blender v2.80 (sub 75) OBJ File: ''
# www.blender.org
mtllib scopegewehr43x.mtl
o attachmentModel
v -5.419366 -0.494716 -0.156564
v -5.419366 -0.494716 0.155936
v -5.419366 0.130284 0.155936
v -5.419366 0.130284 -0.156564
v -5.106866 -0.494716 -0.156564
v -5.106866 0.130284 -0.156564
v -5.106866 -0.494716 0.155936
v -5.106866 0.130284 0.155936
v -4.794366 -0.494716 -0.156563
v -4.794366 -0.494716 0.155937
v -4.794366 -0.182216 0.155937
v -4.794366 -0.182216 -0.156563
v -3.856866 -0.494716 -0.156563
v -3.856866 -0.182216 -0.156563
v -3.856866 -0.494716 0.155937
v -3.856866 -0.182216 0.155937
v -4.481866 -0.182216 -0.156563
v -4.481866 -0.182216 0.155937
v -4.481866 0.130284 0.155937
v -4.481866 0.130284 -0.156563
v -4.169366 -0.182216 -0.156563
v -4.169366 0.130284 -0.156563
v -4.169366 -0.182216 0.155937
v -4.169366 0.130284 0.155937
v -6.044366 0.130285 -0.469064
v -6.044366 0.130285 0.468436
v -6.044366 1.067785 0.468436
v -6.044366 1.067785 -0.469064
v -3.544366 0.130284 -0.469063
v -3.544366 1.067784 -0.469063
v -3.544366 0.130284 0.468437
v -3.544366 1.067784 0.468437
v -6.356866 0.130285 0.234061
v -6.356866 0.130285 0.468436
v -6.356866 1.067785 0.468436
v -6.356866 1.067785 0.234061
v -6.044366 0.130285 0.234061
v -6.044366 1.067785 0.234061
v -6.044366 0.130285 0.468436
v -6.044366 1.067785 0.468436
v -6.356866 0.130285 -0.469064
v -6.356866 0.130285 -0.234689
v -6.356866 1.067785 -0.234689
v -6.356866 1.067785 -0.469064
v -6.044366 0.130285 -0.469064
v -6.044366 1.067785 -0.469064
v -6.044366 0.130285 -0.234689
v -6.044366 1.067785 -0.234689
v -6.356866 0.130285 -0.234689
v -6.356866 0.130285 0.234061
v -6.356866 0.364660 0.234061
v -6.356866 0.364660 -0.234689
v -6.044366 0.130285 -0.234689
v -6.044366 0.364660 -0.234689
v -6.044366 0.130285 0.234061
v -6.044366 0.364660 0.234061
v -6.356866 0.833410 -0.234689
v -6.356866 0.833410 0.234061
v -6.356866 1.067785 0.234061
v -6.356866 1.067785 -0.234689
v -6.044366 0.833410 -0.234689
v -6.044366 1.067785 -0.234689
v -6.044366 0.833410 0.234061
v -6.044366 1.067785 0.234061
vt 0.125000 0.625000
vt 0.156250 0.625000
vt 0.156250 0.687500
vt 0.125000 0.687500
vt 0.156250 0.625000
vt 0.156250 0.687500
vt 0.125000 0.625000
vt 0.125000 0.687500
vt 0.125000 0.625000
vt 0.156250 0.625000
vt 0.156250 0.687500
vt 0.125000 0.687500
vt 0.156250 0.656250
vt 0.125000 0.656250
vt 0.156250 0.625000
vt 0.156250 0.656250
vt 0.125000 0.656250
vt 0.187500 0.625000
vt 0.218750 0.625000
vt 0.218750 0.656250
vt 0.187500 0.656250
vt 0.281250 0.625000
vt 0.281250 0.656250
vt 0.250000 0.625000
vt 0.250000 0.656250
vt 0.187500 0.625000
vt 0.281250 0.625000
vt 0.281250 0.656250
vt 0.187500 0.656250
vt 0.437500 0.468750
vt 0.468750 0.468750
vt 0.468750 0.375000
vt 0.437500 0.375000
vt 0.437500 0.375000
vt 0.468750 0.375000
vt 0.468750 0.468750
vt 0.437500 0.468750
vt 0.218750 0.656250
vt 0.250000 0.656250
vt 0.250000 0.687500
vt 0.218750 0.687500
vt 0.250000 0.656250
vt 0.250000 0.687500
vt 0.218750 0.656250
vt 0.218750 0.687500
vt 0.218750 0.656250
vt 0.250000 0.656250
vt 0.250000 0.687500
vt 0.218750 0.687500
vt 0.250000 0.656250
vt 0.218750 0.656250
vt 0.250000 0.656250
vt 0.250000 0.687500
vt 0.218750 0.687500
vt 0.156250 0.718750
vt 0.187500 0.718750
vt 0.187500 0.750000
vt 0.156250 0.750000
vt 0.312500 0.687500
vt 0.062500 0.687500
vt 0.062500 0.781250
vt 0.312500 0.781250
vt 0.406250 0.750000
vt 0.500000 0.750000
vt 0.500000 0.843750
vt 0.406250 0.843750
vt 0.062500 0.687500
vt 0.312500 0.687500
vt 0.312500 0.781250
vt 0.062500 0.781250
vt 0.656250 0.500000
vt 0.750000 0.500000
vt 0.750000 0.250000
vt 0.656250 0.250000
vt 0.312500 0.250000
vt 0.406250 0.250000
vt 0.406250 0.500000
vt 0.312500 0.500000
vt 0.406250 0.812500
vt 0.437500 0.812500
vt 0.437500 0.843750
vt 0.406250 0.843750
vt 0.250000 0.968750
vt 0.218750 0.968750
vt 0.218750 1.000000
vt 0.250000 1.000000
vt 0.156250 0.656250
vt 0.187500 0.656250
vt 0.187500 0.687500
vt 0.156250 0.687500
vt 0.031250 0.687500
vt 0.062500 0.687500
vt 0.062500 0.781250
vt 0.031250 0.781250
vt 0.031250 0.781250
vt 0.062500 0.781250
vt 0.062500 0.750000
vt 0.031250 0.750000
vt 0.062500 0.687500
vt 0.062500 0.718750
vt 0.031250 0.718750
vt 0.406250 0.812500
vt 0.437500 0.812500
vt 0.437500 0.843750
vt 0.406250 0.843750
vt 0.062500 0.687500
vt 0.031250 0.687500
vt 0.031250 0.781250
vt 0.062500 0.781250
vt 0.156250 0.656250
vt 0.187500 0.656250
vt 0.187500 0.687500
vt 0.156250 0.687500
vt 0.218750 0.968750
vt 0.250000 0.968750
vt 0.250000 1.000000
vt 0.218750 1.000000
vt 0.031250 0.781250
vt 0.062500 0.750000
vt 0.031250 0.750000
vt 0.031250 0.687500
vt 0.062500 0.687500
vt 0.062500 0.718750
vt 0.031250 0.718750
vt 0.406250 0.812500
vt 0.437500 0.812500
vt 0.437500 0.843750
vt 0.406250 0.843750
vt 0.187500 0.656250
vt 0.156250 0.656250
vt 0.156250 0.687500
vt 0.187500 0.687500
vt 0.156250 0.656250
vt 0.156250 0.687500
vt 0.156250 0.656250
vt 0.187500 0.656250
vt 0.187500 0.687500
vt 0.156250 0.687500
vt 0.218750 1.000000
vt 0.250000 1.000000
vt 0.250000 0.968750
vt 0.218750 0.968750
vt 0.031250 0.531250
vt 0.062500 0.531250
vt 0.062500 0.562500
vt 0.031250 0.562500
vt 0.406250 0.812500
vt 0.437500 0.812500
vt 0.437500 0.843750
vt 0.406250 0.843750
vt 0.187500 0.656250
vt 0.156250 0.656250
vt 0.156250 0.687500
vt 0.187500 0.687500
vt 0.156250 0.656250
vt 0.156250 0.687500
vt 0.156250 0.656250
vt 0.187500 0.656250
vt 0.187500 0.687500
vt 0.156250 0.687500
vt 0.031250 0.875000
vt 0.062500 0.875000
vt 0.062500 0.843750
vt 0.031250 0.843750
vt 0.218750 0.968750
vt 0.250000 0.968750
vt 0.250000 1.000000
vt 0.218750 1.000000
vn -1.0000 0.0000 0.0000
vn 0.0000 0.0000 -1.0000
vn 1.0000 0.0000 0.0000
vn -0.0000 0.0000 1.0000
vn 0.0000 1.0000 0.0000
vn 0.0000 -1.0000 0.0000
usemtl m_45a702be-9745-42fd-4feb-b0746216455c
s 1
f 1/1/1 2/2/1 3/3/1 4/4/1
f 5/5/2 1/1/2 4/4/2 6/6/2
f 7/7/3 5/5/3 6/6/3 8/8/3
f 2/9/4 7/10/4 8/11/4 3/12/4
f 8/8/5 6/6/5 4/13/5 3/14/5
f 2/9/6 1/15/6 5/16/6 7/17/6
f 9/18/1 10/19/1 11/20/1 12/21/1
f 13/22/2 9/18/2 12/21/2 14/23/2
f 15/24/3 13/22/3 14/23/3 16/25/3
f 10/26/4 15/27/4 16/28/4 11/29/4
f 16/30/5 14/31/5 12/32/5 11/33/5
f 10/34/6 9/35/6 13/36/6 15/37/6
f 17/38/1 18/39/1 19/40/1 20/41/1
f 21/42/2 17/38/2 20/41/2 22/43/2
f 23/44/3 21/42/3 22/43/3 24/45/3
f 18/46/4 23/47/4 24/48/4 19/49/4
f 24/45/5 22/43/5 20/50/5 19/51/5
f 18/46/6 17/52/6 21/53/6 23/54/6
f 25/55/1 26/56/1 27/57/1 28/58/1
f 29/59/2 25/60/2 28/61/2 30/62/2
f 31/63/3 29/64/3 30/65/3 32/66/3
f 26/67/4 31/68/4 32/69/4 27/70/4
f 32/71/5 30/72/5 28/73/5 27/74/5
f 26/75/6 25/76/6 29/77/6 31/78/6
f 33/79/1 34/80/1 35/81/1 36/82/1
f 37/83/2 33/84/2 36/85/2 38/86/2
f 39/87/3 37/88/3 38/89/3 40/90/3
f 34/91/4 39/92/4 40/93/4 35/94/4
f 40/95/5 38/96/5 36/97/5 35/98/5
f 34/91/6 33/99/6 37/100/6 39/101/6
f 41/102/1 42/103/1 43/104/1 44/105/1
f 45/106/2 41/107/2 44/108/2 46/109/2
f 47/110/3 45/111/3 46/112/3 48/113/3
f 42/114/4 47/115/4 48/116/4 43/117/4
f 48/118/5 46/109/5 44/119/5 43/120/5
f 42/121/6 41/122/6 45/123/6 47/124/6
f 49/125/1 50/126/1 51/127/1 52/128/1
f 53/129/2 49/130/2 52/131/2 54/132/2
f 55/133/3 53/129/3 54/132/3 56/134/3
f 50/135/4 55/136/4 56/137/4 51/138/4
f 56/139/5 54/140/5 52/141/5 51/142/5
f 50/143/6 49/144/6 53/145/6 55/146/6
f 57/147/1 58/148/1 59/149/1 60/150/1
f 61/151/2 57/152/2 60/153/2 62/154/2
f 63/155/3 61/151/3 62/154/3 64/156/3
f 58/157/4 63/158/4 64/159/4 59/160/4
f 64/161/5 62/162/5 60/163/5 59/164/5
f 58/165/6 57/166/6 61/167/6 63/168/6
o scopeModel
v -6.293283 0.956217 0.000483
v -6.293283 0.709757 -0.338738
v -6.293283 0.310979 -0.209167
v -6.293283 0.242859 0.000484
v -6.293283 0.310979 0.210134
v -6.293283 0.489318 0.339704
v -6.293283 0.709758 0.339704
v -6.293283 0.888097 0.210134
v -6.293283 0.888097 -0.209167
v -6.293283 0.489318 -0.338738
vt 0.500000 0.000000
vt 0.024472 0.345491
vt 0.206107 0.904509
vt 0.500000 1.000000
vt 0.793892 0.904508
vt 0.975528 0.654508
vt 0.975528 0.345491
vt 0.793892 0.095491
vt 0.206107 0.095492
vt 0.024472 0.654509
vn -1.0000 0.0000 0.0000
usemtl Material.036
s off
f 65/169/7 66/170/7 67/171/7
f 67/171/7 68/172/7 69/173/7
f 69/173/7 70/174/7 71/175/7
f 71/175/7 72/176/7 65/169/7
f 65/169/7 73/177/7 66/170/7
f 66/170/7 74/178/7 67/171/7
f 67/171/7 69/173/7 71/175/7
f 71/175/7 65/169/7 67/171/7
o overlayModel
v -6.316860 0.956217 0.000483
v -6.316860 0.709757 -0.338738
v -6.316860 0.310979 -0.209167
v -6.316860 0.242859 0.000484
v -6.316860 0.310979 0.210134
v -6.316860 0.489318 0.339704
v -6.316860 0.709758 0.339704
v -6.316860 0.888097 0.210134
v -6.316860 0.888097 -0.209167
v -6.316860 0.489318 -0.338738
vt 0.500000 0.000000
vt 0.975528 0.345491
vt 0.793893 0.904509
vt 0.500000 1.000000
vt 0.206108 0.904508
vt 0.024472 0.654508
vt 0.024472 0.345491
vt 0.206108 0.095491
vt 0.793893 0.095492
vt 0.975528 0.654509
vn -1.0000 0.0000 0.0000
usemtl Material.048
s off
f 75/179/8 76/180/8 77/181/8
f 77/181/8 78/182/8 79/183/8
f 79/183/8 80/184/8 81/185/8
f 81/185/8 82/186/8 75/179/8
f 75/179/8 83/187/8 76/180/8
f 76/180/8 84/188/8 77/181/8
f 77/181/8 79/183/8 81/185/8
f 81/185/8 75/179/8 77/181/8
