# Blender v2.80 (sub 75) OBJ File: ''
# www.blender.org
mtllib scopesvt40x_3.mtl
o attachmentModel
v -6.043790 -0.453951 -0.156561
v -6.043790 -0.453951 0.155939
v -6.043790 -0.141451 0.155939
v -6.043790 -0.141451 -0.156561
v -5.418790 -0.453951 -0.156561
v -5.418790 -0.141451 -0.156561
v -5.418790 -0.453951 0.155939
v -5.418790 -0.141451 0.155939
v -6.043790 -0.141451 -0.469061
v -6.043790 -0.141451 0.468439
v -6.043790 0.796049 0.468439
v -6.043790 0.796049 -0.469061
v -3.543790 -0.141451 -0.469061
v -3.543790 0.796049 -0.469061
v -3.543790 -0.141451 0.468439
v -3.543790 0.796049 0.468439
v -6.356290 -0.141451 0.234064
v -6.356290 -0.141451 0.468439
v -6.356290 0.796049 0.468439
v -6.356290 0.796049 0.234064
v -6.043790 -0.141451 0.234064
v -6.043790 0.796049 0.234064
v -6.043790 -0.141451 0.468439
v -6.043790 0.796049 0.468439
v -6.356290 -0.141451 -0.469061
v -6.356290 -0.141451 -0.234686
v -6.356290 0.796049 -0.234686
v -6.356290 0.796049 -0.469061
v -6.043790 -0.141451 -0.469061
v -6.043790 0.796049 -0.469061
v -6.043790 -0.141451 -0.234686
v -6.043790 0.796049 -0.234686
v -6.356290 0.561674 -0.234686
v -6.356290 0.561674 0.234064
v -6.356290 0.796049 0.234064
v -6.356290 0.796049 -0.234686
v -6.043790 0.561674 -0.234686
v -6.043790 0.796049 -0.234686
v -6.043790 0.561674 0.234064
v -6.043790 0.796049 0.234064
v -6.356290 -0.141451 -0.234686
v -6.356290 -0.141451 0.234064
v -6.356290 0.092924 0.234064
v -6.356290 0.092924 -0.234686
v -6.043790 -0.141451 -0.234686
v -6.043790 0.092924 -0.234686
v -6.043790 -0.141451 0.234064
v -6.043790 0.092924 0.234064
v -5.106290 0.796049 -0.156561
v -5.106290 0.796049 0.155939
v -5.106290 1.108549 0.155939
v -5.106290 1.108549 -0.156561
v -4.481290 0.796049 -0.156561
v -4.481290 1.108549 -0.156561
v -4.481290 0.796049 0.155939
v -4.481290 1.108549 0.155939
vt 0.250000 0.687500
vt 0.281250 0.687500
vt 0.281250 0.718750
vt 0.250000 0.718750
vt 0.312500 0.687500
vt 0.312500 0.718750
vt 0.281250 0.687500
vt 0.281250 0.718750
vt 0.250000 0.687500
vt 0.312500 0.687500
vt 0.312500 0.718750
vt 0.250000 0.718750
vt 0.468750 0.531250
vt 0.500000 0.531250
vt 0.500000 0.468750
vt 0.468750 0.468750
vt 0.468750 0.468750
vt 0.500000 0.468750
vt 0.500000 0.531250
vt 0.468750 0.531250
vt 0.093750 0.718750
vt 0.187500 0.718750
vt 0.187500 0.812500
vt 0.093750 0.812500
vt 0.500000 0.718750
vt 0.250000 0.718750
vt 0.250000 0.812500
vt 0.500000 0.812500
vt 0.093750 0.718750
vt 0.187500 0.718750
vt 0.187500 0.812500
vt 0.093750 0.812500
vt 0.250000 0.718750
vt 0.500000 0.718750
vt 0.500000 0.812500
vt 0.250000 0.812500
vt 0.500000 0.718750
vt 0.593750 0.718750
vt 0.593750 0.468750
vt 0.500000 0.468750
vt 0.500000 0.468750
vt 0.593750 0.468750
vt 0.593750 0.718750
vt 0.218750 0.750000
vt 0.250000 0.750000
vt 0.250000 0.781250
vt 0.218750 0.781250
vt 0.250000 0.968750
vt 0.218750 0.968750
vt 0.218750 1.000000
vt 0.250000 1.000000
vt 0.218750 0.750000
vt 0.250000 0.750000
vt 0.250000 0.781250
vt 0.218750 0.781250
vt 0.218750 0.718750
vt 0.250000 0.718750
vt 0.250000 0.812500
vt 0.218750 0.812500
vt 0.250000 0.750000
vt 0.218750 0.750000
vt 0.218750 0.750000
vt 0.250000 0.750000
vt 0.250000 0.781250
vt 0.218750 0.781250
vt 0.218750 0.750000
vt 0.250000 0.750000
vt 0.250000 0.781250
vt 0.218750 0.781250
vt 0.250000 0.718750
vt 0.218750 0.718750
vt 0.218750 0.812500
vt 0.250000 0.812500
vt 0.218750 0.750000
vt 0.250000 0.750000
vt 0.250000 0.781250
vt 0.218750 0.781250
vt 0.218750 0.968750
vt 0.250000 0.968750
vt 0.250000 1.000000
vt 0.218750 1.000000
vt 0.250000 0.750000
vt 0.218750 0.750000
vt 0.218750 0.750000
vt 0.250000 0.750000
vt 0.250000 0.781250
vt 0.218750 0.781250
vt 0.218750 0.750000
vt 0.250000 0.750000
vt 0.250000 0.781250
vt 0.218750 0.781250
vt 0.250000 0.750000
vt 0.250000 0.781250
vt 0.218750 0.750000
vt 0.218750 0.781250
vt 0.218750 0.750000
vt 0.250000 0.750000
vt 0.250000 0.781250
vt 0.218750 0.781250
vt 0.531250 0.468750
vt 0.562500 0.468750
vt 0.562500 0.437500
vt 0.531250 0.437500
vt 0.218750 0.968750
vt 0.250000 0.968750
vt 0.250000 1.000000
vt 0.218750 1.000000
vt 0.218750 0.750000
vt 0.250000 0.750000
vt 0.250000 0.781250
vt 0.218750 0.781250
vt 0.250000 0.750000
vt 0.250000 0.781250
vt 0.218750 0.750000
vt 0.218750 0.781250
vt 0.218750 0.750000
vt 0.250000 0.750000
vt 0.250000 0.781250
vt 0.218750 0.781250
vt 0.218750 1.000000
vt 0.250000 1.000000
vt 0.250000 0.968750
vt 0.218750 0.968750
vt 0.531250 0.437500
vt 0.562500 0.437500
vt 0.562500 0.468750
vt 0.531250 0.468750
vt 0.343750 0.812500
vt 0.375000 0.812500
vt 0.375000 0.843750
vt 0.343750 0.843750
vt 0.406250 0.812500
vt 0.406250 0.843750
vt 0.375000 0.812500
vt 0.375000 0.843750
vt 0.343750 0.812500
vt 0.406250 0.812500
vt 0.406250 0.843750
vt 0.343750 0.843750
vt 0.593750 0.625000
vt 0.625000 0.625000
vt 0.625000 0.562500
vt 0.593750 0.562500
vt 0.593750 0.562500
vt 0.625000 0.562500
vt 0.625000 0.625000
vt 0.593750 0.625000
vn -1.0000 0.0000 0.0000
vn 0.0000 0.0000 -1.0000
vn 1.0000 0.0000 0.0000
vn -0.0000 0.0000 1.0000
vn 0.0000 1.0000 0.0000
vn -0.0000 -1.0000 0.0000
usemtl m_25b07d2a-d2fb-d4b0-ae1a-e6fad1edeeb5
s 1
f 1/1/1 2/2/1 3/3/1 4/4/1
f 5/5/2 1/1/2 4/4/2 6/6/2
f 7/7/3 5/5/3 6/6/3 8/8/3
f 2/9/4 7/10/4 8/11/4 3/12/4
f 8/13/5 6/14/5 4/15/5 3/16/5
f 2/17/6 1/18/6 5/19/6 7/20/6
f 9/21/1 10/22/1 11/23/1 12/24/1
f 13/25/2 9/26/2 12/27/2 14/28/2
f 15/29/3 13/30/3 14/31/3 16/32/3
f 10/33/4 15/34/4 16/35/4 11/36/4
f 16/37/5 14/38/5 12/39/5 11/40/5
f 10/41/6 9/42/6 13/43/6 15/34/6
f 17/44/1 18/45/1 19/46/1 20/47/1
f 21/48/2 17/49/2 20/50/2 22/51/2
f 23/52/3 21/53/3 22/54/3 24/55/3
f 18/56/4 23/57/4 24/58/4 19/59/4
f 24/55/5 22/54/5 20/60/5 19/61/5
f 18/62/6 17/63/6 21/64/6 23/65/6
f 25/66/1 26/67/1 27/68/1 28/69/1
f 29/70/2 25/71/2 28/72/2 30/73/2
f 31/74/3 29/75/3 30/76/3 32/77/3
f 26/78/4 31/79/4 32/80/4 27/81/4
f 32/77/5 30/76/5 28/82/5 27/83/5
f 26/84/6 25/85/6 29/86/6 31/87/6
f 33/88/1 34/89/1 35/90/1 36/91/1
f 37/92/2 33/88/2 36/91/2 38/93/2
f 39/94/3 37/92/3 38/93/3 40/95/3
f 34/96/4 39/97/4 40/98/4 35/99/4
f 40/100/5 38/101/5 36/102/5 35/103/5
f 34/104/6 33/105/6 37/106/6 39/107/6
f 41/108/1 42/109/1 43/110/1 44/111/1
f 45/112/2 41/108/2 44/111/2 46/113/2
f 47/114/3 45/112/3 46/113/3 48/115/3
f 42/116/4 47/117/4 48/118/4 43/119/4
f 48/120/5 46/121/5 44/122/5 43/123/5
f 42/124/6 41/125/6 45/126/6 47/127/6
f 49/128/1 50/129/1 51/130/1 52/131/1
f 53/132/2 49/128/2 52/131/2 54/133/2
f 55/134/3 53/132/3 54/133/3 56/135/3
f 50/136/4 55/137/4 56/138/4 51/139/4
f 56/140/5 54/141/5 52/142/5 51/143/5
f 50/144/6 49/145/6 53/146/6 55/147/6
o scopeModel
v -6.296373 0.684054 0.000483
v -6.296373 0.437594 -0.338738
v -6.296373 0.038816 -0.209167
v -6.296373 -0.029304 0.000484
v -6.296373 0.038816 0.210134
v -6.296373 0.217155 0.339704
v -6.296373 0.437595 0.339704
v -6.296373 0.615934 0.210134
v -6.296373 0.615934 -0.209167
v -6.296373 0.217155 -0.338738
vt 0.500000 0.000000
vt 0.024472 0.345491
vt 0.206107 0.904509
vt 0.500000 1.000000
vt 0.793892 0.904508
vt 0.975528 0.654508
vt 0.975528 0.345491
vt 0.793892 0.095491
vt 0.206107 0.095492
vt 0.024472 0.654509
vn -1.0000 -0.0000 0.0000
usemtl Material.036
s off
f 57/148/7 58/149/7 59/150/7
f 59/150/7 60/151/7 61/152/7
f 61/152/7 62/153/7 63/154/7
f 63/154/7 64/155/7 57/148/7
f 57/148/7 65/156/7 58/149/7
f 58/149/7 66/157/7 59/150/7
f 59/150/7 61/152/7 63/154/7
f 63/154/7 57/148/7 59/150/7
o overlayModel
v -6.319950 0.684054 0.000483
v -6.319950 0.437594 -0.338738
v -6.319950 0.038816 -0.209167
v -6.319950 -0.029304 0.000484
v -6.319950 0.038816 0.210134
v -6.319950 0.217155 0.339704
v -6.319950 0.437595 0.339704
v -6.319950 0.615934 0.210134
v -6.319950 0.615934 -0.209167
v -6.319950 0.217155 -0.338738
vt 0.500000 0.000000
vt 0.975528 0.345491
vt 0.793893 0.904509
vt 0.500000 1.000000
vt 0.206108 0.904508
vt 0.024472 0.654508
vt 0.024472 0.345491
vt 0.206108 0.095491
vt 0.793893 0.095492
vt 0.975528 0.654509
vn -1.0000 -0.0000 0.0000
usemtl Material.048
s off
f 67/158/8 68/159/8 69/160/8
f 69/160/8 70/161/8 71/162/8
f 71/162/8 72/163/8 73/164/8
f 73/164/8 74/165/8 67/158/8
f 67/158/8 75/166/8 68/159/8
f 68/159/8 76/167/8 69/160/8
f 69/160/8 71/162/8 73/164/8
f 73/164/8 67/158/8 69/160/8
