# Blender v2.80 (sub 75) OBJ File: ''
# www.blender.org
mtllib block.supawx.forest.mtl
o attachmentModel
v 6.890067 -1.517856 -0.468748
v 6.890067 -1.517856 0.468752
v 6.890067 -0.267856 0.468752
v 6.890067 -0.267856 -0.468748
v 12.515067 -1.517857 -0.468748
v 12.515067 -0.267857 -0.468748
v 12.515067 -1.517857 0.468752
v 12.515067 -0.267857 0.468752
vt 0.812500 0.718750
vt 0.843750 0.718750
vt 0.843750 0.750000
vt 0.812500 0.750000
vt 0.625000 0.750000
vt 0.062500 0.750000
vt 0.062500 0.875000
vt 0.625000 0.875000
vt 0.625000 0.750000
vt 0.718750 0.750000
vt 0.718750 0.875000
vt 0.625000 0.875000
vt 0.062500 0.750000
vt 0.062500 0.875000
vt 0.750000 0.187500
vt 0.625000 0.187500
vt 0.625000 0.750000
vt 0.750000 0.750000
vt 0.625000 0.187500
vt 0.750000 0.187500
vt 0.750000 0.750000
vn -1.0000 0.0000 0.0000
vn 0.0000 0.0000 -1.0000
vn 1.0000 0.0000 0.0000
vn -0.0000 0.0000 1.0000
vn 0.0000 1.0000 0.0000
vn -0.0000 -1.0000 0.0000
usemtl m_b65b4c6e-6941-72be-fd34-0e86d7b4306e
s 1
f 1/1/1 2/2/1 3/3/1 4/4/1
f 5/5/2 1/6/2 4/7/2 6/8/2
f 7/9/3 5/10/3 6/11/3 8/12/3
f 2/13/4 7/9/4 8/12/4 3/14/4
f 8/15/5 6/16/5 4/17/5 3/18/5
f 2/19/6 1/20/6 5/21/6 7/9/6
