# Blender v2.80 (sub 75) OBJ File: ''
# www.blender.org
mtllib rkg3.mtl
o grenadeModel
v 0.335731 -1.179569 -0.357078
v -0.364269 -1.179569 -0.357078
v -0.364269 1.970431 -0.357078
v 0.335731 1.970431 -0.357078
v 0.335731 -1.179569 0.342922
v 0.335731 1.970431 0.342922
v -0.364269 -1.179569 0.342922
v -0.364269 1.970431 0.342922
v 0.335731 1.970431 -0.357078
v -0.364269 1.970431 -0.357078
v -0.364269 7.220431 -0.357077
v 0.335731 7.220431 -0.357077
v 0.335731 1.970431 0.342922
v 0.335731 7.220431 0.342923
v -0.364269 1.970431 0.342922
v -0.364269 7.220431 0.342923
v -0.364269 1.970431 -0.357078
v -0.714269 1.970431 -0.357078
v -0.714269 7.220431 -0.357077
v -0.364269 7.220431 -0.357077
v -0.364269 1.970431 0.342922
v -0.364269 7.220431 0.342923
v -0.714269 1.970431 0.342922
v -0.714269 7.220431 0.342923
v 0.685731 1.970431 -0.357078
v 0.335731 1.970431 -0.357078
v 0.335731 7.220431 -0.357077
v 0.685731 7.220431 -0.357077
v 0.685731 1.970431 0.342922
v 0.685731 7.220431 0.342923
v 0.335731 1.970431 0.342922
v 0.335731 7.220431 0.342923
v 0.335731 1.970431 -0.707078
v -0.364269 1.970431 -0.707078
v -0.364269 7.220431 -0.707077
v 0.335731 7.220431 -0.707077
v 0.335731 1.970431 -0.357078
v 0.335731 7.220431 -0.357077
v -0.364269 1.970431 -0.357078
v -0.364269 7.220431 -0.357077
v 0.335731 1.970431 0.342922
v -0.364269 1.970431 0.342922
v -0.364269 7.220431 0.342923
v 0.335731 7.220431 0.342923
v 0.335731 1.970431 0.692922
v 0.335731 7.220431 0.692923
v -0.364269 1.970431 0.692922
v -0.364269 7.220431 0.692923
vt 0.093750 0.093750
vt 0.156250 0.093750
vt 0.156250 0.375000
vt 0.093750 0.375000
vt 0.093750 0.093750
vt 0.156250 0.093750
vt 0.156250 0.375000
vt 0.093750 0.375000
vt 0.093750 0.093750
vt 0.156250 0.093750
vt 0.156250 0.375000
vt 0.093750 0.375000
vt 0.093750 0.093750
vt 0.156250 0.093750
vt 0.156250 0.375000
vt 0.093750 0.375000
vt 0.093750 0.093750
vt 0.156250 0.093750
vt 0.156250 0.156250
vt 0.093750 0.156250
vt 0.156250 0.156250
vt 0.093750 0.156250
vt 0.093750 0.375000
vt 0.156250 0.375000
vt 0.156250 0.687500
vt 0.093750 0.687500
vt 0.093750 0.375000
vt 0.156250 0.375000
vt 0.156250 0.687500
vt 0.093750 0.687500
vt 0.093750 0.375000
vt 0.156250 0.375000
vt 0.156250 0.687500
vt 0.093750 0.687500
vt 0.093750 0.375000
vt 0.156250 0.375000
vt 0.156250 0.687500
vt 0.093750 0.687500
vt 0.093750 0.750000
vt 0.156250 0.750000
vt 0.156250 0.812500
vt 0.093750 0.812500
vt 0.093750 0.750000
vt 0.156250 0.750000
vt 0.156250 0.812500
vt 0.093750 0.812500
vt 0.062500 0.375000
vt 0.093750 0.375000
vt 0.093750 0.687500
vt 0.062500 0.687500
vt 0.093750 0.375000
vt 0.156250 0.375000
vt 0.156250 0.687500
vt 0.093750 0.687500
vt 0.062500 0.375000
vt 0.062500 0.687500
vt 0.156250 0.375000
vt 0.156250 0.687500
vt 0.781250 0.875000
vt 0.812500 0.875000
vt 0.812500 0.937500
vt 0.781250 0.937500
vt 0.781250 0.875000
vt 0.812500 0.875000
vt 0.812500 0.937500
vt 0.781250 0.937500
vt 0.156250 0.375000
vt 0.187500 0.375000
vt 0.187500 0.687500
vt 0.156250 0.687500
vt 0.093750 0.375000
vt 0.093750 0.687500
vt 0.156250 0.375000
vt 0.187500 0.375000
vt 0.187500 0.687500
vt 0.156250 0.687500
vt 0.093750 0.375000
vt 0.093750 0.687500
vt 0.875000 0.875000
vt 0.906250 0.875000
vt 0.906250 0.937500
vt 0.875000 0.937500
vt 0.875000 0.875000
vt 0.906250 0.875000
vt 0.906250 0.937500
vt 0.875000 0.937500
vt 0.093750 0.375000
vt 0.156250 0.375000
vt 0.156250 0.687500
vt 0.093750 0.687500
vt 0.156250 0.375000
vt 0.187500 0.375000
vt 0.187500 0.687500
vt 0.156250 0.687500
vt 0.093750 0.375000
vt 0.093750 0.687500
vt 0.187500 0.375000
vt 0.187500 0.687500
vt 0.812500 0.937500
vt 0.875000 0.937500
vt 0.875000 0.968750
vt 0.812500 0.968750
vt 0.812500 0.937500
vt 0.875000 0.937500
vt 0.875000 0.968750
vt 0.812500 0.968750
vt 0.093750 0.375000
vt 0.156250 0.375000
vt 0.156250 0.687500
vt 0.093750 0.687500
vt 0.062500 0.375000
vt 0.062500 0.687500
vt 0.093750 0.375000
vt 0.156250 0.375000
vt 0.156250 0.687500
vt 0.093750 0.687500
vt 0.062500 0.375000
vt 0.062500 0.687500
vt 0.812500 0.843750
vt 0.875000 0.843750
vt 0.875000 0.875000
vt 0.812500 0.875000
vt 0.812500 0.843750
vt 0.875000 0.843750
vt 0.875000 0.875000
vt 0.812500 0.875000
vn 0.0000 0.0000 -1.0000
vn 1.0000 0.0000 0.0000
vn 0.0000 -0.0000 1.0000
vn -1.0000 0.0000 0.0000
vn 0.0000 1.0000 0.0000
vn 0.0000 -1.0000 0.0000
usemtl m_2ce90531-1a50-1e68-6fb2-214360bf67c1
s 1
f 1/1/1 2/2/1 3/3/1 4/4/1
f 5/5/2 1/6/2 4/7/2 6/8/2
f 7/9/3 5/10/3 6/11/3 8/12/3
f 2/13/4 7/14/4 8/15/4 3/16/4
f 8/17/5 6/18/5 4/19/5 3/20/5
f 2/13/6 1/6/6 5/21/6 7/22/6
f 9/23/1 10/24/1 11/25/1 12/26/1
f 13/27/2 9/28/2 12/29/2 14/30/2
f 15/31/3 13/32/3 14/33/3 16/34/3
f 10/35/4 15/36/4 16/37/4 11/38/4
f 16/39/5 14/40/5 12/41/5 11/42/5
f 10/43/6 9/44/6 13/45/6 15/46/6
f 17/47/1 18/48/1 19/49/1 20/50/1
f 21/51/2 17/52/2 20/53/2 22/54/2
f 23/55/3 21/51/3 22/54/3 24/56/3
f 18/48/4 23/57/4 24/58/4 19/49/4
f 24/59/5 22/60/5 20/61/5 19/62/5
f 18/63/6 17/64/6 21/65/6 23/66/6
f 25/67/1 26/68/1 27/69/1 28/70/1
f 29/71/2 25/67/2 28/70/2 30/72/2
f 31/73/3 29/74/3 30/75/3 32/76/3
f 26/77/4 31/73/4 32/76/4 27/78/4
f 32/79/5 30/80/5 28/81/5 27/82/5
f 26/83/6 25/84/6 29/85/6 31/86/6
f 33/87/1 34/88/1 35/89/1 36/90/1
f 37/91/2 33/92/2 36/93/2 38/94/2
f 39/95/3 37/91/3 38/94/3 40/96/3
f 34/88/4 39/97/4 40/98/4 35/89/4
f 40/99/5 38/100/5 36/101/5 35/102/5
f 34/103/6 33/104/6 37/105/6 39/106/6
f 41/107/1 42/108/1 43/109/1 44/110/1
f 45/111/2 41/107/2 44/110/2 46/112/2
f 47/113/3 45/114/3 46/115/3 48/116/3
f 42/117/4 47/113/4 48/116/4 43/118/4
f 48/119/5 46/120/5 44/121/5 43/122/5
f 42/123/6 41/124/6 45/125/6 47/126/6
