# Blender v2.80 (sub 75) OBJ File: ''
# www.blender.org
mtllib m84.mtl
o grenadeModel
v -0.812500 -1.178194 0.497958
v -0.487500 -1.178194 0.497958
v -0.487500 -0.528194 0.497958
v -0.812500 -0.528194 0.497958
v -0.812500 -1.178194 -0.477042
v -0.812500 -0.528194 -0.477042
v -0.487500 -1.178194 -0.477042
v -0.487500 -0.528194 -0.477042
v -0.487500 -0.528194 0.497958
v 0.487500 -0.528194 0.497958
v 0.487500 1.096806 0.497958
v -0.487500 1.096806 0.497958
v -0.487500 -0.528194 -0.477042
v -0.487500 1.096806 -0.477042
v 0.487500 -0.528194 -0.477042
v 0.487500 1.096806 -0.477042
v -0.487500 1.746806 0.497958
v 0.487500 1.746806 0.497958
v 0.487500 2.396806 0.497958
v -0.487500 2.396806 0.497958
v -0.487500 1.746806 -0.477042
v -0.487500 2.396806 -0.477042
v 0.487500 1.746806 -0.477042
v 0.487500 2.396806 -0.477042
v -0.325000 1.746806 -0.477042
v 0.325000 1.746806 -0.477042
v 0.325000 2.071806 -0.477042
v -0.325000 2.071806 -0.477042
v -0.325000 1.746806 -0.802042
v -0.325000 2.071806 -0.802042
v 0.325000 1.746806 -0.802042
v 0.325000 2.071806 -0.802042
v -0.325000 1.421806 -0.802042
v 0.325000 1.421806 -0.802042
v 0.325000 1.746806 -0.802042
v -0.325000 1.746806 -0.802042
v -0.325000 1.421806 -1.127042
v -0.325000 1.746806 -1.127042
v 0.325000 1.421806 -1.127042
v 0.325000 1.746806 -1.127042
v -0.325000 -0.203194 -0.802042
v 0.325000 -0.203194 -0.802042
v 0.325000 1.421806 -0.802042
v -0.325000 1.421806 -0.802042
v -0.325000 -0.203194 -1.127042
v -0.325000 1.421806 -1.127042
v 0.325000 -0.203194 -1.127042
v 0.325000 1.421806 -1.127042
v -0.487500 -1.178194 -0.477042
v 0.487500 -1.178194 -0.477042
v 0.487500 -0.528194 -0.477042
v -0.487500 -0.528194 -0.477042
v -0.487500 -1.178194 -0.802042
v -0.487500 -0.528194 -0.802042
v 0.487500 -1.178194 -0.802042
v 0.487500 -0.528194 -0.802042
v -0.487500 -1.178194 0.497958
v 0.487500 -1.178194 0.497958
v 0.487500 -0.528194 0.497958
v -0.487500 -0.528194 0.497958
v -0.487500 -1.178194 -0.477042
v -0.487500 -0.528194 -0.477042
v 0.487500 -1.178194 -0.477042
v 0.487500 -0.528194 -0.477042
v -0.487500 -1.178194 0.822958
v 0.487500 -1.178194 0.822958
v 0.487500 -0.528194 0.822958
v -0.487500 -0.528194 0.822958
v -0.487500 -1.178194 0.497958
v -0.487500 -0.528194 0.497958
v 0.487500 -1.178194 0.497958
v 0.487500 -0.528194 0.497958
v 0.487500 -1.178194 0.497958
v 0.812500 -1.178194 0.497958
v 0.812500 -0.528194 0.497958
v 0.487500 -0.528194 0.497958
v 0.487500 -1.178194 -0.477042
v 0.487500 -0.528194 -0.477042
v 0.812500 -1.178194 -0.477042
v 0.812500 -0.528194 -0.477042
v -0.487500 1.096806 -0.477042
v 0.487500 1.096806 -0.477042
v 0.487500 1.746806 -0.477042
v -0.487500 1.746806 -0.477042
v -0.487500 1.096806 -0.802042
v -0.487500 1.746806 -0.802042
v 0.487500 1.096806 -0.802042
v 0.487500 1.746806 -0.802042
v -0.812500 1.096806 0.497958
v -0.487500 1.096806 0.497958
v -0.487500 1.746806 0.497958
v -0.812500 1.746806 0.497958
v -0.812500 1.096806 -0.477042
v -0.812500 1.746806 -0.477042
v -0.487500 1.096806 -0.477042
v -0.487500 1.746806 -0.477042
v -0.487500 1.096806 0.822958
v 0.487500 1.096806 0.822958
v 0.487500 1.746806 0.822958
v -0.487500 1.746806 0.822958
v -0.487500 1.096806 0.497958
v -0.487500 1.746806 0.497958
v 0.487500 1.096806 0.497958
v 0.487500 1.746806 0.497958
v -0.487500 1.096806 0.497958
v 0.487500 1.096806 0.497958
v 0.487500 1.746806 0.497958
v -0.487500 1.746806 0.497958
v -0.487500 1.096806 -0.477042
v -0.487500 1.746806 -0.477042
v 0.487500 1.096806 -0.477042
v 0.487500 1.746806 -0.477042
v 0.487500 1.096806 0.497958
v 0.812500 1.096806 0.497958
v 0.812500 1.746806 0.497958
v 0.487500 1.746806 0.497958
v 0.487500 1.096806 -0.477042
v 0.487500 1.746806 -0.477042
v 0.812500 1.096806 -0.477042
v 0.812500 1.746806 -0.477042
vt 0.000000 0.312500
vt 0.062500 0.312500
vt 0.062500 0.437500
vt 0.000000 0.437500
vt 0.062500 0.312500
vt 0.250000 0.312500
vt 0.250000 0.437500
vt 0.062500 0.437500
vt 0.250000 0.312500
vt 0.312500 0.312500
vt 0.312500 0.437500
vt 0.250000 0.437500
vt 0.375000 0.062500
vt 0.437500 0.062500
vt 0.437500 0.250000
vt 0.375000 0.250000
vt 0.687500 0.500000
vt 0.750000 0.500000
vt 0.750000 0.687500
vt 0.687500 0.687500
vt 0.062500 0.437500
vt 0.250000 0.437500
vt 0.250000 0.750000
vt 0.062500 0.750000
vt 0.062500 0.437500
vt 0.250000 0.437500
vt 0.250000 0.750000
vt 0.062500 0.750000
vt 0.062500 0.437500
vt 0.250000 0.437500
vt 0.250000 0.750000
vt 0.062500 0.750000
vt 0.062500 0.437500
vt 0.250000 0.437500
vt 0.250000 0.750000
vt 0.062500 0.750000
vt 0.500000 0.500000
vt 0.687500 0.500000
vt 0.687500 0.687500
vt 0.500000 0.687500
vt 0.500000 0.500000
vt 0.687500 0.500000
vt 0.687500 0.687500
vt 0.500000 0.687500
vt 0.062500 0.875000
vt 0.250000 0.875000
vt 0.250000 1.000000
vt 0.062500 1.000000
vt 0.062500 0.875000
vt 0.250000 0.875000
vt 0.250000 1.000000
vt 0.062500 1.000000
vt 0.062500 0.875000
vt 0.250000 0.875000
vt 0.250000 1.000000
vt 0.062500 1.000000
vt 0.062500 0.875000
vt 0.250000 0.875000
vt 0.250000 1.000000
vt 0.062500 1.000000
vt 0.500000 0.500000
vt 0.687500 0.500000
vt 0.687500 0.687500
vt 0.500000 0.687500
vt 0.500000 0.500000
vt 0.687500 0.500000
vt 0.687500 0.687500
vt 0.500000 0.687500
vt 0.250000 0.875000
vt 0.312500 0.875000
vt 0.312500 0.937500
vt 0.250000 0.937500
vt 0.250000 0.875000
vt 0.312500 0.875000
vt 0.312500 0.937500
vt 0.250000 0.937500
vt 0.250000 0.875000
vt 0.312500 0.875000
vt 0.312500 0.937500
vt 0.250000 0.937500
vt 0.250000 0.875000
vt 0.312500 0.875000
vt 0.312500 0.937500
vt 0.250000 0.937500
vt 0.250000 0.875000
vt 0.312500 0.875000
vt 0.312500 0.937500
vt 0.250000 0.937500
vt 0.312500 0.812500
vt 0.375000 0.812500
vt 0.375000 0.875000
vt 0.312500 0.875000
vt 0.312500 0.812500
vt 0.375000 0.812500
vt 0.375000 0.875000
vt 0.312500 0.875000
vt 0.312500 0.812500
vt 0.375000 0.812500
vt 0.375000 0.875000
vt 0.312500 0.875000
vt 0.312500 0.812500
vt 0.375000 0.812500
vt 0.375000 0.875000
vt 0.312500 0.875000
vt 0.312500 0.812500
vt 0.375000 0.812500
vt 0.375000 0.875000
vt 0.312500 0.875000
vt 0.312500 0.500000
vt 0.375000 0.500000
vt 0.375000 0.812500
vt 0.312500 0.812500
vt 0.312500 0.500000
vt 0.375000 0.500000
vt 0.375000 0.812500
vt 0.312500 0.812500
vt 0.312500 0.500000
vt 0.375000 0.500000
vt 0.375000 0.812500
vt 0.312500 0.812500
vt 0.312500 0.500000
vt 0.375000 0.500000
vt 0.375000 0.812500
vt 0.312500 0.812500
vt 0.312500 0.750000
vt 0.375000 0.750000
vt 0.375000 0.562500
vt 0.312500 0.562500
vt 0.062500 0.312500
vt 0.250000 0.312500
vt 0.250000 0.437500
vt 0.062500 0.437500
vt 0.000000 0.312500
vt 0.000000 0.437500
vt 0.062500 0.312500
vt 0.250000 0.312500
vt 0.250000 0.437500
vt 0.062500 0.437500
vt 0.312500 0.312500
vt 0.312500 0.437500
vt 0.062500 0.375000
vt 0.250000 0.375000
vt 0.250000 0.437500
vt 0.062500 0.437500
vt 0.500000 0.437500
vt 0.687500 0.437500
vt 0.687500 0.500000
vt 0.500000 0.500000
vt 0.062500 0.312500
vt 0.250000 0.312500
vt 0.250000 0.437500
vt 0.062500 0.437500
vt 0.062500 0.312500
vt 0.250000 0.312500
vt 0.250000 0.437500
vt 0.062500 0.437500
vt 0.062500 0.312500
vt 0.250000 0.312500
vt 0.250000 0.437500
vt 0.062500 0.437500
vt 0.062500 0.312500
vt 0.250000 0.312500
vt 0.250000 0.437500
vt 0.062500 0.437500
vt 0.500000 0.500000
vt 0.687500 0.500000
vt 0.687500 0.687500
vt 0.500000 0.687500
vt 0.500000 0.500000
vt 0.687500 0.500000
vt 0.687500 0.687500
vt 0.500000 0.687500
vt 0.062500 0.312500
vt 0.250000 0.312500
vt 0.250000 0.437500
vt 0.062500 0.437500
vt 0.250000 0.312500
vt 0.312500 0.312500
vt 0.312500 0.437500
vt 0.250000 0.437500
vt 0.062500 0.312500
vt 0.062500 0.437500
vt 0.000000 0.312500
vt 0.000000 0.437500
vt 0.062500 0.375000
vt 0.250000 0.375000
vt 0.250000 0.437500
vt 0.062500 0.437500
vt 0.500000 0.687500
vt 0.687500 0.687500
vt 0.687500 0.750000
vt 0.500000 0.750000
vt 0.250000 0.312500
vt 0.312500 0.312500
vt 0.312500 0.437500
vt 0.250000 0.437500
vt 0.062500 0.312500
vt 0.062500 0.437500
vt 0.000000 0.312500
vt 0.000000 0.437500
vt 0.062500 0.312500
vt 0.250000 0.312500
vt 0.250000 0.437500
vt 0.062500 0.437500
vt 0.375000 0.062500
vt 0.437500 0.062500
vt 0.437500 0.250000
vt 0.375000 0.250000
vt 0.437500 0.500000
vt 0.500000 0.500000
vt 0.500000 0.687500
vt 0.437500 0.687500
vt 0.062500 0.750000
vt 0.250000 0.750000
vt 0.250000 0.875000
vt 0.062500 0.875000
vt 0.000000 0.750000
vt 0.000000 0.875000
vt 0.062500 0.750000
vt 0.250000 0.750000
vt 0.250000 0.875000
vt 0.062500 0.875000
vt 0.312500 0.750000
vt 0.312500 0.875000
vt 0.062500 0.812500
vt 0.250000 0.812500
vt 0.250000 0.875000
vt 0.062500 0.875000
vt 0.062500 0.750000
vt 0.250000 0.750000
vt 0.250000 0.812500
vt 0.062500 0.812500
vt 0.000000 0.750000
vt 0.062500 0.750000
vt 0.062500 0.875000
vt 0.000000 0.875000
vt 0.062500 0.750000
vt 0.250000 0.750000
vt 0.250000 0.875000
vt 0.062500 0.875000
vt 0.250000 0.750000
vt 0.312500 0.750000
vt 0.312500 0.875000
vt 0.250000 0.875000
vt 0.812500 0.062500
vt 0.875000 0.062500
vt 0.875000 0.250000
vt 0.812500 0.250000
vt 0.750000 0.062500
vt 0.812500 0.062500
vt 0.812500 0.250000
vt 0.750000 0.250000
vt 0.062500 0.750000
vt 0.250000 0.750000
vt 0.250000 0.875000
vt 0.062500 0.875000
vt 0.250000 0.750000
vt 0.312500 0.750000
vt 0.312500 0.875000
vt 0.250000 0.875000
vt 0.062500 0.750000
vt 0.062500 0.875000
vt 0.000000 0.750000
vt 0.000000 0.875000
vt 0.062500 0.812500
vt 0.250000 0.812500
vt 0.250000 0.875000
vt 0.062500 0.875000
vt 0.062500 0.750000
vt 0.250000 0.750000
vt 0.250000 0.812500
vt 0.062500 0.812500
vt 0.000000 0.937500
vt 0.062500 0.937500
vt 0.062500 1.000000
vt 0.000000 1.000000
vt 0.000000 0.937500
vt 0.062500 0.937500
vt 0.062500 1.000000
vt 0.000000 1.000000
vt 0.000000 0.937500
vt 0.062500 0.937500
vt 0.062500 1.000000
vt 0.000000 1.000000
vt 0.000000 0.937500
vt 0.062500 0.937500
vt 0.062500 1.000000
vt 0.000000 1.000000
vt 0.000000 0.937500
vt 0.062500 0.937500
vt 0.062500 1.000000
vt 0.000000 1.000000
vt 0.250000 0.750000
vt 0.312500 0.750000
vt 0.312500 0.875000
vt 0.250000 0.875000
vt 0.062500 0.750000
vt 0.062500 0.875000
vt 0.000000 0.750000
vt 0.000000 0.875000
vt 0.062500 0.750000
vt 0.250000 0.750000
vt 0.250000 0.875000
vt 0.062500 0.875000
vt 0.812500 0.062500
vt 0.875000 0.062500
vt 0.875000 0.250000
vt 0.812500 0.250000
vt 0.750000 0.062500
vt 0.812500 0.062500
vt 0.812500 0.250000
vt 0.750000 0.250000
vn 0.0000 0.0000 1.0000
vn -1.0000 0.0000 0.0000
vn 0.0000 -0.0000 -1.0000
vn 1.0000 0.0000 -0.0000
vn -0.0000 1.0000 -0.0000
vn 0.0000 -1.0000 0.0000
usemtl m_e3c9e43e-8c71-4769-989c-5e7d5b5f3f98
s 1
f 1/1/1 2/2/1 3/3/1 4/4/1
f 5/5/2 1/6/2 4/7/2 6/8/2
f 7/9/3 5/10/3 6/11/3 8/12/3
f 2/2/4 7/9/4 8/12/4 3/3/4
f 8/13/5 6/14/5 4/15/5 3/16/5
f 2/17/6 1/18/6 5/19/6 7/20/6
f 9/21/1 10/22/1 11/23/1 12/24/1
f 13/25/2 9/26/2 12/27/2 14/28/2
f 15/29/3 13/30/3 14/31/3 16/32/3
f 10/33/4 15/34/4 16/35/4 11/36/4
f 16/37/5 14/38/5 12/39/5 11/40/5
f 10/41/6 9/42/6 13/43/6 15/44/6
f 17/45/1 18/46/1 19/47/1 20/48/1
f 21/49/2 17/50/2 20/51/2 22/52/2
f 23/53/3 21/54/3 22/55/3 24/56/3
f 18/57/4 23/58/4 24/59/4 19/60/4
f 24/61/5 22/62/5 20/63/5 19/64/5
f 18/65/6 17/66/6 21/67/6 23/68/6
f 25/69/1 26/70/1 27/71/1 28/72/1
f 29/73/2 25/74/2 28/75/2 30/76/2
f 31/77/3 29/78/3 30/79/3 32/80/3
f 26/81/4 31/82/4 32/83/4 27/84/4
f 32/85/5 30/86/5 28/75/5 27/84/5
f 26/81/6 25/74/6 29/87/6 31/88/6
f 33/89/1 34/90/1 35/91/1 36/92/1
f 37/93/2 33/94/2 36/95/2 38/96/2
f 39/97/3 37/98/3 38/99/3 40/100/3
f 34/101/4 39/102/4 40/103/4 35/104/4
f 40/105/5 38/106/5 36/95/5 35/104/5
f 34/101/6 33/94/6 37/107/6 39/108/6
f 41/109/1 42/110/1 43/111/1 44/112/1
f 45/113/2 41/114/2 44/115/2 46/116/2
f 47/117/3 45/118/3 46/119/3 48/120/3
f 42/121/4 47/122/4 48/123/4 43/124/4
f 48/125/5 46/126/5 44/115/5 43/124/5
f 42/121/6 41/114/6 45/127/6 47/128/6
f 49/129/1 50/130/1 51/131/1 52/132/1
f 53/133/2 49/129/2 52/132/2 54/134/2
f 55/135/3 53/136/3 54/137/3 56/138/3
f 50/130/4 55/139/4 56/140/4 51/131/4
f 56/141/5 54/142/5 52/143/5 51/144/5
f 50/145/6 49/146/6 53/147/6 55/148/6
f 57/149/1 58/150/1 59/151/1 60/152/1
f 61/153/2 57/154/2 60/155/2 62/156/2
f 63/157/3 61/158/3 62/159/3 64/160/3
f 58/161/4 63/162/4 64/163/4 59/164/4
f 64/165/5 62/166/5 60/167/5 59/168/5
f 58/169/6 57/170/6 61/171/6 63/172/6
f 65/173/1 66/174/1 67/175/1 68/176/1
f 69/177/2 65/178/2 68/179/2 70/180/2
f 71/181/3 69/177/3 70/180/3 72/182/3
f 66/183/4 71/181/4 72/182/4 67/184/4
f 72/185/5 70/186/5 68/187/5 67/188/5
f 66/189/6 65/190/6 69/191/6 71/192/6
f 73/193/1 74/194/1 75/195/1 76/196/1
f 77/197/2 73/193/2 76/196/2 78/198/2
f 79/199/3 77/197/3 78/198/3 80/200/3
f 74/201/4 79/202/4 80/203/4 75/204/4
f 80/205/5 78/206/5 76/207/5 75/208/5
f 74/209/6 73/210/6 77/211/6 79/212/6
f 81/213/1 82/214/1 83/215/1 84/216/1
f 85/217/2 81/213/2 84/216/2 86/218/2
f 87/219/3 85/220/3 86/221/3 88/222/3
f 82/214/4 87/223/4 88/224/4 83/215/4
f 88/225/5 86/226/5 84/227/5 83/228/5
f 82/229/6 81/230/6 85/231/6 87/232/6
f 89/233/1 90/234/1 91/235/1 92/236/1
f 93/237/2 89/238/2 92/239/2 94/240/2
f 95/241/3 93/242/3 94/243/3 96/244/3
f 90/234/4 95/241/4 96/244/4 91/235/4
f 96/245/5 94/246/5 92/247/5 91/248/5
f 90/249/6 89/250/6 93/251/6 95/252/6
f 97/253/1 98/254/1 99/255/1 100/256/1
f 101/257/2 97/258/2 100/259/2 102/260/2
f 103/261/3 101/257/3 102/260/3 104/262/3
f 98/263/4 103/261/4 104/262/4 99/264/4
f 104/265/5 102/266/5 100/267/5 99/268/5
f 98/269/6 97/270/6 101/271/6 103/272/6
f 105/273/1 106/274/1 107/275/1 108/276/1
f 109/277/2 105/278/2 108/279/2 110/280/2
f 111/281/3 109/282/3 110/283/3 112/284/3
f 106/285/4 111/286/4 112/287/4 107/288/4
f 112/289/5 110/290/5 108/279/5 107/288/5
f 106/285/6 105/278/6 109/291/6 111/292/6
f 113/293/1 114/294/1 115/295/1 116/296/1
f 117/297/2 113/293/2 116/296/2 118/298/2
f 119/299/3 117/297/3 118/298/3 120/300/3
f 114/301/4 119/302/4 120/303/4 115/304/4
f 120/305/5 118/306/5 116/307/5 115/308/5
f 114/309/6 113/310/6 117/311/6 119/312/6
