# Blender v2.80 (sub 75) OBJ File: ''
# www.blender.org
mtllib m61.mtl
o grenadeModel
v 0.900000 -1.190969 -0.888927
v -0.900000 -1.190969 -0.888927
v -0.900000 -0.290969 -0.888927
v 0.900000 -0.290969 -0.888927
v 0.900000 -1.190969 0.911073
v 0.900000 -0.290969 0.911073
v -0.900000 -1.190969 0.911073
v -0.900000 -0.290969 0.911073
v 1.350000 -0.290969 -1.338927
v -1.350000 -0.290969 -1.338927
v -1.350000 0.609031 -1.338927
v 1.350000 0.609031 -1.338927
v 1.350000 -0.290969 1.361073
v 1.350000 0.609031 1.361073
v -1.350000 -0.290969 1.361073
v -1.350000 0.609031 1.361073
v 0.900000 0.609031 -0.888927
v -0.900000 0.609031 -0.888927
v -0.900000 1.509031 -0.888927
v 0.900000 1.509031 -0.888927
v 0.900000 0.609031 0.911073
v 0.900000 1.509031 0.911073
v -0.900000 0.609031 0.911073
v -0.900000 1.509031 0.911073
v 0.450000 1.509031 -0.438927
v -0.450000 1.509031 -0.438927
v -0.450000 2.409031 -0.438926
v 0.450000 2.409031 -0.438926
v 0.450000 1.509031 0.461073
v 0.450000 2.409031 0.461074
v -0.450000 1.509031 0.461073
v -0.450000 2.409031 0.461074
v 0.450000 1.959031 -0.888926
v -0.450000 1.959031 -0.888926
v -0.450000 2.409031 -0.888926
v 0.450000 2.409031 -0.888926
v 0.450000 1.959031 -0.438926
v 0.450000 2.409031 -0.438926
v -0.450000 1.959031 -0.438926
v -0.450000 2.409031 -0.438926
v 0.450000 1.509031 -1.338926
v -0.450000 1.509031 -1.338926
v -0.450000 1.959031 -1.338926
v 0.450000 1.959031 -1.338926
v 0.450000 1.509031 -0.888927
v 0.450000 1.959031 -0.888926
v -0.450000 1.509031 -0.888927
v -0.450000 1.959031 -0.888926
v 0.450000 0.609031 -1.788927
v -0.450000 0.609031 -1.788927
v -0.450000 1.509031 -1.788926
v 0.450000 1.509031 -1.788926
v 0.450000 0.609031 -1.338927
v 0.450000 1.509031 -1.338926
v -0.450000 0.609031 -1.338927
v -0.450000 1.509031 -1.338926
v 0.450000 -0.290969 -1.788927
v -0.450000 -0.290969 -1.788927
v -0.450000 0.609031 -1.788927
v 0.450000 0.609031 -1.788927
v 0.450000 -0.290969 -1.338927
v 0.450000 0.609031 -1.338927
v -0.450000 -0.290969 -1.338927
v -0.450000 0.609031 -1.338927
vt 0.187500 0.437500
vt 0.437500 0.437500
vt 0.437500 0.562500
vt 0.187500 0.562500
vt 0.187500 0.437500
vt 0.437500 0.437500
vt 0.437500 0.562500
vt 0.187500 0.562500
vt 0.187500 0.437500
vt 0.437500 0.437500
vt 0.437500 0.562500
vt 0.187500 0.562500
vt 0.187500 0.437500
vt 0.437500 0.437500
vt 0.437500 0.562500
vt 0.187500 0.562500
vt 0.062500 0.125000
vt 0.312500 0.125000
vt 0.312500 0.375000
vt 0.062500 0.375000
vt 0.062500 0.125000
vt 0.312500 0.125000
vt 0.312500 0.375000
vt 0.062500 0.375000
vt 0.125000 0.562500
vt 0.500000 0.562500
vt 0.500000 0.687500
vt 0.125000 0.687500
vt 0.125000 0.562500
vt 0.500000 0.562500
vt 0.500000 0.687500
vt 0.125000 0.687500
vt 0.125000 0.562500
vt 0.500000 0.562500
vt 0.500000 0.687500
vt 0.125000 0.687500
vt 0.125000 0.562500
vt 0.500000 0.562500
vt 0.500000 0.687500
vt 0.125000 0.687500
vt 0.562500 0.562500
vt 0.937500 0.562500
vt 0.937500 0.937500
vt 0.562500 0.937500
vt 0.562500 0.562500
vt 0.937500 0.562500
vt 0.937500 0.937500
vt 0.562500 0.937500
vt 0.187500 0.687500
vt 0.437500 0.687500
vt 0.437500 0.812500
vt 0.187500 0.812500
vt 0.187500 0.687500
vt 0.437500 0.687500
vt 0.437500 0.812500
vt 0.187500 0.812500
vt 0.187500 0.687500
vt 0.437500 0.687500
vt 0.437500 0.812500
vt 0.187500 0.812500
vt 0.187500 0.687500
vt 0.437500 0.687500
vt 0.437500 0.812500
vt 0.187500 0.812500
vt 0.062500 0.125000
vt 0.312500 0.125000
vt 0.312500 0.375000
vt 0.062500 0.375000
vt 0.062500 0.125000
vt 0.312500 0.125000
vt 0.312500 0.375000
vt 0.062500 0.375000
vt 0.250000 0.812500
vt 0.375000 0.812500
vt 0.375000 0.937500
vt 0.250000 0.937500
vt 0.250000 0.812500
vt 0.375000 0.812500
vt 0.375000 0.937500
vt 0.250000 0.937500
vt 0.250000 0.812500
vt 0.375000 0.812500
vt 0.375000 0.937500
vt 0.250000 0.937500
vt 0.250000 0.812500
vt 0.375000 0.812500
vt 0.375000 0.937500
vt 0.250000 0.937500
vt 0.812500 0.250000
vt 0.937500 0.250000
vt 0.937500 0.375000
vt 0.812500 0.375000
vt 0.812500 0.250000
vt 0.937500 0.250000
vt 0.937500 0.375000
vt 0.812500 0.375000
vt 0.187500 0.875000
vt 0.250000 0.875000
vt 0.250000 0.937500
vt 0.187500 0.937500
vt 0.187500 0.875000
vt 0.250000 0.875000
vt 0.250000 0.937500
vt 0.187500 0.937500
vt 0.187500 0.875000
vt 0.250000 0.875000
vt 0.250000 0.937500
vt 0.187500 0.937500
vt 0.187500 0.875000
vt 0.250000 0.875000
vt 0.250000 0.937500
vt 0.187500 0.937500
vt 0.187500 0.875000
vt 0.250000 0.875000
vt 0.250000 0.937500
vt 0.187500 0.937500
vt 0.125000 0.812500
vt 0.187500 0.812500
vt 0.187500 0.875000
vt 0.125000 0.875000
vt 0.125000 0.812500
vt 0.187500 0.812500
vt 0.187500 0.875000
vt 0.125000 0.875000
vt 0.125000 0.812500
vt 0.187500 0.812500
vt 0.187500 0.875000
vt 0.125000 0.875000
vt 0.125000 0.812500
vt 0.187500 0.812500
vt 0.187500 0.875000
vt 0.125000 0.875000
vt 0.125000 0.812500
vt 0.187500 0.812500
vt 0.187500 0.875000
vt 0.125000 0.875000
vt 0.062500 0.687500
vt 0.125000 0.687500
vt 0.125000 0.812500
vt 0.062500 0.812500
vt 0.062500 0.687500
vt 0.125000 0.687500
vt 0.125000 0.812500
vt 0.062500 0.812500
vt 0.062500 0.687500
vt 0.125000 0.687500
vt 0.125000 0.812500
vt 0.062500 0.812500
vt 0.062500 0.687500
vt 0.125000 0.687500
vt 0.125000 0.812500
vt 0.062500 0.812500
vt 0.062500 0.750000
vt 0.125000 0.750000
vt 0.125000 0.750000
vt 0.062500 0.750000
vt 0.062500 0.562500
vt 0.125000 0.562500
vt 0.125000 0.687500
vt 0.062500 0.687500
vt 0.062500 0.562500
vt 0.125000 0.562500
vt 0.125000 0.687500
vt 0.062500 0.687500
vt 0.062500 0.562500
vt 0.125000 0.562500
vt 0.125000 0.687500
vt 0.062500 0.687500
vt 0.062500 0.562500
vt 0.125000 0.562500
vt 0.125000 0.687500
vt 0.062500 0.687500
vt 0.062500 0.625000
vt 0.125000 0.625000
vt 0.125000 0.625000
vt 0.062500 0.625000
vn 0.0000 0.0000 -1.0000
vn 1.0000 0.0000 0.0000
vn 0.0000 -0.0000 1.0000
vn -1.0000 0.0000 0.0000
vn 0.0000 1.0000 0.0000
vn 0.0000 -1.0000 -0.0000
usemtl m_18e9bb4c-b5d8-3a23-b711-cc2d3d1e7d18.001
s 1
f 1/1/1 2/2/1 3/3/1 4/4/1
f 5/5/2 1/6/2 4/7/2 6/8/2
f 7/9/3 5/10/3 6/11/3 8/12/3
f 2/13/4 7/14/4 8/15/4 3/16/4
f 8/17/5 6/18/5 4/19/5 3/20/5
f 2/21/6 1/22/6 5/23/6 7/24/6
f 9/25/1 10/26/1 11/27/1 12/28/1
f 13/29/2 9/30/2 12/31/2 14/32/2
f 15/33/3 13/34/3 14/35/3 16/36/3
f 10/37/4 15/38/4 16/39/4 11/40/4
f 16/41/5 14/42/5 12/43/5 11/44/5
f 10/45/6 9/46/6 13/47/6 15/48/6
f 17/49/1 18/50/1 19/51/1 20/52/1
f 21/53/2 17/54/2 20/55/2 22/56/2
f 23/57/3 21/58/3 22/59/3 24/60/3
f 18/61/4 23/62/4 24/63/4 19/64/4
f 24/65/5 22/66/5 20/67/5 19/68/5
f 18/69/6 17/70/6 21/71/6 23/72/6
f 25/73/1 26/74/1 27/75/1 28/76/1
f 29/77/2 25/78/2 28/79/2 30/80/2
f 31/81/3 29/82/3 30/83/3 32/84/3
f 26/85/4 31/86/4 32/87/4 27/88/4
f 32/89/5 30/90/5 28/91/5 27/92/5
f 26/93/6 25/94/6 29/95/6 31/96/6
f 33/97/1 34/98/1 35/99/1 36/100/1
f 37/101/2 33/102/2 36/103/2 38/104/2
f 39/105/3 37/106/3 38/107/3 40/108/3
f 34/109/4 39/110/4 40/111/4 35/112/4
f 40/113/5 38/114/5 36/103/5 35/112/5
f 34/109/6 33/102/6 37/115/6 39/116/6
f 41/117/1 42/118/1 43/119/1 44/120/1
f 45/121/2 41/122/2 44/123/2 46/124/2
f 47/125/3 45/126/3 46/127/3 48/128/3
f 42/129/4 47/130/4 48/131/4 43/132/4
f 48/133/5 46/134/5 44/123/5 43/132/5
f 42/129/6 41/122/6 45/135/6 47/136/6
f 49/137/1 50/138/1 51/139/1 52/140/1
f 53/141/2 49/142/2 52/143/2 54/144/2
f 55/145/3 53/146/3 54/147/3 56/148/3
f 50/149/4 55/150/4 56/151/4 51/152/4
f 56/153/5 54/154/5 52/143/5 51/152/5
f 50/149/6 49/142/6 53/155/6 55/156/6
f 57/157/1 58/158/1 59/159/1 60/160/1
f 61/161/2 57/162/2 60/163/2 62/164/2
f 63/165/3 61/166/3 62/167/3 64/168/3
f 58/169/4 63/170/4 64/171/4 59/172/4
f 64/173/5 62/174/5 60/163/5 59/172/5
f 58/169/6 57/162/6 61/175/6 63/176/6
