# Blender v2.80 (sub 75) OBJ File: ''
# www.blender.org
mtllib mk3.mtl
o grenadeModel
v 0.751691 -1.185282 1.124823
v 0.751691 -1.185282 0.749823
v 0.751691 1.814718 0.749823
v 0.751691 1.814718 1.124823
v -0.748309 -1.185282 1.124823
v -0.748309 1.814718 1.124823
v -0.748309 -1.185282 0.749823
v -0.748309 1.814718 0.749823
v 1.126691 -1.185282 0.749823
v 1.126691 -1.185282 -0.750177
v 1.126690 1.814718 -0.750177
v 1.126691 1.814718 0.749823
v 0.751691 -1.185282 0.749823
v 0.751691 1.814718 0.749823
v 0.751691 -1.185282 -0.750177
v 0.751690 1.814718 -0.750177
v -0.748309 -1.185282 0.749823
v -0.748309 -1.185282 -0.750177
v -0.748310 1.814718 -0.750177
v -0.748309 1.814718 0.749823
v -1.123309 -1.185282 0.749823
v -1.123310 1.814718 0.749823
v -1.123309 -1.185282 -0.750177
v -1.123310 1.814718 -0.750177
v 0.751691 -1.185282 -0.750177
v 0.751691 -1.185282 -1.125177
v 0.751690 1.814718 -1.125177
v 0.751690 1.814718 -0.750177
v -0.748309 -1.185282 -0.750177
v -0.748310 1.814718 -0.750177
v -0.748309 -1.185282 -1.125177
v -0.748310 1.814718 -1.125177
v 0.751691 -1.185282 0.749823
v 0.751691 -1.185282 -0.750177
v 0.751690 1.814718 -0.750177
v 0.751691 1.814718 0.749823
v -0.748309 -1.185282 0.749823
v -0.748309 1.814718 0.749823
v -0.748309 -1.185282 -0.750177
v -0.748310 1.814718 -0.750177
v 0.376690 1.814718 0.374823
v 0.376690 1.814718 -0.375177
v 0.376690 2.564718 -0.375177
v 0.376690 2.564718 0.374823
v -0.373310 1.814718 0.374823
v -0.373310 2.564718 0.374823
v -0.373310 1.814718 -0.375177
v -0.373310 2.564718 -0.375177
v 0.376690 1.814718 -0.375177
v 0.376690 1.814718 -1.500177
v 0.376690 2.189718 -1.500177
v 0.376690 2.189718 -0.375177
v -0.373310 1.814718 -0.375177
v -0.373310 2.189718 -0.375177
v -0.373310 1.814718 -1.500177
v -0.373310 2.189718 -1.500177
v 0.376691 -0.060282 -1.125177
v 0.376691 -0.060282 -1.500177
v 0.376690 1.814718 -1.500177
v 0.376690 1.814718 -1.125177
v -0.373309 -0.060282 -1.125177
v -0.373310 1.814718 -1.125177
v -0.373309 -0.060282 -1.500177
v -0.373310 1.814718 -1.500177
vt 0.000000 0.375000
vt 0.062500 0.375000
vt 0.062500 0.875000
vt 0.000000 0.875000
vt 0.062500 0.375000
vt 0.312500 0.375000
vt 0.312500 0.875000
vt 0.062500 0.875000
vt 0.000000 0.375000
vt 0.000000 0.875000
vt 0.312500 0.375000
vt 0.312500 0.875000
vt 0.312500 0.062500
vt 0.375000 0.062500
vt 0.375000 0.312500
vt 0.312500 0.312500
vt 0.312500 0.062500
vt 0.375000 0.062500
vt 0.375000 0.312500
vt 0.312500 0.312500
vt 0.062500 0.375000
vt 0.312500 0.375000
vt 0.312500 0.875000
vt 0.062500 0.875000
vt 0.000000 0.375000
vt 0.000000 0.875000
vt 0.000000 0.937500
vt 0.062500 0.937500
vt 0.062500 1.000000
vt 0.000000 1.000000
vt 0.000000 0.375000
vt 0.062500 0.375000
vt 0.062500 0.875000
vt 0.000000 0.875000
vt 0.375000 0.312500
vt 0.625000 0.312500
vt 0.625000 0.375000
vt 0.375000 0.375000
vt 0.375000 0.312500
vt 0.625000 0.312500
vt 0.625000 0.375000
vt 0.375000 0.375000
vt 0.000000 0.937500
vt 0.062500 0.937500
vt 0.062500 1.000000
vt 0.000000 1.000000
vt 0.312500 0.375000
vt 0.375000 0.375000
vt 0.375000 0.875000
vt 0.312500 0.875000
vt 0.062500 0.375000
vt 0.062500 0.875000
vt 0.312500 0.375000
vt 0.375000 0.375000
vt 0.375000 0.875000
vt 0.312500 0.875000
vt 0.375000 0.000000
vt 0.625000 0.000000
vt 0.625000 0.062500
vt 0.375000 0.062500
vt 0.375000 0.000000
vt 0.625000 0.000000
vt 0.625000 0.062500
vt 0.375000 0.062500
vt 0.312500 0.375000
vt 0.375000 0.375000
vt 0.375000 0.875000
vt 0.312500 0.875000
vt 0.062500 0.375000
vt 0.062500 0.875000
vt 0.312500 0.375000
vt 0.375000 0.375000
vt 0.375000 0.875000
vt 0.312500 0.875000
vt 0.062500 0.375000
vt 0.062500 0.875000
vt 0.625000 0.062500
vt 0.687500 0.062500
vt 0.687500 0.312500
vt 0.625000 0.312500
vt 0.625000 0.062500
vt 0.687500 0.062500
vt 0.687500 0.312500
vt 0.625000 0.312500
vt 0.062500 0.375000
vt 0.312500 0.375000
vt 0.312500 0.875000
vt 0.062500 0.875000
vt 0.062500 0.375000
vt 0.312500 0.375000
vt 0.312500 0.875000
vt 0.062500 0.875000
vt 0.062500 0.375000
vt 0.312500 0.375000
vt 0.312500 0.875000
vt 0.062500 0.875000
vt 0.062500 0.375000
vt 0.312500 0.375000
vt 0.312500 0.875000
vt 0.062500 0.875000
vt 0.375000 0.062500
vt 0.625000 0.062500
vt 0.625000 0.312500
vt 0.375000 0.312500
vt 0.375000 0.062500
vt 0.625000 0.062500
vt 0.625000 0.312500
vt 0.375000 0.312500
vt 0.125000 0.875000
vt 0.250000 0.875000
vt 0.250000 1.000000
vt 0.125000 1.000000
vt 0.125000 0.875000
vt 0.250000 0.875000
vt 0.250000 1.000000
vt 0.125000 1.000000
vt 0.125000 0.875000
vt 0.250000 0.875000
vt 0.250000 1.000000
vt 0.125000 1.000000
vt 0.125000 0.875000
vt 0.250000 0.875000
vt 0.250000 1.000000
vt 0.125000 1.000000
vt 0.125000 0.875000
vt 0.250000 0.875000
vt 0.250000 1.000000
vt 0.125000 1.000000
vt 0.250000 0.875000
vt 0.437500 0.875000
vt 0.437500 0.937500
vt 0.250000 0.937500
vt 0.250000 0.875000
vt 0.312500 0.875000
vt 0.312500 0.937500
vt 0.250000 0.937500
vt 0.250000 0.875000
vt 0.437500 0.875000
vt 0.437500 0.937500
vt 0.250000 0.937500
vt 0.375000 0.875000
vt 0.437500 0.875000
vt 0.437500 0.937500
vt 0.375000 0.937500
vt 0.250000 0.875000
vt 0.437500 0.875000
vt 0.250000 0.875000
vt 0.437500 0.875000
vt 0.437500 0.937500
vt 0.250000 0.937500
vt 0.375000 0.562500
vt 0.437500 0.562500
vt 0.437500 0.875000
vt 0.375000 0.875000
vt 0.375000 0.562500
vt 0.437500 0.562500
vt 0.437500 0.875000
vt 0.375000 0.875000
vt 0.375000 0.562500
vt 0.437500 0.562500
vt 0.437500 0.875000
vt 0.375000 0.875000
vt 0.375000 0.562500
vt 0.437500 0.562500
vt 0.437500 0.875000
vt 0.375000 0.875000
vt 0.375000 0.812500
vt 0.437500 0.812500
vt 0.437500 0.625000
vt 0.375000 0.625000
vn 1.0000 0.0000 -0.0000
vn 0.0000 0.0000 1.0000
vn -1.0000 -0.0000 0.0000
vn -0.0000 -0.0000 -1.0000
vn -0.0000 1.0000 0.0000
vn 0.0000 -1.0000 0.0000
usemtl m_122fd3cc-b614-387f-501e-f2ea500a8276
s 1
f 1/1/1 2/2/1 3/3/1 4/4/1
f 5/5/2 1/6/2 4/7/2 6/8/2
f 7/9/3 5/5/3 6/8/3 8/10/3
f 2/2/4 7/11/4 8/12/4 3/3/4
f 8/13/5 6/14/5 4/15/5 3/16/5
f 2/17/6 1/18/6 5/19/6 7/20/6
f 9/21/1 10/22/1 11/23/1 12/24/1
f 13/25/2 9/21/2 12/24/2 14/26/2
f 15/27/3 13/28/3 14/29/3 16/30/3
f 10/31/4 15/32/4 16/33/4 11/34/4
f 16/35/5 14/36/5 12/37/5 11/38/5
f 10/39/6 9/40/6 13/41/6 15/42/6
f 17/43/1 18/44/1 19/45/1 20/46/1
f 21/47/2 17/48/2 20/49/2 22/50/2
f 23/51/3 21/47/3 22/50/3 24/52/3
f 18/53/4 23/54/4 24/55/4 19/56/4
f 24/57/5 22/58/5 20/59/5 19/60/5
f 18/61/6 17/62/6 21/63/6 23/64/6
f 25/65/1 26/66/1 27/67/1 28/68/1
f 29/69/2 25/65/2 28/68/2 30/70/2
f 31/71/3 29/72/3 30/73/3 32/74/3
f 26/75/4 31/71/4 32/74/4 27/76/4
f 32/77/5 30/78/5 28/79/5 27/80/5
f 26/81/6 25/82/6 29/83/6 31/84/6
f 33/85/1 34/86/1 35/87/1 36/88/1
f 37/89/2 33/90/2 36/91/2 38/92/2
f 39/93/3 37/94/3 38/95/3 40/96/3
f 34/97/4 39/98/4 40/99/4 35/100/4
f 40/101/5 38/102/5 36/103/5 35/104/5
f 34/105/6 33/106/6 37/107/6 39/108/6
f 41/109/1 42/110/1 43/111/1 44/112/1
f 45/113/2 41/114/2 44/115/2 46/116/2
f 47/117/3 45/118/3 46/119/3 48/120/3
f 42/121/4 47/122/4 48/123/4 43/124/4
f 48/125/5 46/126/5 44/115/5 43/124/5
f 42/121/6 41/114/6 45/127/6 47/128/6
f 49/129/1 50/130/1 51/131/1 52/132/1
f 53/133/2 49/134/2 52/135/2 54/136/2
f 55/137/3 53/138/3 54/139/3 56/140/3
f 50/141/4 55/142/4 56/143/4 51/144/4
f 56/143/5 54/136/5 52/145/5 51/146/5
f 50/147/6 49/148/6 53/149/6 55/150/6
f 57/151/1 58/152/1 59/153/1 60/154/1
f 61/155/2 57/156/2 60/157/2 62/158/2
f 63/159/3 61/160/3 62/161/3 64/162/3
f 58/163/4 63/164/4 64/165/4 59/166/4
f 64/167/5 62/168/5 60/157/5 59/166/5
f 58/163/6 57/156/6 61/169/6 63/170/6
