# Blender v2.80 (sub 75) OBJ File: ''
# www.blender.org
mtllib boltx_shell2.mtl
o shellModel
v -2.347908 -1.184960 -0.000020
v -2.347908 -1.184960 0.000020
v -2.347908 -1.184921 0.000020
v -2.347908 -1.184921 -0.000020
v -2.346913 -1.184960 -0.000020
v -2.346913 -1.184921 -0.000020
v -2.346913 -1.184960 0.000020
v -2.346913 -1.184921 0.000020
vt 0.281250 0.718750
vt 0.296875 0.718750
vt 0.296875 0.734375
vt 0.281250 0.734375
vt 0.671875 0.718750
vt 0.671875 0.734375
vt 0.656250 0.718750
vt 0.656250 0.734375
vt 0.281250 0.718750
vt 0.671875 0.718750
vt 0.671875 0.734375
vt 0.281250 0.734375
vt 0.656250 0.687500
vt 0.671875 0.687500
vt 0.671875 0.296875
vt 0.656250 0.296875
vt 0.656250 0.296875
vt 0.671875 0.296875
vt 0.671875 0.687500
vt 0.656250 0.687500
vn -1.0000 0.0000 0.0000
vn 0.0000 0.0000 -1.0000
vn 1.0000 0.0000 0.0000
vn 0.0000 -0.0000 1.0000
vn 0.0000 1.0000 0.0000
vn 0.0000 -1.0000 0.0000
usemtl m_93fb1e70-5bca-551c-5f31-6958cb1bfabb.001
s 1
f 1/1/1 2/2/1 3/3/1 4/4/1
f 5/5/2 1/1/2 4/4/2 6/6/2
f 7/7/3 5/5/3 6/6/3 8/8/3
f 2/9/4 7/10/4 8/11/4 3/12/4
f 8/13/5 6/14/5 4/15/5 3/16/5
f 2/17/6 1/18/6 5/19/6 7/20/6
